{
.appVersion = "930";
classes = (
{
code = "A B C D E F G H I J K L M N O P Q R S T U V W X Y Z AE Lslash Oslash OE Eth Thorn Aacute Acircumflex Adieresis Agrave Aring Atilde Ccedilla Eacute Ecircumflex Edieresis Egrave Iacute Icircumflex Idieresis Igrave Ntilde Oacute Ocircumflex Odieresis Ograve Otilde Scaron Uacute Ucircumflex Udieresis Ugrave Yacute Ydieresis Zcaron Omega Delta";
name = cpsp1;
}
);
copyright = "Copyright 2012 The Share Tech Project Authors (post@carrois.com), with Reserved Font Name 'Share’.";
customParameters = (
{
name = licenseURL;
value = "http://scripts.sil.org/OFL";
},
{
name = license;
value = "This Font Software is licensed under the SIL Open Font License, Version 1.1. This license is available with a FAQ at: http://scripts.sil.org/OFL";
},
{
name = fsType;
value = (
);
},
{
name = "Use Typo Metrics";
value = 1;
}
);
date = "2016-08-31 13:16:12 +0000";
designer = "Ralph du Carrois";
designerURL = "http://www.carrois.com";
disablesAutomaticAlignment = 1;
familyName = "Share Tech";
featurePrefixes = (
{
code = "languagesystem latn dflt;";
name = "FontLab OTPanel";
}
);
features = (
{
code = "feature numr;\012  feature ordn;\012  feature sups;\012";
name = aalt;
},
{
code = "# Capital Spacing\012 script latn; # Latin\012    pos @cpsp1 <5 0 10 0>;\012";
name = cpsp;
},
{

glyphs = (
{
glyphname = A;
lastChange = "2016-08-31 13:14:00 +0000";
layers = (
{
hints = (
{
horizontal = 1;
place = "{0, 21}";
target = up;
type = BottomGhost;
},
{
horizontal = 1;
place = "{177, 75}";
},
{
horizontal = 1;
place = "{700, -20}";
target = down;
type = TopGhost;
}
);
layerId = UUID0;
paths = (
{
closed = 1;
nodes = (
"332 252 LINE",
"169 252 LINE",
"250 634 LINE"
);
},
{
closed = 1;
nodes = (
"475 0 LINE",
"309 700 LINE",
"194 700 LINE",
"25 0 LINE",
"114 0 LINE",
"153 177 LINE",
"348 177 LINE",
"386 0 LINE"
);
}
);
width = 500;
}
);
unicode = 0041;
},
{
glyphname = Aacute;
lastChange = "2016-08-31 13:14:00 +0000";
layers = (
{
hints = (
{
horizontal = 1;
place = "{0, 21}";
target = up;
type = BottomGhost;
},
{
horizontal = 1;
place = "{177, 75}";
},
{
horizontal = 1;
place = "{700, -20}";
target = down;
type = TopGhost;
},
{
horizontal = 1;
place = "{841, -20}";
target = down;
type = TopGhost;
}
);
layerId = UUID0;
paths = (
{
closed = 1;
nodes = (
"244 726 LINE",
"376 841 LINE",
"265 841 LINE",
"161 726 LINE"
);
},
{
closed = 1;
nodes = (
"330 252 LINE",
"161 252 LINE",
"249 627 LINE"
);
},
{
closed = 1;
nodes = (
"475 0 LINE",
"309 700 LINE",
"194 700 LINE",
"25 0 LINE",
"114 0 LINE",
"153 177 LINE",
"346 177 LINE",
"384 0 LINE"
);
}
);
width = 500;
}
);
unicode = 00C1;
},
{
glyphname = Acircumflex;
lastChange = "2016-08-31 13:14:00 +0000";
layers = (
{
hints = (
{
horizontal = 1;
place = "{0, 21}";
target = up;
type = BottomGhost;
},
{
horizontal = 1;
place = "{177, 75}";
},
{
horizontal = 1;
place = "{700, -20}";
target = down;
type = TopGhost;
},
{
horizontal = 1;
place = "{845, -20}";
target = down;
type = TopGhost;
}
);
layerId = UUID0;
paths = (
{
closed = 1;
nodes = (
"406 730 LINE",
"295 845 LINE",
"203 845 LINE",
"93 730 LINE",
"189 730 LINE",
"249 794 LINE",
"309 730 LINE"
);
},
{
closed = 1;
nodes = (
"330 252 LINE",
"169 252 LINE",
"249 627 LINE"
);
},
{
closed = 1;
nodes = (
"475 0 LINE",
"309 700 LINE",
"194 700 LINE",
"25 0 LINE",
"114 0 LINE",
"153 177 LINE",
"346 177 LINE",
"384 0 LINE"
);
}
);
width = 500;
}
);
unicode = 00C2;
},
{
glyphname = Adieresis;
lastChange = "2016-08-31 13:14:00 +0000";
layers = (
{
hints = (
{
place = "{113, 85}";
},
{
horizontal = 1;
place = "{0, 21}";
target = up;
type = BottomGhost;
},
{
horizontal = 1;
place = "{177, 75}";
},
{
horizontal = 1;
place = "{700, -20}";
target = down;
type = TopGhost;
},
{
horizontal = 1;
place = "{735, 80}";
}
);
layerId = UUID0;
paths = (
{
closed = 1;
nodes = (
"330 252 LINE",
"169 252 LINE",
"249 627 LINE"
);
},
{
closed = 1;
nodes = (
"475 0 LINE",
"309 700 LINE",
"194 700 LINE",
"25 0 LINE",
"114 0 LINE",
"153 177 LINE",
"346 177 LINE",
"384 0 LINE"
);
},
{
closed = 1;
nodes = (
"398 735 LINE",
"384 815 LINE",
"313 815 LINE",
"313 735 LINE"
);
},
{
closed = 1;
nodes = (
"198 735 LINE",
"198 815 LINE",
"113 815 LINE",
"113 735 LINE"
);
}
);
width = 500;
}
);
unicode = 00C4;
},
{
glyphname = Agrave;
lastChange = "2016-08-31 13:14:00 +0000";
layers = (
{
hints = (
{
horizontal = 1;
place = "{0, 21}";
target = up;
type = BottomGhost;
},
{
horizontal = 1;
place = "{177, 75}";
},
{
horizontal = 1;
place = "{700, -20}";
target = down;
type = TopGhost;
},
{
horizontal = 1;
place = "{841, -20}";
target = down;
type = TopGhost;
}
);
layerId = UUID0;
paths = (
{
closed = 1;
nodes = (
"337 726 LINE",
"233 841 LINE",
"122 841 LINE",
"254 726 LINE"
);
},
{
closed = 1;
nodes = (
"330 252 LINE",
"169 252 LINE",
"249 627 LINE"
);
},
{
closed = 1;
nodes = (
"475 0 LINE",
"309 700 LINE",
"194 700 LINE",
"25 0 LINE",
"114 0 LINE",
"153 177 LINE",
"346 177 LINE",
"384 0 LINE"
);
}
);
width = 500;
}
);
unicode = 00C0;
},
{
glyphname = Aring;
lastChange = "2016-08-31 13:14:00 +0000";
layers = (
{
hints = (
{
place = "{159, 55}";
},
{
place = "{286, 57}";
},
{
horizontal = 1;
place = "{0, 21}";
target = up;
type = BottomGhost;
},
{
horizontal = 1;
place = "{177, 75}";
},
{
horizontal = 1;
place = "{702, -20}";
target = down;
type = TopGhost;
},
{
horizontal = 1;
place = "{809, 46}";
}
);
layerId = UUID0;
paths = (
{
closed = 1;
nodes = (
"343 741 LINE",
"343 770 LINE SMOOTH",
"343 828 OFFCURVE",
"304 855 OFFCURVE",
"254 855 CURVE SMOOTH",
"248 855 LINE SMOOTH",
"198 855 OFFCURVE",
"159 828 OFFCURVE",
"159 770 CURVE SMOOTH",
"159 741 LINE SMOOTH",
"159 710 OFFCURVE",
"170 688 OFFCURVE",
"188 674 CURVE",
"25 0 LINE",
"114 0 LINE",
"153 177 LINE",
"346 177 LINE",
"384 0 LINE",
"475 0 LINE",
"315 675 LINE",
"333 689 OFFCURVE",
"342 711 OFFCURVE",
"343 741 CURVE"
);
},
{
closed = 1;
nodes = (
"330 252 LINE",
"169 252 LINE",
"249 627 LINE"
);
},
{
closed = 1;
nodes = (
"286 740 LINE SMOOTH",
"286 720 OFFCURVE",
"279 702 OFFCURVE",
"254 702 CURVE SMOOTH",
"248 702 LINE SMOOTH",
"223 702 OFFCURVE",
"214 720 OFFCURVE",
"214 740 CURVE SMOOTH",
"214 771 LINE SMOOTH",
"214 791 OFFCURVE",
"223 809 OFFCURVE",
"248 809 CURVE SMOOTH",
"254 809 LINE SMOOTH",
"279 809 OFFCURVE",
"286 791 OFFCURVE",
"286 771 CURVE SMOOTH"
);
}
);
width = 500;
}
);
unicode = 00C5;
},
{
glyphname = Atilde;
lastChange = "2016-08-31 13:14:00 +0000";
layers = (
{
hints = (
{
horizontal = 1;
place = "{0, 21}";
target = up;
type = BottomGhost;
},
{
horizontal = 1;
place = "{177, 75}";
},
{
horizontal = 1;
place = "{700, -20}";
target = down;
type = TopGhost;
},
{
horizontal = 1;
place = "{731, 69}";
},
{
horizontal = 1;
place = "{771, 69}";
}
);
layerId = UUID0;
paths = (
{
closed = 1;
nodes = (
"330 252 LINE",
"169 252 LINE",
"249 627 LINE"
);
},
{
closed = 1;
nodes = (
"475 0 LINE",
"309 700 LINE",
"194 700 LINE",
"25 0 LINE",
"114 0 LINE",
"153 177 LINE",
"346 177 LINE",
"384 0 LINE"
);
},
{
closed = 1;
nodes = (
"114 735 LINE",
"114 735 OFFCURVE",
"177 771 OFFCURVE",
"191 771 CURVE SMOOTH",
"201 771 LINE SMOOTH",
"221 771 OFFCURVE",
"298 731 OFFCURVE",
"311 731 CURVE SMOOTH",
"326 731 LINE SMOOTH",
"343 731 OFFCURVE",
"394 764 OFFCURVE",
"394 764 CURVE",
"394 836 LINE",
"394 836 OFFCURVE",
"339 800 OFFCURVE",
"327 800 CURVE SMOOTH",
"317 800 LINE SMOOTH",
"294 800 OFFCURVE",
"230 840 OFFCURVE",
"206 840 CURVE SMOOTH",
"191 840 LINE SMOOTH",
"172 840 OFFCURVE",
"114 807 OFFCURVE",
"114 807 CURVE"
);
}
);
width = 500;
}
);
unicode = 00C3;
},
{
glyphname = AE;
lastChange = "2016-08-31 13:14:00 +0000";
layers = (
{
hints = (
{
horizontal = 1;
place = "{0, 73}";
},
{
horizontal = 1;
place = "{177, 75}";
},
{
horizontal = 1;
place = "{325, 73}";
},
{
horizontal = 1;
place = "{627, 73}";
}
);
layerId = UUID0;
paths = (
{
closed = 1;
nodes = (
"688 0 LINE",
"688 73 LINE",
"467 73 LINE",
"437 325 LINE",
"663 325 LINE",
"663 398 LINE",
"428 398 LINE",
"401 627 LINE",
"668 627 LINE",
"668 700 LINE",
"264 700 LINE",
"25 0 LINE",
"114 0 LINE",
"171 177 LINE",
"370 177 LINE",
"390 0 LINE"
);
},
{
closed = 1;
nodes = (
"320 627 LINE",
"361 252 LINE",
"195 252 LINE"
);
}
);
width = 748;
}
);
unicode = 00C6;
},
{
glyphname = B;
lastChange = "2016-08-31 13:14:00 +0000";
layers = (
{
hints = (
{
place = "{85, 87}";
},
{
place = "{348, 87}";
},
{
place = "{358, 87}";
},
{
horizontal = 1;
place = "{0, 75}";
},
{
horizontal = 1;
place = "{329, 75}";
},
{
horizontal = 1;
place = "{625, 75}";
}
);
layerId = UUID0;
paths = (
{
closed = 1;
nodes = (
"445 158 LINE",
"445 248 LINE SMOOTH",
"445 308 OFFCURVE",
"422 348 OFFCURVE",
"380 371 CURVE",
"414 395 OFFCURVE",
"435 434 OFFCURVE",
"435 487 CURVE SMOOTH",
"435 544 LINE SMOOTH",
"435 659 OFFCURVE",
"378 700 OFFCURVE",
"263 700 CURVE SMOOTH",
"85 700 LINE",
"85 0 LINE",
"275 0 LINE SMOOTH",
"395 0 OFFCURVE",
"445 43 OFFCURVE",
"445 158 CURVE"
);
},
{
closed = 1;
nodes = (
"348 477 LINE SMOOTH",
"348 432 OFFCURVE",
"315 404 OFFCURVE",
"275 404 CURVE SMOOTH",
"172 404 LINE",
"172 625 LINE",
"275 625 LINE SMOOTH",
"325 625 OFFCURVE",
"348 604 OFFCURVE",
"348 553 CURVE SMOOTH"
);
},
{
closed = 1;
nodes = (
"358 148 LINE SMOOTH",
"358 97 OFFCURVE",
"335 75 OFFCURVE",
"284 75 CURVE SMOOTH",
"172 75 LINE",
"172 329 LINE",
"285 329 LINE SMOOTH",
"328 329 OFFCURVE",
"358 301 OFFCURVE",
"358 257 CURVE SMOOTH"
);
}
);
width = 520;
}
);
unicode = 0042;
},
{
glyphname = C;
lastChange = "2016-08-31 13:14:00 +0000";
layers = (
{
hints = (
{
place = "{75, 87}";
},
{
horizontal = 1;
place = "{0, 76}";
},
{
horizontal = 1;
place = "{624, 76}";
}
);
layerId = UUID0;
paths = (
{
closed = 1;
nodes = (
"377 0 LINE",
"377 76 LINE",
"245 76 LINE SMOOTH",
"195 76 OFFCURVE",
"162 111 OFFCURVE",
"162 151 CURVE SMOOTH",
"162 549 LINE SMOOTH",
"162 589 OFFCURVE",
"195 624 OFFCURVE",
"245 624 CURVE SMOOTH",
"377 624 LINE",
"377 700 LINE",
"255 700 LINE SMOOTH",
"140 700 OFFCURVE",
"75 644 OFFCURVE",
"75 530 CURVE SMOOTH",
"75 170 LINE SMOOTH",
"75 56 OFFCURVE",
"140 0 OFFCURVE",
"255 0 CURVE SMOOTH"
);
}
);
width = 417;
}
);
unicode = 0043;
},
{
glyphname = Ccedilla;
lastChange = "2016-08-31 13:14:00 +0000";
layers = (
{
hints = (
{
place = "{75, 87}";
},
{
place = "{213, 70}";
},
{
place = "{297, 73}";
},
{
horizontal = 1;
place = "{-200, 64}";
},
{
horizontal = 1;
place = "{-76, 55}";
},
{
horizontal = 1;
place = "{0, 76}";
},
{
horizontal = 1;
place = "{624, 76}";
}
);
layerId = UUID0;
paths = (
{
closed = 1;
nodes = (
"282 -200 LINE SMOOTH",
"317 -200 OFFCURVE",
"370 -193 OFFCURVE",
"370 -105 CURVE SMOOTH",
"370 -36 OFFCURVE",
"341 -21 OFFCURVE",
"283 -21 CURVE",
"283 0 LINE",
"377 0 LINE",
"377 76 LINE",
"245 76 LINE SMOOTH",
"195 76 OFFCURVE",
"162 111 OFFCURVE",
"162 151 CURVE SMOOTH",
"162 549 LINE SMOOTH",
"162 589 OFFCURVE",
"195 624 OFFCURVE",
"245 624 CURVE SMOOTH",
"377 624 LINE",
"377 700 LINE",
"255 700 LINE SMOOTH",
"140 700 OFFCURVE",
"75 644 OFFCURVE",
"75 530 CURVE SMOOTH",
"75 170 LINE SMOOTH",
"75 70 OFFCURVE",
"124 15 OFFCURVE",
"213 2 CURVE",
"213 -76 LINE",
"262 -76 LINE SMOOTH",
"285 -76 OFFCURVE",
"297 -82 OFFCURVE",
"297 -105 CURVE SMOOTH",
"297 -127 OFFCURVE",
"285 -136 OFFCURVE",
"264 -136 CURVE SMOOTH",
"197 -136 LINE",
"197 -200 LINE"
);
}
);
width = 417;
}
);
unicode = 00C7;
},
{
glyphname = D;
lastChange = "2016-08-31 13:14:00 +0000";
layers = (
{
hints = (
{
place = "{85, 87}";
},
{
place = "{364, 87}";
},
{
horizontal = 1;
place = "{0, 75}";
},
{
horizontal = 1;
place = "{625, 75}";
}
);
layerId = UUID0;
paths = (
{
closed = 1;
nodes = (
"451 158 LINE",
"451 544 LINE SMOOTH",
"451 659 OFFCURVE",
"384 700 OFFCURVE",
"269 700 CURVE SMOOTH",
"85 700 LINE",
"85 0 LINE",
"281 0 LINE SMOOTH",
"401 0 OFFCURVE",
"451 43 OFFCURVE",
"451 158 CURVE"
);
},
{
closed = 1;
nodes = (
"364 148 LINE SMOOTH",
"364 97 OFFCURVE",
"341 75 OFFCURVE",
"290 75 CURVE SMOOTH",
"172 75 LINE",
"172 625 LINE",
"291 625 LINE SMOOTH",
"334 625 OFFCURVE",
"364 597 OFFCURVE",
"364 553 CURVE SMOOTH"
);
}
);
width = 526;
}
);
unicode = 0044;
},
{
glyphname = Eth;
lastChange = "2016-08-31 13:14:00 +0000";
layers = (
{
hints = (
{
place = "{90, 87}";
},
{
place = "{369, 87}";
},
{
horizontal = 1;
place = "{0, 75}";
},
{
horizontal = 1;
place = "{325, 75}";
},
{
horizontal = 1;
place = "{625, 75}";
}
);
layerId = UUID0;
paths = (
{
closed = 1;
nodes = (
"456 158 LINE",
"456 544 LINE SMOOTH",
"456 659 OFFCURVE",
"389 700 OFFCURVE",
"274 700 CURVE SMOOTH",
"90 700 LINE",
"90 400 LINE",
"25 400 LINE",
"25 325 LINE",
"90 325 LINE",
"90 0 LINE",
"286 0 LINE SMOOTH",
"406 0 OFFCURVE",
"456 43 OFFCURVE",
"456 158 CURVE"
);
},
{
closed = 1;
nodes = (
"369 148 LINE SMOOTH",
"369 97 OFFCURVE",
"346 75 OFFCURVE",
"295 75 CURVE SMOOTH",
"177 75 LINE",
"177 325 LINE",
"295 325 LINE",
"295 400 LINE",
"177 400 LINE",
"177 625 LINE",
"296 625 LINE SMOOTH",
"339 625 OFFCURVE",
"369 597 OFFCURVE",
"369 553 CURVE SMOOTH"
);
}
);
width = 531;
}
);
unicode = 00D0;
},
{
glyphname = E;
lastChange = "2016-08-31 13:14:00 +0000";
layers = (
{
hints = (
{
place = "{85, 87}";
},
{
horizontal = 1;
place = "{0, 73}";
},
{
horizontal = 1;
place = "{325, 73}";
},
{
horizontal = 1;
place = "{627, 73}";
}
);
layerId = UUID0;
paths = (
{
closed = 1;
nodes = (
"413 0 LINE",
"413 73 LINE",
"172 73 LINE",
"172 325 LINE",
"388 325 LINE",
"388 398 LINE",
"172 398 LINE",
"172 627 LINE",
"413 627 LINE",
"413 700 LINE",
"85 700 LINE",
"85 0 LINE"
);
}
);
width = 473;
}
);
unicode = 0045;
},
{
glyphname = Eacute;
lastChange = "2016-08-31 13:14:00 +0000";
layers = (
{
hints = (
{
place = "{85, 87}";
},
{
horizontal = 1;
place = "{0, 73}";
},
{
horizontal = 1;
place = "{325, 73}";
},
{
horizontal = 1;
place = "{627, 73}";
},
{
horizontal = 1;
place = "{841, -20}";
target = down;
type = TopGhost;
}
);
layerId = UUID0;
paths = (
{
closed = 1;
nodes = (
"265 726 LINE",
"397 841 LINE",
"286 841 LINE",
"182 726 LINE"
);
},
{
closed = 1;
nodes = (
"413 0 LINE",
"413 73 LINE",
"172 73 LINE",
"172 325 LINE",
"388 325 LINE",
"388 398 LINE",
"172 398 LINE",
"172 627 LINE",
"413 627 LINE",
"413 700 LINE",
"85 700 LINE",
"85 0 LINE"
);
}
);
width = 473;
}
);
unicode = 00C9;
},
{
glyphname = Ecircumflex;
lastChange = "2016-08-31 13:14:00 +0000";
layers = (
{
hints = (
{
place = "{85, 87}";
},
{
horizontal = 1;
place = "{0, 73}";
},
{
horizontal = 1;
place = "{325, 73}";
},
{
horizontal = 1;
place = "{627, 73}";
},
{
horizontal = 1;
place = "{845, -20}";
target = down;
type = TopGhost;
}
);
layerId = UUID0;
paths = (
{
closed = 1;
nodes = (
"406 730 LINE",
"295 845 LINE",
"203 845 LINE",
"93 730 LINE",
"189 730 LINE",
"249 794 LINE",
"309 730 LINE"
);
},
{
closed = 1;
nodes = (
"413 0 LINE",
"413 73 LINE",
"172 73 LINE",
"172 325 LINE",
"388 325 LINE",
"388 398 LINE",
"172 398 LINE",
"172 627 LINE",
"413 627 LINE",
"413 700 LINE",
"85 700 LINE",
"85 0 LINE"
);
}
);
width = 473;
}
);
unicode = 00CA;
},
{
glyphname = Edieresis;
lastChange = "2016-08-31 13:14:00 +0000";
layers = (
{
hints = (
{
place = "{85, 87}";
},
{
place = "{108, 85}";
},
{
place = "{308, 85}";
},
{
horizontal = 1;
place = "{0, 73}";
},
{
horizontal = 1;
place = "{325, 73}";
},
{
horizontal = 1;
place = "{627, 73}";
},
{
horizontal = 1;
place = "{735, 80}";
}
);
layerId = UUID0;
paths = (
{
closed = 1;
nodes = (
"413 0 LINE",
"413 73 LINE",
"172 73 LINE",
"172 325 LINE",
"388 325 LINE",
"388 398 LINE",
"172 398 LINE",
"172 627 LINE",
"413 627 LINE",
"413 700 LINE",
"85 700 LINE",
"85 0 LINE"
);
},
{
closed = 1;
nodes = (
"393 735 LINE",
"393 815 LINE",
"308 815 LINE",
"308 735 LINE"
);
},
{
closed = 1;
nodes = (
"193 735 LINE",
"193 815 LINE",
"108 815 LINE",
"108 735 LINE"
);
}
);
width = 473;
}
);
unicode = 00CB;
},
{
glyphname = Egrave;
lastChange = "2016-08-31 13:14:00 +0000";
layers = (
{
hints = (
{
place = "{85, 87}";
},
{
horizontal = 1;
place = "{0, 73}";
},
{
horizontal = 1;
place = "{325, 73}";
},
{
horizontal = 1;
place = "{627, 73}";
},
{
horizontal = 1;
place = "{841, -20}";
target = down;
type = TopGhost;
}
);
layerId = UUID0;
paths = (
{
closed = 1;
nodes = (
"327 726 LINE",
"223 841 LINE",
"112 841 LINE",
"244 726 LINE"
);
},
{
closed = 1;
nodes = (
"413 0 LINE",
"413 73 LINE",
"172 73 LINE",
"172 325 LINE",
"388 325 LINE",
"388 398 LINE",
"172 398 LINE",
"172 627 LINE",
"413 627 LINE",
"413 700 LINE",
"85 700 LINE",
"85 0 LINE"
);
}
);
width = 473;
}
);
unicode = 00C8;
},
{
glyphname = F;
lastChange = "2016-08-31 13:14:00 +0000";
layers = (
{
hints = (
{
place = "{85, 87}";
},
{
horizontal = 1;
place = "{0, 21}";
target = up;
type = BottomGhost;
},
{
horizontal = 1;
place = "{315, 73}";
},
{
horizontal = 1;
place = "{627, 73}";
}
);
layerId = UUID0;
paths = (
{
closed = 1;
nodes = (
"413 627 LINE",
"413 700 LINE",
"85 700 LINE",
"85 0 LINE",
"172 0 LINE",
"172 315 LINE",
"388 315 LINE",
"388 388 LINE",
"172 388 LINE",
"172 627 LINE"
);
}
);
width = 458;
}
);
unicode = 0046;
},
{
glyphname = G;
lastChange = "2016-08-31 13:14:00 +0000";
layers = (
{
hints = (
{
place = "{75, 87}";
},
{
place = "{337, 83}";
},
{
horizontal = 1;
place = "{0, 76}";
},
{
horizontal = 1;
place = "{293, 75}";
},
{
horizontal = 1;
place = "{624, 76}";
}
);
layerId = UUID0;
paths = (
{
closed = 1;
nodes = (
"420 0 LINE",
"420 368 LINE",
"253 368 LINE",
"253 293 LINE",
"337 293 LINE",
"337 76 LINE",
"245 76 LINE SMOOTH",
"195 76 OFFCURVE",
"162 111 OFFCURVE",
"162 151 CURVE SMOOTH",
"162 549 LINE SMOOTH",
"162 589 OFFCURVE",
"195 624 OFFCURVE",
"245 624 CURVE SMOOTH",
"390 624 LINE",
"390 700 LINE",
"255 700 LINE SMOOTH",
"140 700 OFFCURVE",
"75 644 OFFCURVE",
"75 530 CURVE SMOOTH",
"75 170 LINE SMOOTH",
"75 56 OFFCURVE",
"140 0 OFFCURVE",
"255 0 CURVE SMOOTH"
);
}
);
width = 490;
}
);
unicode = 0047;
},
{
glyphname = H;
lastChange = "2016-08-31 13:14:00 +0000";
layers = (
{
hints = (
{
place = "{85, 87}";
},
{
place = "{378, 87}";
},
{
horizontal = 1;
place = "{0, 21}";
target = up;
type = BottomGhost;
},
{
horizontal = 1;
place = "{322, 74}";
},
{
horizontal = 1;
place = "{700, -20}";
target = down;
type = TopGhost;
}
);
layerId = UUID0;
paths = (
{
closed = 1;
nodes = (
"465 0 LINE",
"465 700 LINE",
"378 700 LINE",
"378 396 LINE",
"172 396 LINE",
"172 700 LINE",
"85 700 LINE",
"85 0 LINE",
"172 0 LINE",
"172 322 LINE",
"378 322 LINE",
"378 0 LINE"
);
}
);
width = 550;
}
);
unicode = 0048;
},
{
glyphname = I;
lastChange = "2016-08-31 13:14:00 +0000";
layers = (
{
hints = (
{
place = "{115, 87}";
},
{
horizontal = 1;
place = "{0, 73}";
},
{
horizontal = 1;
place = "{627, 73}";
}
);
layerId = UUID0;
paths = (
{
closed = 1;
nodes = (
"272 0 LINE",
"272 73 LINE",
"202 73 LINE",
"202 627 LINE",
"272 627 LINE",
"272 700 LINE",
"45 700 LINE",
"45 627 LINE",
"115 627 LINE",
"115 73 LINE",
"45 73 LINE",
"45 0 LINE"
);
}
);
width = 317;
}
);
unicode = 0049;
},
{
glyphname = Iacute;
lastChange = "2016-08-31 13:14:00 +0000";
layers = (
{
hints = (
{
place = "{115, 87}";
},
{
horizontal = 1;
place = "{0, 73}";
},
{
horizontal = 1;
place = "{627, 73}";
},
{
horizontal = 1;
place = "{841, -20}";
target = down;
type = TopGhost;
}
);
layerId = UUID0;
paths = (
{
closed = 1;
nodes = (
"144 726 LINE",
"276 841 LINE",
"165 841 LINE",
"61 726 LINE"
);
},
{
closed = 1;
nodes = (
"272 0 LINE",
"272 73 LINE",
"202 73 LINE",
"202 627 LINE",
"272 627 LINE",
"272 700 LINE",
"45 700 LINE",
"45 627 LINE",
"115 627 LINE",
"115 73 LINE",
"45 73 LINE",
"45 0 LINE"
);
}
);
width = 317;
}
);
unicode = 00CD;
},
{
glyphname = Icircumflex;
lastChange = "2016-08-31 13:14:00 +0000";
layers = (
{
hints = (
{
place = "{115, 87}";
},
{
horizontal = 1;
place = "{0, 73}";
},
{
horizontal = 1;
place = "{627, 73}";
},
{
horizontal = 1;
place = "{845, -20}";
target = down;
type = TopGhost;
}
);
layerId = UUID0;
paths = (
{
closed = 1;
nodes = (
"315 730 LINE",
"204 845 LINE",
"112 845 LINE",
"2 730 LINE",
"98 730 LINE",
"158 794 LINE",
"218 730 LINE"
);
},
{
closed = 1;
nodes = (
"272 0 LINE",
"272 73 LINE",
"202 73 LINE",
"202 627 LINE",
"272 627 LINE",
"272 700 LINE",
"45 700 LINE",
"45 627 LINE",
"115 627 LINE",
"115 73 LINE",
"45 73 LINE",
"45 0 LINE"
);
}
);
width = 317;
}
);
unicode = 00CE;
},
{
glyphname = Idieresis;
lastChange = "2016-08-31 13:14:00 +0000";
layers = (
{
hints = (
{
place = "{16, 85}";
},
{
place = "{115, 87}";
},
{
place = "{216, 85}";
},
{
horizontal = 1;
place = "{0, 73}";
},
{
horizontal = 1;
place = "{627, 73}";
},
{
horizontal = 1;
place = "{735, 80}";
}
);
layerId = UUID0;
paths = (
{
closed = 1;
nodes = (
"272 0 LINE",
"272 73 LINE",
"202 73 LINE",
"202 627 LINE",
"272 627 LINE",
"272 700 LINE",
"45 700 LINE",
"45 627 LINE",
"115 627 LINE",
"115 73 LINE",
"45 73 LINE",
"45 0 LINE"
);
},
{
closed = 1;
nodes = (
"301 735 LINE",
"301 815 LINE",
"216 815 LINE",
"216 735 LINE"
);
},
{
closed = 1;
nodes = (
"101 735 LINE",
"101 815 LINE",
"16 815 LINE",
"16 735 LINE"
);
}
);
width = 317;
}
);
unicode = 00CF;
},
{
glyphname = Igrave;
lastChange = "2016-08-31 13:14:00 +0000";
layers = (
{
hints = (
{
place = "{115, 87}";
},
{
horizontal = 1;
place = "{0, 73}";
},
{
horizontal = 1;
place = "{627, 73}";
},
{
horizontal = 1;
place = "{841, -20}";
target = down;
type = TopGhost;
}
);
layerId = UUID0;
paths = (
{
closed = 1;
nodes = (
"253 726 LINE",
"149 841 LINE",
"38 841 LINE",
"170 726 LINE"
);
},
{
closed = 1;
nodes = (
"272 0 LINE",
"272 73 LINE",
"202 73 LINE",
"202 627 LINE",
"272 627 LINE",
"272 700 LINE",
"45 700 LINE",
"45 627 LINE",
"115 627 LINE",
"115 73 LINE",
"45 73 LINE",
"45 0 LINE"
);
}
);
width = 317;
}
);
unicode = 00CC;
},
{
glyphname = J;
lastChange = "2016-08-31 13:14:00 +0000";
layers = (
{
hints = (
{
place = "{218, 87}";
},
{
horizontal = 1;
place = "{0, 76}";
},
{
horizontal = 1;
place = "{625, 75}";
}
);
layerId = UUID0;
paths = (
{
closed = 1;
nodes = (
"305 170 LINE",
"305 700 LINE",
"67 700 LINE",
"67 625 LINE",
"218 625 LINE",
"218 151 LINE SMOOTH",
"218 111 OFFCURVE",
"185 76 OFFCURVE",
"135 76 CURVE SMOOTH",
"30 76 LINE",
"30 0 LINE",
"125 0 LINE SMOOTH",
"240 0 OFFCURVE",
"305 56 OFFCURVE",
"305 170 CURVE"
);
}
);
width = 380;
}
);
unicode = 004A;
},
{
glyphname = K;
lastChange = "2016-08-31 13:14:00 +0000";
layers = (
{
hints = (
{
place = "{85, 87}";
},
{
horizontal = 1;
place = "{0, 21}";
target = up;
type = BottomGhost;
},
{
horizontal = 1;
place = "{700, -20}";
target = down;
type = TopGhost;
}
);
layerId = UUID0;
paths = (
{
closed = 1;
nodes = (
"462 0 LINE",
"262 394 LINE",
"452 700 LINE",
"357 700 LINE",
"172 398 LINE",
"172 700 LINE",
"85 700 LINE",
"85 0 LINE",
"172 0 LINE",
"172 258 LINE",
"208 318 LINE",
"364 0 LINE"
);
}
);
width = 492;
}
);
unicode = 004B;
},
{
glyphname = L;
lastChange = "2016-08-31 13:14:00 +0000";
layers = (
{
hints = (
{
place = "{85, 87}";
},
{
horizontal = 1;
place = "{0, 76}";
},
{
horizontal = 1;
place = "{700, -20}";
target = down;
type = TopGhost;
}
);
layerId = UUID0;
paths = (
{
closed = 1;
nodes = (
"395 0 LINE",
"395 76 LINE",
"172 76 LINE",
"172 700 LINE",
"85 700 LINE",
"85 0 LINE"
);
}
);
width = 410;
}
);
unicode = 004C;
},
{
glyphname = Lslash;
lastChange = "2016-08-31 13:14:00 +0000";
layers = (
{
hints = (
{
place = "{85, 87}";
},
{
horizontal = 1;
place = "{0, 76}";
},
{
horizontal = 1;
place = "{700, -20}";
target = down;
type = TopGhost;
}
);
layerId = UUID0;
paths = (
{
closed = 1;
nodes = (
"395 0 LINE",
"395 76 LINE",
"172 76 LINE",
"172 371 LINE",
"295 430 LINE",
"295 510 LINE",
"172 451 LINE",
"172 700 LINE",
"85 700 LINE",
"85 409 LINE",
"25 380 LINE",
"25 300 LINE",
"85 329 LINE",
"85 0 LINE"
);
}
);
width = 410;
}
);
unicode = 0141;
},
{
glyphname = M;
lastChange = "2016-08-31 13:14:00 +0000";
layers = (
{
hints = (
{
place = "{85, 80}";
},
{
place = "{462, 83}";
},
{
horizontal = 1;
place = "{0, 21}";
target = up;
type = BottomGhost;
},
{
horizontal = 1;
place = "{700, -20}";
target = down;
type = TopGhost;
}
);
layerId = UUID0;
paths = (
{
closed = 1;
nodes = (
"545 0 LINE",
"545 700 LINE",
"407 700 LINE",
"317 342 LINE",
"226 700 LINE",
"85 700 LINE",
"85 0 LINE",
"165 0 LINE",
"165 628 LINE",
"272 235 LINE",
"355 235 LINE",
"462 628 LINE",
"462 0 LINE"
);
}
);
width = 630;
}
);
unicode = 004D;
},
{
glyphname = N;
lastChange = "2016-08-31 13:14:00 +0000";
layers = (
{
hints = (
{
place = "{85, 81}";
},
{
place = "{381, 81}";
},
{
horizontal = 1;
place = "{0, 21}";
target = up;
type = BottomGhost;
},
{
horizontal = 1;
place = "{700, -20}";
target = down;
type = TopGhost;
}
);
layerId = UUID0;
paths = (
{
closed = 1;
nodes = (
"462 0 LINE",
"462 700 LINE",
"381 700 LINE",
"381 74 LINE",
"227 700 LINE",
"85 700 LINE",
"85 0 LINE",
"166 0 LINE",
"166 626 LINE",
"319 0 LINE"
);
}
);
width = 547;
}
);
unicode = 004E;
},
{
glyphname = Ntilde;
lastChange = "2016-08-31 13:14:00 +0000";
layers = (
{
hints = (
{
place = "{85, 81}";
},
{
place = "{381, 81}";
},
{
horizontal = 1;
place = "{0, 21}";
target = up;
type = BottomGhost;
},
{
horizontal = 1;
place = "{700, -20}";
target = down;
type = TopGhost;
},
{
horizontal = 1;
place = "{731, 69}";
},
{
horizontal = 1;
place = "{771, 69}";
}
);
layerId = UUID0;
paths = (
{
closed = 1;
nodes = (
"462 0 LINE",
"462 700 LINE",
"381 700 LINE",
"381 74 LINE",
"227 700 LINE",
"85 700 LINE",
"85 0 LINE",
"166 0 LINE",
"166 626 LINE",
"319 0 LINE"
);
},
{
closed = 1;
nodes = (
"137 735 LINE",
"137 735 OFFCURVE",
"200 771 OFFCURVE",
"214 771 CURVE SMOOTH",
"224 771 LINE SMOOTH",
"244 771 OFFCURVE",
"321 731 OFFCURVE",
"334 731 CURVE SMOOTH",
"349 731 LINE SMOOTH",
"366 731 OFFCURVE",
"417 764 OFFCURVE",
"417 764 CURVE",
"417 836 LINE",
"417 836 OFFCURVE",
"362 800 OFFCURVE",
"350 800 CURVE SMOOTH",
"340 800 LINE SMOOTH",
"317 800 OFFCURVE",
"253 840 OFFCURVE",
"229 840 CURVE SMOOTH",
"214 840 LINE SMOOTH",
"195 840 OFFCURVE",
"137 807 OFFCURVE",
"137 807 CURVE"
);
}
);
width = 547;
}
);
unicode = 00D1;
},
{
glyphname = O;
lastChange = "2016-08-31 13:14:00 +0000";
layers = (
{
hints = (
{
place = "{75, 87}";
},
{
place = "{382, 87}";
},
{
horizontal = 1;
place = "{0, 76}";
},
{
horizontal = 1;
place = "{624, 76}";
}
);
layerId = UUID0;
paths = (
{
closed = 1;
nodes = (
"469 170 LINE",
"469 530 LINE SMOOTH",
"469 644 OFFCURVE",
"404 700 OFFCURVE",
"289 700 CURVE SMOOTH",
"255 700 LINE SMOOTH",
"140 700 OFFCURVE",
"75 644 OFFCURVE",
"75 530 CURVE SMOOTH",
"75 170 LINE SMOOTH",
"75 56 OFFCURVE",
"140 0 OFFCURVE",
"255 0 CURVE SMOOTH",
"289 0 LINE SMOOTH",
"404 0 OFFCURVE",
"469 56 OFFCURVE",
"469 170 CURVE"
);
},
{
closed = 1;
nodes = (
"382 151 LINE SMOOTH",
"382 111 OFFCURVE",
"349 76 OFFCURVE",
"299 76 CURVE SMOOTH",
"245 76 LINE SMOOTH",
"195 76 OFFCURVE",
"162 111 OFFCURVE",
"162 151 CURVE SMOOTH",
"162 549 LINE SMOOTH",
"162 589 OFFCURVE",
"195 624 OFFCURVE",
"245 624 CURVE SMOOTH",
"299 624 LINE SMOOTH",
"349 624 OFFCURVE",
"382 589 OFFCURVE",
"382 549 CURVE SMOOTH"
);
}
);
width = 544;
}
);
unicode = 004F;
},
{
glyphname = Oacute;
lastChange = "2016-08-31 13:14:00 +0000";
layers = (
{
hints = (
{
place = "{75, 87}";
},
{
place = "{382, 87}";
},
{
horizontal = 1;
place = "{0, 76}";
},
{
horizontal = 1;
place = "{624, 76}";
},
{
horizontal = 1;
place = "{841, -20}";
target = down;
type = TopGhost;
}
);
layerId = UUID0;
paths = (
{
closed = 1;
nodes = (
"294 726 LINE",
"426 841 LINE",
"315 841 LINE",
"211 726 LINE"
);
},
{
closed = 1;
nodes = (
"469 170 LINE",
"469 530 LINE SMOOTH",
"469 644 OFFCURVE",
"404 700 OFFCURVE",
"289 700 CURVE SMOOTH",
"255 700 LINE SMOOTH",
"140 700 OFFCURVE",
"75 644 OFFCURVE",
"75 530 CURVE SMOOTH",
"75 170 LINE SMOOTH",
"75 56 OFFCURVE",
"140 0 OFFCURVE",
"255 0 CURVE SMOOTH",
"289 0 LINE SMOOTH",
"404 0 OFFCURVE",
"469 56 OFFCURVE",
"469 170 CURVE"
);
},
{
closed = 1;
nodes = (
"382 151 LINE SMOOTH",
"382 111 OFFCURVE",
"349 76 OFFCURVE",
"299 76 CURVE SMOOTH",
"245 76 LINE SMOOTH",
"195 76 OFFCURVE",
"162 111 OFFCURVE",
"162 151 CURVE SMOOTH",
"162 549 LINE SMOOTH",
"162 589 OFFCURVE",
"195 624 OFFCURVE",
"245 624 CURVE SMOOTH",
"299 624 LINE SMOOTH",
"349 624 OFFCURVE",
"382 589 OFFCURVE",
"382 549 CURVE SMOOTH"
);
}
);
width = 544;
}
);
unicode = 00D3;
},
{
glyphname = Ocircumflex;
lastChange = "2016-08-31 13:14:00 +0000";
layers = (
{
hints = (
{
place = "{75, 87}";
},
{
place = "{382, 87}";
},
{
horizontal = 1;
place = "{0, 76}";
},
{
horizontal = 1;
place = "{624, 76}";
},
{
horizontal = 1;
place = "{845, -20}";
target = down;
type = TopGhost;
}
);
layerId = UUID0;
paths = (
{
closed = 1;
nodes = (
"426 730 LINE",
"315 845 LINE",
"223 845 LINE",
"113 730 LINE",
"209 730 LINE",
"269 794 LINE",
"329 730 LINE"
);
},
{
closed = 1;
nodes = (
"469 170 LINE",
"469 530 LINE SMOOTH",
"469 644 OFFCURVE",
"404 700 OFFCURVE",
"289 700 CURVE SMOOTH",
"255 700 LINE SMOOTH",
"140 700 OFFCURVE",
"75 644 OFFCURVE",
"75 530 CURVE SMOOTH",
"75 170 LINE SMOOTH",
"75 56 OFFCURVE",
"140 0 OFFCURVE",
"255 0 CURVE SMOOTH",
"289 0 LINE SMOOTH",
"404 0 OFFCURVE",
"469 56 OFFCURVE",
"469 170 CURVE"
);
},
{
closed = 1;
nodes = (
"382 151 LINE SMOOTH",
"382 111 OFFCURVE",
"349 76 OFFCURVE",
"299 76 CURVE SMOOTH",
"245 76 LINE SMOOTH",
"195 76 OFFCURVE",
"162 111 OFFCURVE",
"162 151 CURVE SMOOTH",
"162 549 LINE SMOOTH",
"162 589 OFFCURVE",
"195 624 OFFCURVE",
"245 624 CURVE SMOOTH",
"299 624 LINE SMOOTH",
"349 624 OFFCURVE",
"382 589 OFFCURVE",
"382 549 CURVE SMOOTH"
);
}
);
width = 544;
}
);
unicode = 00D4;
},
{
glyphname = Odieresis;
lastChange = "2016-08-31 13:14:00 +0000";
layers = (
{
hints = (
{
place = "{75, 87}";
},
{
place = "{133, 85}";
},
{
place = "{333, 85}";
},
{
place = "{382, 87}";
},
{
horizontal = 1;
place = "{0, 76}";
},
{
horizontal = 1;
place = "{624, 76}";
},
{
horizontal = 1;
place = "{735, 80}";
}
);
layerId = UUID0;
paths = (
{
closed = 1;
nodes = (
"418 735 LINE",
"418 815 LINE",
"333 815 LINE",
"333 735 LINE"
);
},
{
closed = 1;
nodes = (
"218 735 LINE",
"218 815 LINE",
"133 815 LINE",
"133 735 LINE"
);
},
{
closed = 1;
nodes = (
"469 170 LINE",
"469 530 LINE SMOOTH",
"469 644 OFFCURVE",
"404 700 OFFCURVE",
"289 700 CURVE SMOOTH",
"255 700 LINE SMOOTH",
"140 700 OFFCURVE",
"75 644 OFFCURVE",
"75 530 CURVE SMOOTH",
"75 170 LINE SMOOTH",
"75 56 OFFCURVE",
"140 0 OFFCURVE",
"255 0 CURVE SMOOTH",
"289 0 LINE SMOOTH",
"404 0 OFFCURVE",
"469 56 OFFCURVE",
"469 170 CURVE"
);
},
{
closed = 1;
nodes = (
"382 151 LINE SMOOTH",
"382 111 OFFCURVE",
"349 76 OFFCURVE",
"299 76 CURVE SMOOTH",
"245 76 LINE SMOOTH",
"195 76 OFFCURVE",
"162 111 OFFCURVE",
"162 151 CURVE SMOOTH",
"162 549 LINE SMOOTH",
"162 589 OFFCURVE",
"195 624 OFFCURVE",
"245 624 CURVE SMOOTH",
"299 624 LINE SMOOTH",
"349 624 OFFCURVE",
"382 589 OFFCURVE",
"382 549 CURVE SMOOTH"
);
}
);
width = 544;
}
);
unicode = 00D6;
},
{
glyphname = Ograve;
lastChange = "2016-08-31 13:14:00 +0000";
layers = (
{
hints = (
{
place = "{75, 87}";
},
{
place = "{382, 87}";
},
{
horizontal = 1;
place = "{0, 76}";
},
{
horizontal = 1;
place = "{624, 76}";
},
{
horizontal = 1;
place = "{841, -20}";
target = down;
type = TopGhost;
}
);
layerId = UUID0;
paths = (
{
closed = 1;
nodes = (
"351 726 LINE",
"247 841 LINE",
"136 841 LINE",
"268 726 LINE"
);
},
{
closed = 1;
nodes = (
"469 170 LINE",
"469 530 LINE SMOOTH",
"469 644 OFFCURVE",
"404 700 OFFCURVE",
"289 700 CURVE SMOOTH",
"255 700 LINE SMOOTH",
"140 700 OFFCURVE",
"75 644 OFFCURVE",
"75 530 CURVE SMOOTH",
"75 170 LINE SMOOTH",
"75 56 OFFCURVE",
"140 0 OFFCURVE",
"255 0 CURVE SMOOTH",
"289 0 LINE SMOOTH",
"404 0 OFFCURVE",
"469 56 OFFCURVE",
"469 170 CURVE"
);
},
{
closed = 1;
nodes = (
"382 151 LINE SMOOTH",
"382 111 OFFCURVE",
"349 76 OFFCURVE",
"299 76 CURVE SMOOTH",
"245 76 LINE SMOOTH",
"195 76 OFFCURVE",
"162 111 OFFCURVE",
"162 151 CURVE SMOOTH",
"162 549 LINE SMOOTH",
"162 589 OFFCURVE",
"195 624 OFFCURVE",
"245 624 CURVE SMOOTH",
"299 624 LINE SMOOTH",
"349 624 OFFCURVE",
"382 589 OFFCURVE",
"382 549 CURVE SMOOTH"
);
}
);
width = 544;
}
);
unicode = 00D2;
},
{
glyphname = Oslash;
lastChange = "2016-08-31 13:14:00 +0000";
layers = (
{
hints = (
{
place = "{75, 87}";
},
{
place = "{382, 87}";
},
{
horizontal = 1;
place = "{-91, 21}";
target = up;
type = BottomGhost;
},
{
horizontal = 1;
place = "{0, 76}";
},
{
horizontal = 1;
place = "{624, 76}";
},
{
horizontal = 1;
place = "{791, -20}";
target = down;
type = TopGhost;
}
);
layerId = UUID0;
paths = (
{
closed = 1;
nodes = (
"469 170 LINE",
"469 530 LINE SMOOTH",
"469 599 OFFCURVE",
"445 647 OFFCURVE",
"400 674 CURVE",
"433 791 LINE",
"357 791 LINE",
"331 697 LINE",
"318 699 OFFCURVE",
"304 700 OFFCURVE",
"289 700 CURVE SMOOTH",
"255 700 LINE SMOOTH",
"140 700 OFFCURVE",
"75 644 OFFCURVE",
"75 530 CURVE SMOOTH",
"75 170 LINE SMOOTH",
"75 100 OFFCURVE",
"99 51 OFFCURVE",
"145 25 CURVE",
"113 -91 LINE",
"189 -91 LINE",
"215 2 LINE",
"227 1 OFFCURVE",
"241 0 OFFCURVE",
"255 0 CURVE SMOOTH",
"289 0 LINE SMOOTH",
"404 0 OFFCURVE",
"469 56 OFFCURVE",
"469 170 CURVE"
);
},
{
closed = 1;
nodes = (
"162 151 LINE",
"162 549 LINE SMOOTH",
"162 589 OFFCURVE",
"195 624 OFFCURVE",
"245 624 CURVE SMOOTH",
"299 624 LINE SMOOTH",
"303 624 OFFCURVE",
"307 624 OFFCURVE",
"310 623 CURVE",
"170 117 LINE",
"165 127 OFFCURVE",
"162 139 OFFCURVE",
"162 151 CURVE"
);
},
{
closed = 1;
nodes = (
"382 151 LINE SMOOTH",
"382 111 OFFCURVE",
"349 76 OFFCURVE",
"299 76 CURVE SMOOTH",
"235 76 LINE",
"375 580 LINE",
"379 570 OFFCURVE",
"382 560 OFFCURVE",
"382 549 CURVE SMOOTH"
);
}
);
width = 544;
}
);
unicode = 00D8;
},
{
glyphname = Otilde;
lastChange = "2016-08-31 13:14:00 +0000";
layers = (
{
hints = (
{
place = "{75, 87}";
},
{
place = "{382, 87}";
},
{
horizontal = 1;
place = "{0, 76}";
},
{
horizontal = 1;
place = "{624, 76}";
},
{
horizontal = 1;
place = "{731, 69}";
},
{
horizontal = 1;
place = "{771, 69}";
}
);
layerId = UUID0;
paths = (
{
closed = 1;
nodes = (
"469 170 LINE",
"469 530 LINE SMOOTH",
"469 644 OFFCURVE",
"404 700 OFFCURVE",
"289 700 CURVE SMOOTH",
"255 700 LINE SMOOTH",
"140 700 OFFCURVE",
"75 644 OFFCURVE",
"75 530 CURVE SMOOTH",
"75 170 LINE SMOOTH",
"75 56 OFFCURVE",
"140 0 OFFCURVE",
"255 0 CURVE SMOOTH",
"289 0 LINE SMOOTH",
"404 0 OFFCURVE",
"469 56 OFFCURVE",
"469 170 CURVE"
);
},
{
closed = 1;
nodes = (
"382 151 LINE SMOOTH",
"382 111 OFFCURVE",
"349 76 OFFCURVE",
"299 76 CURVE SMOOTH",
"245 76 LINE SMOOTH",
"195 76 OFFCURVE",
"162 111 OFFCURVE",
"162 151 CURVE SMOOTH",
"162 549 LINE SMOOTH",
"162 589 OFFCURVE",
"195 624 OFFCURVE",
"245 624 CURVE SMOOTH",
"299 624 LINE SMOOTH",
"349 624 OFFCURVE",
"382 589 OFFCURVE",
"382 549 CURVE SMOOTH"
);
},
{
closed = 1;
nodes = (
"133 735 LINE",
"133 735 OFFCURVE",
"196 771 OFFCURVE",
"210 771 CURVE SMOOTH",
"220 771 LINE SMOOTH",
"240 771 OFFCURVE",
"317 731 OFFCURVE",
"330 731 CURVE SMOOTH",
"345 731 LINE SMOOTH",
"362 731 OFFCURVE",
"413 764 OFFCURVE",
"413 764 CURVE",
"413 836 LINE",
"413 836 OFFCURVE",
"358 800 OFFCURVE",
"346 800 CURVE SMOOTH",
"336 800 LINE SMOOTH",
"313 800 OFFCURVE",
"249 840 OFFCURVE",
"225 840 CURVE SMOOTH",
"210 840 LINE SMOOTH",
"191 840 OFFCURVE",
"133 807 OFFCURVE",
"133 807 CURVE"
);
}
);
width = 544;
}
);
unicode = 00D5;
},
{
glyphname = OE;
lastChange = "2016-08-31 13:14:00 +0000";
layers = (
{
hints = (
{
place = "{75, 87}";
},
{
place = "{382, 87}";
},
{
horizontal = 1;
place = "{0, 73}";
},
{
horizontal = 1;
place = "{325, 73}";
},
{
horizontal = 1;
place = "{627, 73}";
}
);
layerId = UUID0;
paths = (
{
closed = 1;
nodes = (
"681 0 LINE",
"681 73 LINE",
"445 73 LINE",
"459 98 OFFCURVE",
"469 131 OFFCURVE",
"469 170 CURVE SMOOTH",
"469 325 LINE",
"666 325 LINE",
"666 398 LINE",
"469 398 LINE",
"469 530 LINE SMOOTH",
"469 569 OFFCURVE",
"459 601 OFFCURVE",
"445 627 CURVE",
"681 627 LINE",
"681 700 LINE",
"255 700 LINE SMOOTH",
"140 700 OFFCURVE",
"75 644 OFFCURVE",
"75 530 CURVE SMOOTH",
"75 170 LINE SMOOTH",
"75 56 OFFCURVE",
"140 0 OFFCURVE",
"255 0 CURVE SMOOTH"
);
},
{
closed = 1;
nodes = (
"382 151 LINE SMOOTH",
"382 111 OFFCURVE",
"349 76 OFFCURVE",
"299 76 CURVE SMOOTH",
"245 76 LINE SMOOTH",
"195 76 OFFCURVE",
"162 111 OFFCURVE",
"162 151 CURVE SMOOTH",
"162 549 LINE SMOOTH",
"162 589 OFFCURVE",
"195 624 OFFCURVE",
"245 624 CURVE SMOOTH",
"299 624 LINE SMOOTH",
"349 624 OFFCURVE",
"382 589 OFFCURVE",
"382 549 CURVE SMOOTH"
);
}
);
width = 741;
}
);
unicode = 0152;
},
{
glyphname = P;
lastChange = "2016-08-31 13:14:00 +0000";
layers = (
{
hints = (
{
place = "{85, 87}";
},
{
place = "{349, 87}";
},
{
horizontal = 1;
place = "{0, 21}";
target = up;
type = BottomGhost;
},
{
horizontal = 1;
place = "{272, 75}";
},
{
horizontal = 1;
place = "{625, 75}";
}
);
layerId = UUID0;
paths = (
{
closed = 1;
nodes = (
"436 430 LINE",
"436 544 LINE SMOOTH",
"436 654 OFFCURVE",
"374 700 OFFCURVE",
"264 700 CURVE SMOOTH",
"85 700 LINE",
"85 0 LINE",
"172 0 LINE",
"172 272 LINE",
"266 272 LINE SMOOTH",
"376 272 OFFCURVE",
"436 320 OFFCURVE",
"436 430 CURVE"
);
},
{
closed = 1;
nodes = (
"349 420 LINE SMOOTH",
"349 369 OFFCURVE",
"327 347 OFFCURVE",
"276 347 CURVE SMOOTH",
"172 347 LINE",
"172 625 LINE",
"276 625 LINE SMOOTH",
"326 625 OFFCURVE",
"349 604 OFFCURVE",
"349 553 CURVE SMOOTH"
);
}
);
width = 491;
}
);
unicode = 0050;
},
{
glyphname = Thorn;
lastChange = "2016-08-31 13:14:00 +0000";
layers = (
{
hints = (
{
place = "{85, 87}";
},
{
place = "{349, 87}";
},
{
horizontal = 1;
place = "{0, 21}";
target = up;
type = BottomGhost;
},
{
horizontal = 1;
place = "{142, 75}";
},
{
horizontal = 1;
place = "{495, 75}";
},
{
horizontal = 1;
place = "{700, -20}";
target = down;
type = TopGhost;
}
);
layerId = UUID0;
paths = (
{
closed = 1;
nodes = (
"436 300 LINE",
"436 414 LINE SMOOTH",
"436 524 OFFCURVE",
"374 570 OFFCURVE",
"264 570 CURVE SMOOTH",
"172 570 LINE",
"172 700 LINE",
"85 700 LINE",
"85 0 LINE",
"172 0 LINE",
"172 142 LINE",
"266 142 LINE SMOOTH",
"376 142 OFFCURVE",
"436 190 OFFCURVE",
"436 300 CURVE"
);
},
{
closed = 1;
nodes = (
"349 290 LINE SMOOTH",
"349 239 OFFCURVE",
"327 217 OFFCURVE",
"276 217 CURVE SMOOTH",
"172 217 LINE",
"172 495 LINE",
"276 495 LINE SMOOTH",
"326 495 OFFCURVE",
"349 474 OFFCURVE",
"349 423 CURVE SMOOTH"
);
}
);
width = 511;
}
);
unicode = 00DE;
},
{
glyphname = Q;
lastChange = "2016-08-31 13:14:00 +0000";
layers = (
{
hints = (
{
place = "{75, 87}";
},
{
place = "{382, 87}";
},
{
horizontal = 1;
place = "{-59, 21}";
target = up;
type = BottomGhost;
},
{
horizontal = 1;
place = "{0, 76}";
},
{
horizontal = 1;
place = "{624, 76}";
}
);
layerId = UUID0;
paths = (
{
closed = 1;
nodes = (
"520 -2 LINE",
"445 73 LINE",
"461 98 OFFCURVE",
"469 131 OFFCURVE",
"469 170 CURVE SMOOTH",
"469 530 LINE SMOOTH",
"469 644 OFFCURVE",
"404 700 OFFCURVE",
"289 700 CURVE SMOOTH",
"255 700 LINE SMOOTH",
"140 700 OFFCURVE",
"75 644 OFFCURVE",
"75 530 CURVE SMOOTH",
"75 170 LINE SMOOTH",
"75 56 OFFCURVE",
"140 0 OFFCURVE",
"255 0 CURVE SMOOTH",
"289 0 LINE SMOOTH",
"326 0 OFFCURVE",
"359 6 OFFCURVE",
"386 19 CURVE",
"463 -59 LINE"
);
},
{
closed = 1;
nodes = (
"382 151 LINE SMOOTH",
"382 102 OFFCURVE",
"349 76 OFFCURVE",
"299 76 CURVE SMOOTH",
"245 76 LINE SMOOTH",
"195 76 OFFCURVE",
"162 111 OFFCURVE",
"162 151 CURVE SMOOTH",
"162 549 LINE SMOOTH",
"162 589 OFFCURVE",
"195 624 OFFCURVE",
"245 624 CURVE SMOOTH",
"299 624 LINE SMOOTH",
"349 624 OFFCURVE",
"382 589 OFFCURVE",
"382 549 CURVE SMOOTH"
);
}
);
width = 544;
}
);
unicode = 0051;
},
{
glyphname = R;
lastChange = "2016-08-31 13:14:00 +0000";
layers = (
{
hints = (
{
place = "{85, 87}";
},
{
place = "{349, 87}";
},
{
horizontal = 1;
place = "{0, 21}";
target = up;
type = BottomGhost;
},
{
horizontal = 1;
place = "{290, 75}";
},
{
horizontal = 1;
place = "{625, 75}";
}
);
layerId = UUID0;
paths = (
{
closed = 1;
nodes = (
"485 0 LINE",
"346 307 LINE",
"403 325 OFFCURVE",
"436 369 OFFCURVE",
"436 448 CURVE SMOOTH",
"436 544 LINE SMOOTH",
"436 654 OFFCURVE",
"374 700 OFFCURVE",
"264 700 CURVE SMOOTH",
"85 700 LINE",
"85 0 LINE",
"172 0 LINE",
"172 290 LINE",
"261 290 LINE",
"390 0 LINE"
);
},
{
closed = 1;
nodes = (
"349 438 LINE SMOOTH",
"349 387 OFFCURVE",
"327 365 OFFCURVE",
"276 365 CURVE SMOOTH",
"172 365 LINE",
"172 625 LINE",
"276 625 LINE SMOOTH",
"326 625 OFFCURVE",
"349 604 OFFCURVE",
"349 553 CURVE SMOOTH"
);
}
);
width = 520;
}
);
unicode = 0052;
},
{
glyphname = S;
lastChange = "2016-08-31 13:14:00 +0000";
layers = (
{
hints = (
{
place = "{55, 87}";
},
{
place = "{297, 87}";
},
{
horizontal = 1;
place = "{0, 76}";
},
{
horizontal = 1;
place = "{322, 79}";
},
{
horizontal = 1;
place = "{624, 76}";
}
);
layerId = UUID0;
paths = (
{
closed = 1;
nodes = (
"384 170 LINE",
"384 236 LINE SMOOTH",
"384 350 OFFCURVE",
"326 401 OFFCURVE",
"234 401 CURVE SMOOTH",
"214 401 LINE SMOOTH",
"170 401 OFFCURVE",
"142 433 OFFCURVE",
"142 473 CURVE SMOOTH",
"142 549 LINE SMOOTH",
"142 589 OFFCURVE",
"175 624 OFFCURVE",
"225 624 CURVE SMOOTH",
"368 624 LINE",
"368 700 LINE",
"235 700 LINE SMOOTH",
"120 700 OFFCURVE",
"55 644 OFFCURVE",
"55 530 CURVE SMOOTH",
"55 492 LINE SMOOTH",
"55 378 OFFCURVE",
"119 322 OFFCURVE",
"215 322 CURVE SMOOTH",
"235 322 LINE SMOOTH",
"278 322 OFFCURVE",
"297 293 OFFCURVE",
"297 255 CURVE SMOOTH",
"297 151 LINE SMOOTH",
"297 111 OFFCURVE",
"264 76 OFFCURVE",
"214 76 CURVE SMOOTH",
"72 76 LINE",
"72 0 LINE",
"204 0 LINE SMOOTH",
"319 0 OFFCURVE",
"384 56 OFFCURVE",
"384 170 CURVE"
);
}
);
width = 439;
}
);
unicode = 0053;
},
{
glyphname = Scaron;
lastChange = "2016-08-31 13:14:00 +0000";
layers = (
{
hints = (
{
place = "{55, 87}";
},
{
place = "{297, 87}";
},
{
horizontal = 1;
place = "{0, 76}";
},
{
horizontal = 1;
place = "{322, 79}";
},
{
horizontal = 1;
place = "{624, 76}";
},
{
horizontal = 1;
place = "{845, -20}";
target = down;
type = TopGhost;
}
);
layerId = UUID0;
paths = (
{
closed = 1;
nodes = (
"84 845 LINE",
"197 730 LINE",
"285 730 LINE",
"397 845 LINE",
"301 845 LINE",
"241 778 LINE",
"181 845 LINE"
);
},
{
closed = 1;
nodes = (
"384 170 LINE",
"384 236 LINE SMOOTH",
"384 350 OFFCURVE",
"326 401 OFFCURVE",
"234 401 CURVE SMOOTH",
"214 401 LINE SMOOTH",
"170 401 OFFCURVE",
"142 433 OFFCURVE",
"142 473 CURVE SMOOTH",
"142 549 LINE SMOOTH",
"142 589 OFFCURVE",
"175 624 OFFCURVE",
"225 624 CURVE SMOOTH",
"368 624 LINE",
"368 700 LINE",
"235 700 LINE SMOOTH",
"120 700 OFFCURVE",
"55 644 OFFCURVE",
"55 530 CURVE SMOOTH",
"55 492 LINE SMOOTH",
"55 378 OFFCURVE",
"119 322 OFFCURVE",
"215 322 CURVE SMOOTH",
"235 322 LINE SMOOTH",
"278 322 OFFCURVE",
"297 293 OFFCURVE",
"297 255 CURVE SMOOTH",
"297 151 LINE SMOOTH",
"297 111 OFFCURVE",
"264 76 OFFCURVE",
"214 76 CURVE SMOOTH",
"72 76 LINE",
"72 0 LINE",
"204 0 LINE SMOOTH",
"319 0 OFFCURVE",
"384 56 OFFCURVE",
"384 170 CURVE"
);
}
);
width = 439;
}
);
unicode = 0160;
},
{
glyphname = T;
lastChange = "2016-08-31 13:14:00 +0000";
layers = (
{
hints = (
{
place = "{169, 87}";
},
{
horizontal = 1;
place = "{0, 21}";
target = up;
type = BottomGhost;
},
{
horizontal = 1;
place = "{624, 76}";
}
);
layerId = UUID0;
paths = (
{
closed = 1;
nodes = (
"410 624 LINE",
"410 700 LINE",
"15 700 LINE",
"15 624 LINE",
"169 624 LINE",
"169 0 LINE",
"256 0 LINE",
"256 624 LINE"
);
}
);
width = 425;
}
);
unicode = 0054;
},
{
glyphname = U;
lastChange = "2016-08-31 13:14:00 +0000";
layers = (
{
hints = (
{
place = "{80, 87}";
},
{
place = "{368, 87}";
},
{
horizontal = 1;
place = "{0, 76}";
},
{
horizontal = 1;
place = "{700, -20}";
target = down;
type = TopGhost;
}
);
layerId = UUID0;
paths = (
{
closed = 1;
nodes = (
"455 170 LINE",
"455 700 LINE",
"368 700 LINE",
"368 151 LINE SMOOTH",
"368 111 OFFCURVE",
"335 76 OFFCURVE",
"285 76 CURVE SMOOTH",
"250 76 LINE SMOOTH",
"200 76 OFFCURVE",
"167 111 OFFCURVE",
"167 151 CURVE SMOOTH",
"167 700 LINE",
"80 700 LINE",
"80 170 LINE SMOOTH",
"80 56 OFFCURVE",
"145 0 OFFCURVE",
"260 0 CURVE SMOOTH",
"275 0 LINE SMOOTH",
"390 0 OFFCURVE",
"455 56 OFFCURVE",
"455 170 CURVE"
);
}
);
width = 535;
}
);
unicode = 0055;
},
{
glyphname = Uacute;
lastChange = "2016-08-31 13:14:00 +0000";
layers = (
{
hints = (
{
place = "{75, 87}";
},
{
place = "{363, 87}";
},
{
horizontal = 1;
place = "{0, 76}";
},
{
horizontal = 1;
place = "{700, -20}";
target = down;
type = TopGhost;
},
{
horizontal = 1;
place = "{841, -20}";
target = down;
type = TopGhost;
}
);
layerId = UUID0;
paths = (
{
closed = 1;
nodes = (
"289 726 LINE",
"421 841 LINE",
"310 841 LINE",
"206 726 LINE"
);
},
{
closed = 1;
nodes = (
"450 170 LINE",
"450 700 LINE",
"363 700 LINE",
"363 151 LINE SMOOTH",
"363 111 OFFCURVE",
"330 76 OFFCURVE",
"280 76 CURVE SMOOTH",
"245 76 LINE SMOOTH",
"195 76 OFFCURVE",
"162 111 OFFCURVE",
"162 151 CURVE SMOOTH",
"162 700 LINE",
"75 700 LINE",
"75 170 LINE SMOOTH",
"75 56 OFFCURVE",
"140 0 OFFCURVE",
"255 0 CURVE SMOOTH",
"270 0 LINE SMOOTH",
"385 0 OFFCURVE",
"450 56 OFFCURVE",
"450 170 CURVE"
);
}
);
width = 535;
}
);
unicode = 00DA;
},
{
glyphname = Ucircumflex;
lastChange = "2016-08-31 13:14:00 +0000";
layers = (
{
hints = (
{
place = "{75, 87}";
},
{
place = "{363, 87}";
},
{
horizontal = 1;
place = "{0, 76}";
},
{
horizontal = 1;
place = "{700, -20}";
target = down;
type = TopGhost;
},
{
horizontal = 1;
place = "{845, -20}";
target = down;
type = TopGhost;
}
);
layerId = UUID0;
paths = (
{
closed = 1;
nodes = (
"418 730 LINE",
"307 845 LINE",
"215 845 LINE",
"105 730 LINE",
"201 730 LINE",
"261 794 LINE",
"321 730 LINE"
);
},
{
closed = 1;
nodes = (
"450 170 LINE",
"450 700 LINE",
"363 700 LINE",
"363 151 LINE SMOOTH",
"363 111 OFFCURVE",
"330 76 OFFCURVE",
"280 76 CURVE SMOOTH",
"245 76 LINE SMOOTH",
"195 76 OFFCURVE",
"162 111 OFFCURVE",
"162 151 CURVE SMOOTH",
"162 700 LINE",
"75 700 LINE",
"75 170 LINE SMOOTH",
"75 56 OFFCURVE",
"140 0 OFFCURVE",
"255 0 CURVE SMOOTH",
"270 0 LINE SMOOTH",
"385 0 OFFCURVE",
"450 56 OFFCURVE",
"450 170 CURVE"
);
}
);
width = 535;
}
);
unicode = 00DB;
},
{
glyphname = Udieresis;
lastChange = "2016-08-31 13:14:00 +0000";
layers = (
{
hints = (
{
place = "{75, 87}";
},
{
place = "{123, 85}";
},
{
place = "{323, 85}";
},
{
place = "{363, 87}";
},
{
horizontal = 1;
place = "{0, 76}";
},
{
horizontal = 1;
place = "{700, -20}";
target = down;
type = TopGhost;
},
{
horizontal = 1;
place = "{735, 80}";
}
);
layerId = UUID0;
paths = (
{
closed = 1;
nodes = (
"408 735 LINE",
"408 815 LINE",
"323 815 LINE",
"323 735 LINE"
);
},
{
closed = 1;
nodes = (
"208 735 LINE",
"208 815 LINE",
"123 815 LINE",
"123 735 LINE"
);
},
{
closed = 1;
nodes = (
"450 170 LINE",
"450 700 LINE",
"363 700 LINE",
"363 151 LINE SMOOTH",
"363 111 OFFCURVE",
"330 76 OFFCURVE",
"280 76 CURVE SMOOTH",
"245 76 LINE SMOOTH",
"195 76 OFFCURVE",
"162 111 OFFCURVE",
"162 151 CURVE SMOOTH",
"162 700 LINE",
"75 700 LINE",
"75 170 LINE SMOOTH",
"75 56 OFFCURVE",
"140 0 OFFCURVE",
"255 0 CURVE SMOOTH",
"270 0 LINE SMOOTH",
"385 0 OFFCURVE",
"450 56 OFFCURVE",
"450 170 CURVE"
);
}
);
width = 535;
}
);
unicode = 00DC;
},
{
glyphname = Ugrave;
lastChange = "2016-08-31 13:14:00 +0000";
layers = (
{
hints = (
{
place = "{75, 87}";
},
{
place = "{363, 87}";
},
{
horizontal = 1;
place = "{0, 76}";
},
{
horizontal = 1;
place = "{700, -20}";
target = down;
type = TopGhost;
},
{
horizontal = 1;
place = "{841, -20}";
target = down;
type = TopGhost;
}
);
layerId = UUID0;
paths = (
{
closed = 1;
nodes = (
"336 726 LINE",
"232 841 LINE",
"121 841 LINE",
"253 726 LINE"
);
},
{
closed = 1;
nodes = (
"450 170 LINE",
"450 700 LINE",
"363 700 LINE",
"363 151 LINE SMOOTH",
"363 111 OFFCURVE",
"330 76 OFFCURVE",
"280 76 CURVE SMOOTH",
"245 76 LINE SMOOTH",
"195 76 OFFCURVE",
"162 111 OFFCURVE",
"162 151 CURVE SMOOTH",
"162 700 LINE",
"75 700 LINE",
"75 170 LINE SMOOTH",
"75 56 OFFCURVE",
"140 0 OFFCURVE",
"255 0 CURVE SMOOTH",
"270 0 LINE SMOOTH",
"385 0 OFFCURVE",
"450 56 OFFCURVE",
"450 170 CURVE"
);
}
);
width = 535;
}
);
unicode = 00D9;
},
{
glyphname = V;
lastChange = "2016-08-31 13:14:00 +0000";
layers = (
{
hints = (
{
horizontal = 1;
place = "{0, 21}";
target = up;
type = BottomGhost;
},
{
horizontal = 1;
place = "{700, -20}";
target = down;
type = TopGhost;
}
);
layerId = UUID0;
paths = (
{
closed = 1;
nodes = (
"438 700 LINE",
"352 700 LINE",
"233 88 LINE",
"123 700 LINE",
"35 700 LINE",
"172 0 LINE",
"291 0 LINE"
);
}
);
width = 473;
}
);
unicode = 0056;
},
{
glyphname = W;
lastChange = "2016-08-31 13:14:00 +0000";
layers = (
{
hints = (
{
place = "{82, 75}";
},
{
place = "{450, 72}";
},
{
horizontal = 1;
place = "{0, 21}";
target = up;
type = BottomGhost;
},
{
horizontal = 1;
place = "{700, -20}";
target = down;
type = TopGhost;
}
);
layerId = UUID0;
paths = (
{
closed = 1;
nodes = (
"539 700 LINE",
"466 700 LINE",
"435 55 LINE",
"344 405 LINE",
"262 405 LINE",
"172 55 LINE",
"142 700 LINE",
"65 700 LINE",
"99 0 LINE",
"229 0 LINE",
"302 304 LINE",
"369 0 LINE",
"505 0 LINE"
);
}
);
width = 589;
}
);
unicode = 0057;
},
{
glyphname = X;
lastChange = "2016-08-31 13:14:00 +0000";
layers = (
{
hints = (
{
horizontal = 1;
place = "{0, 21}";
target = up;
type = BottomGhost;
},
{
horizontal = 1;
place = "{700, -20}";
target = down;
type = TopGhost;
}
);
layerId = UUID0;
paths = (
{
closed = 1;
nodes = (
"461 0 LINE",
"293 363 LINE",
"451 700 LINE",
"358 700 LINE",
"250 459 LINE",
"145 700 LINE",
"50 700 LINE",
"205 362 LINE",
"35 0 LINE",
"129 0 LINE",
"249 268 LINE",
"363 0 LINE"
);
}
);
width = 496;
}
);
unicode = 0058;
},
{
glyphname = Y;
lastChange = "2016-08-31 13:14:00 +0000";
layers = (
{
hints = (
{
place = "{199, 90}";
},
{
horizontal = 1;
place = "{0, 21}";
target = up;
type = BottomGhost;
},
{
horizontal = 1;
place = "{700, -20}";
target = down;
type = TopGhost;
}
);
layerId = UUID0;
paths = (
{
closed = 1;
nodes = (
"471 700 LINE",
"380 700 LINE",
"248 409 LINE",
"116 700 LINE",
"20 700 LINE",
"199 325 LINE",
"199 0 LINE",
"289 0 LINE",
"289 325 LINE"
);
}
);
width = 491;
}
);
unicode = 0059;
},
{
glyphname = Yacute;
lastChange = "2016-08-31 13:14:00 +0000";
layers = (
{
hints = (
{
place = "{199, 90}";
},
{
horizontal = 1;
place = "{0, 21}";
target = up;
type = BottomGhost;
},
{
horizontal = 1;
place = "{700, -20}";
target = down;
type = TopGhost;
},
{
horizontal = 1;
place = "{841, -20}";
target = down;
type = TopGhost;
}
);
layerId = UUID0;
paths = (
{
closed = 1;
nodes = (
"269 726 LINE",
"401 841 LINE",
"290 841 LINE",
"186 726 LINE"
);
},
{
closed = 1;
nodes = (
"471 700 LINE",
"380 700 LINE",
"248 409 LINE",
"116 700 LINE",
"20 700 LINE",
"199 325 LINE",
"199 0 LINE",
"289 0 LINE",
"289 325 LINE"
);
}
);
width = 491;
}
);
unicode = 00DD;
},
{
glyphname = Ydieresis;
lastChange = "2016-08-31 13:14:00 +0000";
layers = (
{
hints = (
{
place = "{107, 85}";
},
{
place = "{199, 90}";
},
{
place = "{307, 85}";
},
{
horizontal = 1;
place = "{0, 21}";
target = up;
type = BottomGhost;
},
{
horizontal = 1;
place = "{700, -20}";
target = down;
type = TopGhost;
},
{
horizontal = 1;
place = "{735, 80}";
}
);
layerId = UUID0;
paths = (
{
closed = 1;
nodes = (
"471 700 LINE",
"380 700 LINE",
"248 409 LINE",
"116 700 LINE",
"20 700 LINE",
"199 325 LINE",
"199 0 LINE",
"289 0 LINE",
"289 325 LINE"
);
},
{
closed = 1;
nodes = (
"392 735 LINE",
"392 815 LINE",
"307 815 LINE",
"307 735 LINE"
);
},
{
closed = 1;
nodes = (
"192 735 LINE",
"192 815 LINE",
"107 815 LINE",
"107 735 LINE"
);
}
);
width = 491;
}
);
unicode = 0178;
},
{
glyphname = Z;
lastChange = "2016-08-31 13:14:00 +0000";
layers = (
{
hints = (
{
horizontal = 1;
place = "{0, 74}";
},
{
horizontal = 1;
place = "{626, 74}";
}
);
layerId = UUID0;
paths = (
{
closed = 1;
nodes = (
"391 612 LINE",
"391 700 LINE",
"68 700 LINE",
"68 626 LINE",
"303 626 LINE",
"45 88 LINE",
"45 0 LINE",
"381 0 LINE",
"381 74 LINE",
"134 74 LINE"
);
}
);
width = 436;
}
);
unicode = 005A;
},
{
glyphname = Zcaron;
lastChange = "2016-08-31 13:14:00 +0000";
layers = (
{
hints = (
{
horizontal = 1;
place = "{0, 74}";
},
{
horizontal = 1;
place = "{626, 74}";
},
{
horizontal = 1;
place = "{845, -20}";
target = down;
type = TopGhost;
}
);
layerId = UUID0;
paths = (
{
closed = 1;
nodes = (
"72 845 LINE",
"185 730 LINE",
"273 730 LINE",
"385 845 LINE",
"289 845 LINE",
"229 778 LINE",
"169 845 LINE"
);
},
{
closed = 1;
nodes = (
"391 612 LINE",
"391 700 LINE",
"68 700 LINE",
"68 626 LINE",
"303 626 LINE",
"45 88 LINE",
"45 0 LINE",
"381 0 LINE",
"381 74 LINE",
"134 74 LINE"
);
}
);
width = 436;
}
);
unicode = 017D;
},
{
glyphname = a;
lastChange = "2016-08-31 13:14:00 +0000";
layers = (
{
hints = (
{
place = "{45, 85}";
},
{
place = "{295, 85}";
},
{
horizontal = 1;
place = "{0, 75}";
},
{
horizontal = 1;
place = "{235, 75}";
},
{
horizontal = 1;
place = "{425, 75}";
}
);
layerId = UUID0;
paths = (
{
closed = 1;
nodes = (
"430 0 LINE",
"430 70 LINE",
"393 70 OFFCURVE",
"380 80 OFFCURVE",
"380 100 CURVE SMOOTH",
"380 340 LINE SMOOTH",
"380 454 OFFCURVE",
"325 500 OFFCURVE",
"210 500 CURVE SMOOTH",
"85 500 LINE",
"85 425 LINE",
"220 425 LINE SMOOTH",
"270 425 OFFCURVE",
"295 400 OFFCURVE",
"295 360 CURVE SMOOTH",
"295 310 LINE",
"191 310 LINE SMOOTH",
"91 310 OFFCURVE",
"45 255 OFFCURVE",
"45 155 CURVE SMOOTH",
"45 135 LINE SMOOTH",
"45 35 OFFCURVE",
"90 0 OFFCURVE",
"190 0 CURVE SMOOTH",
"259 0 LINE SMOOTH",
"285 0 OFFCURVE",
"306 12 OFFCURVE",
"320 30 CURVE",
"335 12 OFFCURVE",
"357 0 OFFCURVE",
"375 0 CURVE SMOOTH"
);
},
{
closed = 1;
nodes = (
"249 75 LINE",
"180 75 LINE SMOOTH",
"145 75 OFFCURVE",
"130 90 OFFCURVE",
"130 125 CURVE SMOOTH",
"130 175 LINE SMOOTH",
"130 210 OFFCURVE",
"155 235 OFFCURVE",
"190 235 CURVE SMOOTH",
"295 235 LINE",
"295 125 LINE SMOOTH",
"295 105 OFFCURVE",
"295 75 OFFCURVE",
"249 75 CURVE"
);
}
);
width = 470;
}
);
unicode = 0061;
},
{
glyphname = aacute;
lastChange = "2016-08-31 13:14:00 +0000";
layers = (
{
hints = (
{
place = "{45, 85}";
},
{
place = "{295, 85}";
},
{
horizontal = 1;
place = "{0, 75}";
},
{
horizontal = 1;
place = "{235, 75}";
},
{
horizontal = 1;
place = "{425, 75}";
},
{
horizontal = 1;
place = "{715, -20}";
target = down;
type = TopGhost;
}
);
layerId = UUID0;
paths = (
{
closed = 1;
nodes = (
"430 0 LINE",
"430 70 LINE",
"393 70 OFFCURVE",
"380 80 OFFCURVE",
"380 100 CURVE SMOOTH",
"380 340 LINE SMOOTH",
"380 454 OFFCURVE",
"325 500 OFFCURVE",
"210 500 CURVE SMOOTH",
"85 500 LINE",
"85 425 LINE",
"220 425 LINE SMOOTH",
"270 425 OFFCURVE",
"295 400 OFFCURVE",
"295 360 CURVE SMOOTH",
"295 310 LINE",
"191 310 LINE SMOOTH",
"91 310 OFFCURVE",
"45 255 OFFCURVE",
"45 155 CURVE SMOOTH",
"45 135 LINE SMOOTH",
"45 35 OFFCURVE",
"90 0 OFFCURVE",
"190 0 CURVE SMOOTH",
"259 0 LINE SMOOTH",
"285 0 OFFCURVE",
"306 12 OFFCURVE",
"320 30 CURVE",
"335 12 OFFCURVE",
"357 0 OFFCURVE",
"375 0 CURVE SMOOTH"
);
},
{
closed = 1;
nodes = (
"249 75 LINE",
"180 75 LINE SMOOTH",
"145 75 OFFCURVE",
"130 90 OFFCURVE",
"130 125 CURVE SMOOTH",
"130 175 LINE SMOOTH",
"130 210 OFFCURVE",
"155 235 OFFCURVE",
"190 235 CURVE SMOOTH",
"295 235 LINE",
"295 125 LINE SMOOTH",
"295 105 OFFCURVE",
"295 75 OFFCURVE",
"249 75 CURVE"
);
},
{
closed = 1;
nodes = (
"260 580 LINE",
"387 715 LINE",
"278 715 LINE",
"174 580 LINE"
);
}
);
width = 470;
}
);
unicode = 00E1;
},
{
glyphname = acircumflex;
lastChange = "2016-08-31 13:14:00 +0000";
layers = (
{
hints = (
{
place = "{45, 85}";
},
{
place = "{295, 85}";
},
{
horizontal = 1;
place = "{0, 75}";
},
{
horizontal = 1;
place = "{235, 75}";
},
{
horizontal = 1;
place = "{425, 75}";
},
{
horizontal = 1;
place = "{715, -20}";
target = down;
type = TopGhost;
}
);
layerId = UUID0;
paths = (
{
closed = 1;
nodes = (
"430 0 LINE",
"430 70 LINE",
"393 70 OFFCURVE",
"380 80 OFFCURVE",
"380 100 CURVE SMOOTH",
"380 340 LINE SMOOTH",
"380 454 OFFCURVE",
"325 500 OFFCURVE",
"210 500 CURVE SMOOTH",
"85 500 LINE",
"85 425 LINE",
"220 425 LINE SMOOTH",
"270 425 OFFCURVE",
"295 400 OFFCURVE",
"295 360 CURVE SMOOTH",
"295 310 LINE",
"191 310 LINE SMOOTH",
"91 310 OFFCURVE",
"45 255 OFFCURVE",
"45 155 CURVE SMOOTH",
"45 135 LINE SMOOTH",
"45 35 OFFCURVE",
"90 0 OFFCURVE",
"190 0 CURVE SMOOTH",
"259 0 LINE SMOOTH",
"285 0 OFFCURVE",
"306 12 OFFCURVE",
"320 30 CURVE",
"335 12 OFFCURVE",
"357 0 OFFCURVE",
"375 0 CURVE SMOOTH"
);
},
{
closed = 1;
nodes = (
"249 75 LINE",
"180 75 LINE SMOOTH",
"145 75 OFFCURVE",
"130 90 OFFCURVE",
"130 125 CURVE SMOOTH",
"130 175 LINE SMOOTH",
"130 210 OFFCURVE",
"155 235 OFFCURVE",
"190 235 CURVE SMOOTH",
"295 235 LINE",
"295 125 LINE SMOOTH",
"295 105 OFFCURVE",
"295 75 OFFCURVE",
"249 75 CURVE"
);
},
{
closed = 1;
nodes = (
"377 580 LINE",
"264 715 LINE",
"176 715 LINE",
"64 580 LINE",
"160 580 LINE",
"220 655 LINE",
"280 580 LINE"
);
}
);
width = 470;
}
);
unicode = 00E2;
},
{
glyphname = adieresis;
lastChange = "2016-08-31 13:14:00 +0000";
layers = (
{
hints = (
{
place = "{45, 85}";
},
{
place = "{84, 85}";
},
{
place = "{284, 85}";
},
{
place = "{295, 85}";
},
{
horizontal = 1;
place = "{0, 75}";
},
{
horizontal = 1;
place = "{235, 75}";
},
{
horizontal = 1;
place = "{425, 75}";
},
{
horizontal = 1;
place = "{595, 80}";
}
);
layerId = UUID0;
paths = (
{
closed = 1;
nodes = (
"430 0 LINE",
"430 70 LINE",
"393 70 OFFCURVE",
"380 80 OFFCURVE",
"380 100 CURVE SMOOTH",
"380 340 LINE SMOOTH",
"380 454 OFFCURVE",
"325 500 OFFCURVE",
"210 500 CURVE SMOOTH",
"85 500 LINE",
"85 425 LINE",
"220 425 LINE SMOOTH",
"270 425 OFFCURVE",
"295 400 OFFCURVE",
"295 360 CURVE SMOOTH",
"295 310 LINE",
"191 310 LINE SMOOTH",
"91 310 OFFCURVE",
"45 255 OFFCURVE",
"45 155 CURVE SMOOTH",
"45 135 LINE SMOOTH",
"45 35 OFFCURVE",
"90 0 OFFCURVE",
"190 0 CURVE SMOOTH",
"259 0 LINE SMOOTH",
"285 0 OFFCURVE",
"306 12 OFFCURVE",
"320 30 CURVE",
"335 12 OFFCURVE",
"357 0 OFFCURVE",
"375 0 CURVE SMOOTH"
);
},
{
closed = 1;
nodes = (
"249 75 LINE",
"180 75 LINE SMOOTH",
"145 75 OFFCURVE",
"130 90 OFFCURVE",
"130 125 CURVE SMOOTH",
"130 175 LINE SMOOTH",
"130 210 OFFCURVE",
"155 235 OFFCURVE",
"190 235 CURVE SMOOTH",
"295 235 LINE",
"295 125 LINE SMOOTH",
"295 105 OFFCURVE",
"295 75 OFFCURVE",
"249 75 CURVE"
);
},
{
closed = 1;
nodes = (
"369 595 LINE",
"369 675 LINE",
"284 675 LINE",
"284 595 LINE"
);
},
{
closed = 1;
nodes = (
"169 595 LINE",
"169 675 LINE",
"84 675 LINE",
"84 595 LINE"
);
}
);
width = 470;
}
);
unicode = 00E4;
},
{
glyphname = agrave;
lastChange = "2016-08-31 13:14:00 +0000";
layers = (
{
hints = (
{
place = "{45, 85}";
},
{
place = "{295, 85}";
},
{
horizontal = 1;
place = "{0, 75}";
},
{
horizontal = 1;
place = "{235, 75}";
},
{
horizontal = 1;
place = "{425, 75}";
},
{
horizontal = 1;
place = "{715, -20}";
target = down;
type = TopGhost;
}
);
layerId = UUID0;
paths = (
{
closed = 1;
nodes = (
"430 0 LINE",
"430 70 LINE",
"393 70 OFFCURVE",
"380 80 OFFCURVE",
"380 100 CURVE SMOOTH",
"380 340 LINE SMOOTH",
"380 454 OFFCURVE",
"325 500 OFFCURVE",
"210 500 CURVE SMOOTH",
"85 500 LINE",
"85 425 LINE",
"220 425 LINE SMOOTH",
"270 425 OFFCURVE",
"295 400 OFFCURVE",
"295 360 CURVE SMOOTH",
"295 310 LINE",
"191 310 LINE SMOOTH",
"91 310 OFFCURVE",
"45 255 OFFCURVE",
"45 155 CURVE SMOOTH",
"45 135 LINE SMOOTH",
"45 35 OFFCURVE",
"90 0 OFFCURVE",
"190 0 CURVE SMOOTH",
"259 0 LINE SMOOTH",
"285 0 OFFCURVE",
"306 12 OFFCURVE",
"320 30 CURVE",
"335 12 OFFCURVE",
"357 0 OFFCURVE",
"375 0 CURVE SMOOTH"
);
},
{
closed = 1;
nodes = (
"249 75 LINE",
"180 75 LINE SMOOTH",
"145 75 OFFCURVE",
"130 90 OFFCURVE",
"130 125 CURVE SMOOTH",
"130 175 LINE SMOOTH",
"130 210 OFFCURVE",
"155 235 OFFCURVE",
"190 235 CURVE SMOOTH",
"295 235 LINE",
"295 125 LINE SMOOTH",
"295 105 OFFCURVE",
"295 75 OFFCURVE",
"249 75 CURVE"
);
},
{
closed = 1;
nodes = (
"326 580 LINE",
"222 715 LINE",
"113 715 LINE",
"240 580 LINE"
);
}
);
width = 470;
}
);
unicode = 00E0;
},
{
glyphname = aring;
lastChange = "2016-08-31 13:14:00 +0000";
layers = (
{
hints = (
{
place = "{45, 85}";
},
{
place = "{121, 55}";
},
{
place = "{248, 57}";
},
{
place = "{295, 85}";
},
{
horizontal = 1;
place = "{0, 75}";
},
{
horizontal = 1;
place = "{235, 75}";
},
{
horizontal = 1;
place = "{425, 75}";
},
{
horizontal = 1;
place = "{548, 46}";
},
{
horizontal = 1;
place = "{701, 46}";
}
);
layerId = UUID0;
paths = (
{
closed = 1;
nodes = (
"305 633 LINE",
"305 662 LINE SMOOTH",
"305 720 OFFCURVE",
"266 747 OFFCURVE",
"216 747 CURVE SMOOTH",
"210 747 LINE SMOOTH",
"160 747 OFFCURVE",
"121 720 OFFCURVE",
"121 662 CURVE SMOOTH",
"121 633 LINE SMOOTH",
"121 576 OFFCURVE",
"160 548 OFFCURVE",
"210 548 CURVE SMOOTH",
"216 548 LINE SMOOTH",
"266 548 OFFCURVE",
"305 576 OFFCURVE",
"305 633 CURVE"
);
},
{
closed = 1;
nodes = (
"248 632 LINE SMOOTH",
"248 612 OFFCURVE",
"241 594 OFFCURVE",
"216 594 CURVE SMOOTH",
"210 594 LINE SMOOTH",
"185 594 OFFCURVE",
"176 612 OFFCURVE",
"176 632 CURVE SMOOTH",
"176 663 LINE SMOOTH",
"176 683 OFFCURVE",
"185 701 OFFCURVE",
"210 701 CURVE SMOOTH",
"216 701 LINE SMOOTH",
"241 701 OFFCURVE",
"248 683 OFFCURVE",
"248 663 CURVE SMOOTH"
);
},
{
closed = 1;
nodes = (
"430 0 LINE",
"430 70 LINE",
"393 70 OFFCURVE",
"380 80 OFFCURVE",
"380 100 CURVE SMOOTH",
"380 340 LINE SMOOTH",
"380 454 OFFCURVE",
"325 500 OFFCURVE",
"210 500 CURVE SMOOTH",
"85 500 LINE",
"85 425 LINE",
"220 425 LINE SMOOTH",
"270 425 OFFCURVE",
"295 400 OFFCURVE",
"295 360 CURVE SMOOTH",
"295 310 LINE",
"191 310 LINE SMOOTH",
"91 310 OFFCURVE",
"45 255 OFFCURVE",
"45 155 CURVE SMOOTH",
"45 135 LINE SMOOTH",
"45 35 OFFCURVE",
"90 0 OFFCURVE",
"190 0 CURVE SMOOTH",
"259 0 LINE SMOOTH",
"285 0 OFFCURVE",
"306 12 OFFCURVE",
"320 30 CURVE",
"335 12 OFFCURVE",
"357 0 OFFCURVE",
"375 0 CURVE SMOOTH"
);
},
{
closed = 1;
nodes = (
"249 75 LINE",
"180 75 LINE SMOOTH",
"145 75 OFFCURVE",
"130 90 OFFCURVE",
"130 125 CURVE SMOOTH",
"130 175 LINE SMOOTH",
"130 210 OFFCURVE",
"155 235 OFFCURVE",
"190 235 CURVE SMOOTH",
"295 235 LINE",
"295 125 LINE SMOOTH",
"295 105 OFFCURVE",
"295 75 OFFCURVE",
"249 75 CURVE"
);
}
);
width = 470;
}
);
unicode = 00E5;
},
{
glyphname = atilde;
lastChange = "2016-08-31 13:14:00 +0000";
layers = (
{
hints = (
{
place = "{45, 85}";
},
{
place = "{295, 85}";
},
{
horizontal = 1;
place = "{0, 75}";
},
{
horizontal = 1;
place = "{235, 75}";
},
{
horizontal = 1;
place = "{425, 75}";
},
{
horizontal = 1;
place = "{591, 69}";
},
{
horizontal = 1;
place = "{631, 69}";
}
);
layerId = UUID0;
paths = (
{
closed = 1;
nodes = (
"430 0 LINE",
"430 70 LINE",
"393 70 OFFCURVE",
"380 80 OFFCURVE",
"380 100 CURVE SMOOTH",
"380 340 LINE SMOOTH",
"380 454 OFFCURVE",
"325 500 OFFCURVE",
"210 500 CURVE SMOOTH",
"85 500 LINE",
"85 425 LINE",
"220 425 LINE SMOOTH",
"270 425 OFFCURVE",
"295 400 OFFCURVE",
"295 360 CURVE SMOOTH",
"295 310 LINE",
"191 310 LINE SMOOTH",
"91 310 OFFCURVE",
"45 255 OFFCURVE",
"45 155 CURVE SMOOTH",
"45 135 LINE SMOOTH",
"45 35 OFFCURVE",
"90 0 OFFCURVE",
"190 0 CURVE SMOOTH",
"259 0 LINE SMOOTH",
"285 0 OFFCURVE",
"306 12 OFFCURVE",
"320 30 CURVE",
"335 12 OFFCURVE",
"357 0 OFFCURVE",
"375 0 CURVE SMOOTH"
);
},
{
closed = 1;
nodes = (
"249 75 LINE",
"180 75 LINE SMOOTH",
"145 75 OFFCURVE",
"130 90 OFFCURVE",
"130 125 CURVE SMOOTH",
"130 175 LINE SMOOTH",
"130 210 OFFCURVE",
"155 235 OFFCURVE",
"190 235 CURVE SMOOTH",
"295 235 LINE",
"295 125 LINE SMOOTH",
"295 105 OFFCURVE",
"295 75 OFFCURVE",
"249 75 CURVE"
);
},
{
closed = 1;
nodes = (
"85 595 LINE",
"85 595 OFFCURVE",
"148 631 OFFCURVE",
"162 631 CURVE SMOOTH",
"172 631 LINE SMOOTH",
"192 631 OFFCURVE",
"269 591 OFFCURVE",
"282 591 CURVE SMOOTH",
"297 591 LINE SMOOTH",
"314 591 OFFCURVE",
"365 624 OFFCURVE",
"365 624 CURVE",
"365 696 LINE",
"365 696 OFFCURVE",
"310 660 OFFCURVE",
"298 660 CURVE SMOOTH",
"288 660 LINE SMOOTH",
"265 660 OFFCURVE",
"201 700 OFFCURVE",
"177 700 CURVE SMOOTH",
"162 700 LINE SMOOTH",
"143 700 OFFCURVE",
"85 667 OFFCURVE",
"85 667 CURVE"
);
}
);
width = 470;
}
);
unicode = 00E3;
},
{
glyphname = ae;
lastChange = "2016-08-31 13:14:00 +0000";
layers = (
{
hints = (
{
place = "{45, 85}";
},
{
place = "{295, 85}";
},
{
place = "{543, 83}";
},
{
horizontal = 1;
place = "{0, 75}";
},
{
horizontal = 1;
place = "{225, 75}";
},
{
horizontal = 1;
place = "{425, 75}";
}
);
layerId = UUID0;
paths = (
{
closed = 1;
nodes = (
"594 0 LINE",
"594 75 LINE",
"455 75 LINE SMOOTH",
"407 75 OFFCURVE",
"382 97 OFFCURVE",
"380 134 CURVE",
"380 225 LINE",
"626 225 LINE",
"626 345 LINE SMOOTH",
"626 445 OFFCURVE",
"578 500 OFFCURVE",
"482 500 CURVE SMOOTH",
"455 500 LINE SMOOTH",
"391 500 OFFCURVE",
"360 487 OFFCURVE",
"335 463 CURVE",
"307 487 OFFCURVE",
"273 500 OFFCURVE",
"210 500 CURVE SMOOTH",
"85 500 LINE",
"85 425 LINE",
"220 425 LINE SMOOTH",
"270 425 OFFCURVE",
"295 400 OFFCURVE",
"295 360 CURVE SMOOTH",
"295 300 LINE",
"191 300 LINE SMOOTH",
"91 300 OFFCURVE",
"45 245 OFFCURVE",
"45 145 CURVE SMOOTH",
"45 135 LINE SMOOTH",
"45 35 OFFCURVE",
"90 0 OFFCURVE",
"190 0 CURVE SMOOTH",
"259 0 LINE SMOOTH",
"294 0 OFFCURVE",
"325 23 OFFCURVE",
"338 47 CURVE",
"363 14 OFFCURVE",
"402 0 OFFCURVE",
"465 0 CURVE SMOOTH"
);
},
{
closed = 1;
nodes = (
"295 125 LINE SMOOTH",
"295 105 OFFCURVE",
"295 75 OFFCURVE",
"249 75 CURVE SMOOTH",
"180 75 LINE SMOOTH",
"145 75 OFFCURVE",
"130 90 OFFCURVE",
"130 125 CURVE SMOOTH",
"130 165 LINE SMOOTH",
"130 200 OFFCURVE",
"155 225 OFFCURVE",
"190 225 CURVE SMOOTH",
"295 225 LINE"
);
},
{
closed = 1;
nodes = (
"380 360 LINE SMOOTH",
"380 400 OFFCURVE",
"395 425 OFFCURVE",
"445 425 CURVE SMOOTH",
"483 425 LINE SMOOTH",
"518 425 OFFCURVE",
"543 400 OFFCURVE",
"543 365 CURVE SMOOTH",
"543 300 LINE",
"380 300 LINE"
);
}
);
width = 691;
}
);
unicode = 00E6;
},
{
glyphname = b;
lastChange = "2016-08-31 13:14:00 +0000";
layers = (
{
hints = (
{
place = "{80, 85}";
},
{
place = "{341, 85}";
},
{
horizontal = 1;
place = "{0, 75}";
},
{
horizontal = 1;
place = "{425, 75}";
},
{
horizontal = 1;
place = "{700, -20}";
target = down;
type = TopGhost;
}
);
layerId = UUID0;
paths = (
{
closed = 1;
nodes = (
"426 160 LINE",
"426 340 LINE SMOOTH",
"426 455 OFFCURVE",
"371 500 OFFCURVE",
"256 500 CURVE SMOOTH",
"240 500 LINE SMOOTH",
"212 500 OFFCURVE",
"186 494 OFFCURVE",
"165 480 CURVE",
"165 700 LINE",
"80 700 LINE",
"80 0 LINE",
"256 0 LINE SMOOTH",
"371 0 OFFCURVE",
"426 46 OFFCURVE",
"426 160 CURVE"
);
},
{
closed = 1;
nodes = (
"230 425 LINE",
"266 425 LINE SMOOTH",
"316 425 OFFCURVE",
"341 400 OFFCURVE",
"341 360 CURVE SMOOTH",
"341 140 LINE SMOOTH",
"341 100 OFFCURVE",
"316 75 OFFCURVE",
"266 75 CURVE SMOOTH",
"165 75 LINE",
"165 370 LINE SMOOTH",
"165 390 OFFCURVE",
"180 425 OFFCURVE",
"230 425 CURVE"
);
}
);
width = 496;
}
);
unicode = 0062;
},
{
glyphname = c;
lastChange = "2016-08-31 13:14:00 +0000";
layers = (
{
hints = (
{
place = "{70, 85}";
},
{
horizontal = 1;
place = "{0, 75}";
},
{
horizontal = 1;
place = "{425, 75}";
}
);
layerId = UUID0;
paths = (
{
closed = 1;
nodes = (
"349 0 LINE",
"349 75 LINE",
"230 75 LINE SMOOTH",
"180 75 OFFCURVE",
"155 100 OFFCURVE",
"155 140 CURVE SMOOTH",
"155 360 LINE SMOOTH",
"155 400 OFFCURVE",
"180 425 OFFCURVE",
"230 425 CURVE SMOOTH",
"349 425 LINE",
"349 500 LINE",
"240 500 LINE SMOOTH",
"125 500 OFFCURVE",
"70 454 OFFCURVE",
"70 340 CURVE SMOOTH",
"70 160 LINE SMOOTH",
"70 45 OFFCURVE",
"125 0 OFFCURVE",
"240 0 CURVE SMOOTH"
);
}
);
width = 399;
}
);
unicode = 0063;
},
{
glyphname = ccedilla;
lastChange = "2016-08-31 13:14:00 +0000";
layers = (
{
hints = (
{
place = "{70, 85}";
},
{
place = "{183, 70}";
},
{
place = "{267, 73}";
},
{
horizontal = 1;
place = "{-200, 64}";
},
{
horizontal = 1;
place = "{-76, 55}";
},
{
horizontal = 1;
place = "{0, 75}";
},
{
horizontal = 1;
place = "{425, 75}";
}
);
layerId = UUID0;
paths = (
{
closed = 1;
nodes = (
"252 -200 LINE SMOOTH",
"287 -200 OFFCURVE",
"340 -193 OFFCURVE",
"340 -105 CURVE SMOOTH",
"340 -36 OFFCURVE",
"311 -21 OFFCURVE",
"253 -21 CURVE",
"253 0 LINE",
"349 0 LINE",
"349 75 LINE",
"230 75 LINE SMOOTH",
"180 75 OFFCURVE",
"155 100 OFFCURVE",
"155 140 CURVE SMOOTH",
"155 360 LINE SMOOTH",
"155 400 OFFCURVE",
"180 425 OFFCURVE",
"230 425 CURVE SMOOTH",
"349 425 LINE",
"349 500 LINE",
"240 500 LINE SMOOTH",
"125 500 OFFCURVE",
"70 454 OFFCURVE",
"70 340 CURVE SMOOTH",
"70 160 LINE SMOOTH",
"70 66 OFFCURVE",
"107 18 OFFCURVE",
"183 4 CURVE",
"183 -76 LINE",
"232 -76 LINE SMOOTH",
"255 -76 OFFCURVE",
"267 -82 OFFCURVE",
"267 -105 CURVE SMOOTH",
"267 -127 OFFCURVE",
"255 -136 OFFCURVE",
"234 -136 CURVE SMOOTH",
"167 -136 LINE",
"167 -200 LINE"
);
}
);
width = 399;
}
);
unicode = 00E7;
},
{
glyphname = d;
lastChange = "2016-08-31 13:14:00 +0000";
layers = (
{
hints = (
{
place = "{70, 85}";
},
{
place = "{336, 85}";
},
{
horizontal = 1;
place = "{0, 75}";
},
{
horizontal = 1;
place = "{425, 75}";
},
{
horizontal = 1;
place = "{700, -20}";
target = down;
type = TopGhost;
}
);
layerId = UUID0;
paths = (
{
closed = 1;
nodes = (
"421 0 LINE",
"421 700 LINE",
"336 700 LINE",
"336 500 LINE",
"240 500 LINE SMOOTH",
"125 500 OFFCURVE",
"70 454 OFFCURVE",
"70 340 CURVE SMOOTH",
"70 160 LINE SMOOTH",
"70 45 OFFCURVE",
"125 0 OFFCURVE",
"240 0 CURVE SMOOTH",
"261 0 LINE SMOOTH",
"291 0 OFFCURVE",
"318 7 OFFCURVE",
"341 23 CURVE",
"341 0 LINE"
);
},
{
closed = 1;
nodes = (
"271 75 LINE",
"230 75 LINE SMOOTH",
"180 75 OFFCURVE",
"155 100 OFFCURVE",
"155 140 CURVE SMOOTH",
"155 360 LINE SMOOTH",
"155 400 OFFCURVE",
"180 425 OFFCURVE",
"230 425 CURVE SMOOTH",
"336 425 LINE",
"336 130 LINE SMOOTH",
"336 110 OFFCURVE",
"321 75 OFFCURVE",
"271 75 CURVE"
);
}
);
width = 501;
}
);
unicode = 0064;
},
{
glyphname = eth;
lastChange = "2016-08-31 13:14:00 +0000";
layers = (
{
hints = (
{
place = "{78, 85}";
},
{
place = "{334, 85}";
},
{
horizontal = 1;
place = "{0, 75}";
},
{
horizontal = 1;
place = "{385, 75}";
},
{
horizontal = 1;
place = "{626, 74}";
},
{
horizontal = 1;
place = "{750, -20}";
target = down;
type = TopGhost;
}
);
layerId = UUID0;
paths = (
{
closed = 1;
nodes = (
"277 622 LINE",
"312 612 OFFCURVE",
"334 581 OFFCURVE",
"334 549 CURVE SMOOTH",
"334 460 LINE",
"246 460 LINE SMOOTH",
"133 460 OFFCURVE",
"78 414 OFFCURVE",
"78 300 CURVE SMOOTH",
"78 170 LINE SMOOTH",
"78 56 OFFCURVE",
"151 0 OFFCURVE",
"236 0 CURVE SMOOTH",
"261 0 LINE SMOOTH",
"346 0 OFFCURVE",
"419 56 OFFCURVE",
"419 170 CURVE SMOOTH",
"419 530 LINE SMOOTH",
"419 616 OFFCURVE",
"383 669 OFFCURVE",
"316 690 CURVE",
"352 750 LINE",
"270 750 LINE",
"240 700 LINE",
"126 700 LINE",
"126 626 LINE",
"197 626 LINE",
"162 566 LINE",
"244 566 LINE"
);
},
{
closed = 1;
nodes = (
"334 385 LINE",
"334 151 LINE SMOOTH",
"334 111 OFFCURVE",
"306 75 OFFCURVE",
"256 75 CURVE SMOOTH",
"241 75 LINE SMOOTH",
"191 75 OFFCURVE",
"163 111 OFFCURVE",
"163 151 CURVE SMOOTH",
"163 319 LINE SMOOTH",
"163 359 OFFCURVE",
"186 385 OFFCURVE",
"236 385 CURVE SMOOTH"
);
}
);
width = 503;
}
);
unicode = 00F0;
},
{
glyphname = e;
lastChange = "2016-08-31 13:14:00 +0000";
layers = (
{
hints = (
{
place = "{70, 85}";
},
{
place = "{318, 83}";
},
{
horizontal = 1;
place = "{0, 75}";
},
{
horizontal = 1;
place = "{215, 75}";
},
{
horizontal = 1;
place = "{425, 75}";
}
);
layerId = UUID0;
paths = (
{
closed = 1;
nodes = (
"369 0 LINE",
"369 75 LINE",
"230 75 LINE SMOOTH",
"180 75 OFFCURVE",
"155 100 OFFCURVE",
"155 140 CURVE SMOOTH",
"155 215 LINE",
"401 215 LINE",
"401 345 LINE SMOOTH",
"401 445 OFFCURVE",
"353 500 OFFCURVE",
"257 500 CURVE SMOOTH",
"230 500 LINE SMOOTH",
"115 500 OFFCURVE",
"70 454 OFFCURVE",
"70 340 CURVE SMOOTH",
"70 160 LINE SMOOTH",
"70 45 OFFCURVE",
"125 0 OFFCURVE",
"240 0 CURVE SMOOTH"
);
},
{
closed = 1;
nodes = (
"155 360 LINE SMOOTH",
"155 400 OFFCURVE",
"170 425 OFFCURVE",
"220 425 CURVE SMOOTH",
"258 425 LINE SMOOTH",
"293 425 OFFCURVE",
"318 400 OFFCURVE",
"318 365 CURVE SMOOTH",
"318 290 LINE",
"155 290 LINE"
);
}
);
width = 466;
}
);
unicode = 0065;
},
{
glyphname = eacute;
lastChange = "2016-08-31 13:14:00 +0000";
layers = (
{
hints = (
{
place = "{70, 85}";
},
{
place = "{318, 83}";
},
{
horizontal = 1;
place = "{0, 75}";
},
{
horizontal = 1;
place = "{215, 75}";
},
{
horizontal = 1;
place = "{425, 75}";
},
{
horizontal = 1;
place = "{715, -20}";
target = down;
type = TopGhost;
}
);
layerId = UUID0;
paths = (
{
closed = 1;
nodes = (
"369 0 LINE",
"369 75 LINE",
"230 75 LINE SMOOTH",
"180 75 OFFCURVE",
"155 100 OFFCURVE",
"155 140 CURVE SMOOTH",
"155 215 LINE",
"401 215 LINE",
"401 345 LINE SMOOTH",
"401 445 OFFCURVE",
"353 500 OFFCURVE",
"257 500 CURVE SMOOTH",
"230 500 LINE SMOOTH",
"115 500 OFFCURVE",
"70 454 OFFCURVE",
"70 340 CURVE SMOOTH",
"70 160 LINE SMOOTH",
"70 45 OFFCURVE",
"125 0 OFFCURVE",
"240 0 CURVE SMOOTH"
);
},
{
closed = 1;
nodes = (
"155 360 LINE SMOOTH",
"155 400 OFFCURVE",
"170 425 OFFCURVE",
"220 425 CURVE SMOOTH",
"258 425 LINE SMOOTH",
"293 425 OFFCURVE",
"318 400 OFFCURVE",
"318 365 CURVE SMOOTH",
"318 290 LINE",
"155 290 LINE"
);
},
{
closed = 1;
nodes = (
"250 580 LINE",
"377 715 LINE",
"268 715 LINE",
"164 580 LINE"
);
}
);
width = 466;
}
);
unicode = 00E9;
},
{
glyphname = ecircumflex;
lastChange = "2016-08-31 13:14:00 +0000";
layers = (
{
hints = (
{
place = "{70, 85}";
},
{
place = "{318, 83}";
},
{
horizontal = 1;
place = "{0, 75}";
},
{
horizontal = 1;
place = "{215, 75}";
},
{
horizontal = 1;
place = "{425, 75}";
},
{
horizontal = 1;
place = "{715, -20}";
target = down;
type = TopGhost;
}
);
layerId = UUID0;
paths = (
{
closed = 1;
nodes = (
"369 0 LINE",
"369 75 LINE",
"230 75 LINE SMOOTH",
"180 75 OFFCURVE",
"155 100 OFFCURVE",
"155 140 CURVE SMOOTH",
"155 215 LINE",
"401 215 LINE",
"401 345 LINE SMOOTH",
"401 445 OFFCURVE",
"353 500 OFFCURVE",
"257 500 CURVE SMOOTH",
"230 500 LINE SMOOTH",
"115 500 OFFCURVE",
"70 454 OFFCURVE",
"70 340 CURVE SMOOTH",
"70 160 LINE SMOOTH",
"70 45 OFFCURVE",
"125 0 OFFCURVE",
"240 0 CURVE SMOOTH"
);
},
{
closed = 1;
nodes = (
"155 360 LINE SMOOTH",
"155 400 OFFCURVE",
"170 425 OFFCURVE",
"220 425 CURVE SMOOTH",
"258 425 LINE SMOOTH",
"293 425 OFFCURVE",
"318 400 OFFCURVE",
"318 365 CURVE SMOOTH",
"318 290 LINE",
"155 290 LINE"
);
},
{
closed = 1;
nodes = (
"399 580 LINE",
"286 715 LINE",
"198 715 LINE",
"86 580 LINE",
"182 580 LINE",
"242 655 LINE",
"302 580 LINE"
);
}
);
width = 466;
}
);
unicode = 00EA;
},
{
glyphname = edieresis;
lastChange = "2016-08-31 13:14:00 +0000";
layers = (
{
hints = (
{
place = "{70, 85}";
},
{
place = "{97, 85}";
},
{
place = "{297, 85}";
},
{
place = "{318, 83}";
},
{
horizontal = 1;
place = "{0, 75}";
},
{
horizontal = 1;
place = "{215, 75}";
},
{
horizontal = 1;
place = "{425, 75}";
},
{
horizontal = 1;
place = "{595, 80}";
}
);
layerId = UUID0;
paths = (
{
closed = 1;
nodes = (
"369 0 LINE",
"369 75 LINE",
"230 75 LINE SMOOTH",
"180 75 OFFCURVE",
"155 100 OFFCURVE",
"155 140 CURVE SMOOTH",
"155 215 LINE",
"401 215 LINE",
"401 345 LINE SMOOTH",
"401 445 OFFCURVE",
"353 500 OFFCURVE",
"257 500 CURVE SMOOTH",
"230 500 LINE SMOOTH",
"115 500 OFFCURVE",
"70 454 OFFCURVE",
"70 340 CURVE SMOOTH",
"70 160 LINE SMOOTH",
"70 45 OFFCURVE",
"125 0 OFFCURVE",
"240 0 CURVE SMOOTH"
);
},
{
closed = 1;
nodes = (
"155 360 LINE SMOOTH",
"155 400 OFFCURVE",
"170 425 OFFCURVE",
"220 425 CURVE SMOOTH",
"258 425 LINE SMOOTH",
"293 425 OFFCURVE",
"318 400 OFFCURVE",
"318 365 CURVE SMOOTH",
"318 290 LINE",
"155 290 LINE"
);
},
{
closed = 1;
nodes = (
"382 595 LINE",
"382 675 LINE",
"297 675 LINE",
"297 595 LINE"
);
},
{
closed = 1;
nodes = (
"182 595 LINE",
"182 675 LINE",
"97 675 LINE",
"97 595 LINE"
);
}
);
width = 466;
}
);
unicode = 00EB;
},
{
glyphname = egrave;
lastChange = "2016-08-31 13:14:00 +0000";
layers = (
{
hints = (
{
place = "{70, 85}";
},
{
place = "{318, 83}";
},
{
horizontal = 1;
place = "{0, 75}";
},
{
horizontal = 1;
place = "{215, 75}";
},
{
horizontal = 1;
place = "{425, 75}";
},
{
horizontal = 1;
place = "{715, -20}";
target = down;
type = TopGhost;
}
);
layerId = UUID0;
paths = (
{
closed = 1;
nodes = (
"369 0 LINE",
"369 75 LINE",
"230 75 LINE SMOOTH",
"180 75 OFFCURVE",
"155 100 OFFCURVE",
"155 140 CURVE SMOOTH",
"155 215 LINE",
"401 215 LINE",
"401 345 LINE SMOOTH",
"401 445 OFFCURVE",
"353 500 OFFCURVE",
"257 500 CURVE SMOOTH",
"230 500 LINE SMOOTH",
"115 500 OFFCURVE",
"70 454 OFFCURVE",
"70 340 CURVE SMOOTH",
"70 160 LINE SMOOTH",
"70 45 OFFCURVE",
"125 0 OFFCURVE",
"240 0 CURVE SMOOTH"
);
},
{
closed = 1;
nodes = (
"155 360 LINE SMOOTH",
"155 400 OFFCURVE",
"170 425 OFFCURVE",
"220 425 CURVE SMOOTH",
"258 425 LINE SMOOTH",
"293 425 OFFCURVE",
"318 400 OFFCURVE",
"318 365 CURVE SMOOTH",
"318 290 LINE",
"155 290 LINE"
);
},
{
closed = 1;
nodes = (
"326 580 LINE",
"222 715 LINE",
"113 715 LINE",
"240 580 LINE"
);
}
);
width = 466;
}
);
unicode = 00E8;
},
{
glyphname = f;
lastChange = "2016-08-31 13:14:00 +0000";
layers = (
{
hints = (
{
place = "{95, 85}";
},
{
horizontal = 1;
place = "{0, 21}";
target = up;
type = BottomGhost;
},
{
horizontal = 1;
place = "{425, 75}";
},
{
horizontal = 1;
place = "{625, 75}";
}
);
layerId = UUID0;
paths = (
{
closed = 1;
nodes = (
"311 625 LINE",
"311 700 LINE",
"199 700 LINE SMOOTH",
"139 700 OFFCURVE",
"95 660 OFFCURVE",
"95 590 CURVE SMOOTH",
"95 500 LINE",
"30 500 LINE",
"30 425 LINE",
"95 425 LINE",
"95 0 LINE",
"180 0 LINE",
"180 425 LINE",
"301 425 LINE",
"301 500 LINE",
"180 500 LINE",
"180 595 LINE SMOOTH",
"180 612 OFFCURVE",
"193 625 OFFCURVE",
"215 625 CURVE SMOOTH"
);
}
);
width = 306;
}
);
unicode = 0066;
},
{
glyphname = g;
lastChange = "2016-08-31 13:14:00 +0000";
layers = (
{
hints = (
{
place = "{55, 85}";
},
{
place = "{120, 85}";
},
{
place = "{344, 85}";
},
{
place = "{359, 85}";
},
{
horizontal = 1;
place = "{-170, 75}";
},
{
horizontal = 1;
place = "{37, 75}";
},
{
horizontal = 1;
place = "{155, 75}";
},
{
horizontal = 1;
place = "{425, 75}";
}
);
layerId = UUID0;
paths = (
{
closed = 1;
nodes = (
"444 -35 LINE",
"444 -23 LINE SMOOTH",
"444 67 OFFCURVE",
"392 112 OFFCURVE",
"277 112 CURVE SMOOTH",
"205 112 LINE",
"205 155 LINE",
"279 155 LINE SMOOTH",
"369 155 OFFCURVE",
"429 214 OFFCURVE",
"429 315 CURVE SMOOTH",
"429 500 LINE",
"225 500 LINE SMOOTH",
"110 500 OFFCURVE",
"55 454 OFFCURVE",
"55 340 CURVE SMOOTH",
"55 315 LINE SMOOTH",
"55 243 OFFCURVE",
"76 199 OFFCURVE",
"120 175 CURVE",
"120 37 LINE",
"287 37 LINE SMOOTH",
"337 37 OFFCURVE",
"359 17 OFFCURVE",
"359 -13 CURVE SMOOTH",
"359 -45 LINE SMOOTH",
"359 -72 OFFCURVE",
"337 -95 OFFCURVE",
"287 -95 CURVE SMOOTH",
"75 -95 LINE",
"75 -170 LINE",
"277 -170 LINE SMOOTH",
"392 -170 OFFCURVE",
"444 -125 OFFCURVE",
"444 -35 CURVE"
);
},
{
closed = 1;
nodes = (
"279 230 LINE",
"215 230 LINE SMOOTH",
"165 230 OFFCURVE",
"140 255 OFFCURVE",
"140 295 CURVE SMOOTH",
"140 360 LINE SMOOTH",
"140 400 OFFCURVE",
"165 425 OFFCURVE",
"215 425 CURVE SMOOTH",
"344 425 LINE",
"344 292 LINE",
"342 271 OFFCURVE",
"326 230 OFFCURVE",
"279 230 CURVE"
);
}
);
width = 494;
}
);
unicode = 0067;
},
{
glyphname = h;
lastChange = "2016-08-31 13:14:00 +0000";
layers = (
{
hints = (
{
place = "{80, 85}";
},
{
place = "{341, 85}";
},
{
horizontal = 1;
place = "{0, 21}";
target = up;
type = BottomGhost;
},
{
horizontal = 1;
place = "{425, 75}";
},
{
horizontal = 1;
place = "{700, -20}";
target = down;
type = TopGhost;
}
);
layerId = UUID0;
paths = (
{
closed = 1;
nodes = (
"165 0 LINE",
"165 373 LINE SMOOTH",
"165 393 OFFCURVE",
"182 425 OFFCURVE",
"230 425 CURVE SMOOTH",
"276 425 LINE SMOOTH",
"316 425 OFFCURVE",
"341 400 OFFCURVE",
"341 360 CURVE SMOOTH",
"341 0 LINE",
"426 0 LINE",
"426 340 LINE SMOOTH",
"426 455 OFFCURVE",
"371 500 OFFCURVE",
"266 500 CURVE SMOOTH",
"240 500 LINE SMOOTH",
"212 500 OFFCURVE",
"186 494 OFFCURVE",
"165 480 CURVE",
"165 700 LINE",
"80 700 LINE",
"80 0 LINE"
);
}
);
width = 501;
}
);
unicode = 0068;
},
{
glyphname = i;
lastChange = "2016-08-31 13:14:00 +0000";
layers = (
{
hints = (
{
place = "{80, 85}";
},
{
horizontal = 1;
place = "{0, 21}";
target = up;
type = BottomGhost;
},
{
horizontal = 1;
place = "{500, -20}";
target = down;
type = TopGhost;
},
{
horizontal = 1;
place = "{610, 90}";
}
);
layerId = UUID0;
paths = (
{
closed = 1;
nodes = (
"170 610 LINE",
"170 700 LINE",
"75 700 LINE",
"75 610 LINE"
);
},
{
closed = 1;
nodes = (
"165 0 LINE",
"165 500 LINE",
"80 500 LINE",
"80 0 LINE"
);
}
);
width = 245;
}
);
unicode = 0069;
},
{
glyphname = dotlessi;
lastChange = "2016-08-31 13:14:00 +0000";
layers = (
{
hints = (
{
place = "{80, 85}";
},
{
horizontal = 1;
place = "{0, 21}";
target = up;
type = BottomGhost;
},
{
horizontal = 1;
place = "{500, -20}";
target = down;
type = TopGhost;
}
);
layerId = UUID0;
paths = (
{
closed = 1;
nodes = (
"165 0 LINE",
"165 500 LINE",
"80 500 LINE",
"80 0 LINE"
);
}
);
width = 245;
}
);
unicode = 0131;
},
{
glyphname = iacute;
lastChange = "2016-08-31 13:14:00 +0000";
layers = (
{
hints = (
{
place = "{80, 85}";
},
{
horizontal = 1;
place = "{0, 21}";
target = up;
type = BottomGhost;
},
{
horizontal = 1;
place = "{500, -20}";
target = down;
type = TopGhost;
},
{
horizontal = 1;
place = "{715, -20}";
target = down;
type = TopGhost;
}
);
layerId = UUID0;
paths = (
{
closed = 1;
nodes = (
"165 0 LINE",
"165 500 LINE",
"80 500 LINE",
"80 0 LINE"
);
},
{
closed = 1;
nodes = (
"141 580 LINE",
"268 715 LINE",
"159 715 LINE",
"55 580 LINE"
);
}
);
width = 245;
}
);
unicode = 00ED;
},
{
glyphname = icircumflex;
lastChange = "2016-08-31 13:14:00 +0000";
layers = (
{
hints = (
{
place = "{80, 85}";
},
{
horizontal = 1;
place = "{0, 21}";
target = up;
type = BottomGhost;
},
{
horizontal = 1;
place = "{500, -20}";
target = down;
type = TopGhost;
},
{
horizontal = 1;
place = "{715, -20}";
target = down;
type = TopGhost;
}
);
layerId = UUID0;
paths = (
{
closed = 1;
nodes = (
"165 0 LINE",
"165 500 LINE",
"80 500 LINE",
"80 0 LINE"
);
},
{
closed = 1;
nodes = (
"279 580 LINE",
"166 715 LINE",
"78 715 LINE",
"-34 580 LINE",
"62 580 LINE",
"122 655 LINE",
"182 580 LINE"
);
}
);
width = 245;
}
);
unicode = 00EE;
},
{
glyphname = idieresis;
lastChange = "2016-08-31 13:14:00 +0000";
layers = (
{
hints = (
{
place = "{-20, 85}";
},
{
place = "{80, 85}";
},
{
place = "{180, 85}";
},
{
horizontal = 1;
place = "{0, 21}";
target = up;
type = BottomGhost;
},
{
horizontal = 1;
place = "{500, -20}";
target = down;
type = TopGhost;
},
{
horizontal = 1;
place = "{595, 80}";
}
);
layerId = UUID0;
paths = (
{
closed = 1;
nodes = (
"165 0 LINE",
"165 500 LINE",
"80 500 LINE",
"80 0 LINE"
);
},
{
closed = 1;
nodes = (
"265 595 LINE",
"265 675 LINE",
"180 675 LINE",
"180 595 LINE"
);
},
{
closed = 1;
nodes = (
"65 595 LINE",
"65 675 LINE",
"-20 675 LINE",
"-20 595 LINE"
);
}
);
width = 245;
}
);
unicode = 00EF;
},
{
glyphname = igrave;
lastChange = "2016-08-31 13:14:00 +0000";
layers = (
{
hints = (
{
place = "{80, 85}";
},
{
horizontal = 1;
place = "{0, 21}";
target = up;
type = BottomGhost;
},
{
horizontal = 1;
place = "{500, -20}";
target = down;
type = TopGhost;
},
{
horizontal = 1;
place = "{715, -20}";
target = down;
type = TopGhost;
}
);
layerId = UUID0;
paths = (
{
closed = 1;
nodes = (
"165 0 LINE",
"165 500 LINE",
"80 500 LINE",
"80 0 LINE"
);
},
{
closed = 1;
nodes = (
"194 580 LINE",
"80 715 LINE",
"-19 715 LINE",
"108 580 LINE"
);
}
);
width = 245;
}
);
unicode = 00EC;
},
{
glyphname = j;
lastChange = "2016-08-31 13:14:00 +0000";
layers = (
{
hints = (
{
place = "{75, 91}";
},
{
place = "{81, 85}";
},
{
horizontal = 1;
place = "{-170, 75}";
},
{
horizontal = 1;
place = "{500, -20}";
target = down;
type = TopGhost;
},
{
horizontal = 1;
place = "{610, 90}";
}
);
layerId = UUID0;
paths = (
{
closed = 1;
nodes = (
"170 610 LINE",
"170 700 LINE",
"75 700 LINE",
"75 610 LINE"
);
},
{
closed = 1;
nodes = (
"-45 -95 LINE",
"-45 -170 LINE",
"62 -170 LINE SMOOTH",
"122 -170 OFFCURVE",
"166 -130 OFFCURVE",
"166 -60 CURVE SMOOTH",
"166 500 LINE",
"81 500 LINE",
"81 -65 LINE SMOOTH",
"81 -82 OFFCURVE",
"68 -95 OFFCURVE",
"46 -95 CURVE SMOOTH"
);
}
);
width = 245;
}
);
unicode = 006A;
},
{
glyphname = k;
lastChange = "2016-08-31 13:14:00 +0000";
layers = (
{
hints = (
{
place = "{80, 85}";
},
{
horizontal = 1;
place = "{0, 21}";
target = up;
type = BottomGhost;
},
{
horizontal = 1;
place = "{500, -20}";
target = down;
type = TopGhost;
},
{
horizontal = 1;
place = "{700, -20}";
target = down;
type = TopGhost;
}
);
layerId = UUID0;
paths = (
{
closed = 1;
nodes = (
"429 0 LINE",
"253 307 LINE",
"422 500 LINE",
"315 500 LINE",
"165 326 LINE",
"165 700 LINE",
"80 700 LINE",
"80 0 LINE",
"165 0 LINE",
"165 214 LINE",
"193 247 LINE",
"330 0 LINE"
);
}
);
width = 464;
}
);
unicode = 006B;
},
{
glyphname = l;
lastChange = "2016-08-31 13:14:00 +0000";
layers = (
{
hints = (
{
place = "{75, 85}";
},
{
horizontal = 1;
place = "{0, 75}";
},
{
horizontal = 1;
place = "{700, -20}";
target = down;
type = TopGhost;
}
);
layerId = UUID0;
paths = (
{
closed = 1;
nodes = (
"215 0 LINE",
"215 75 LINE",
"195 75 LINE SMOOTH",
"169 75 OFFCURVE",
"160 84 OFFCURVE",
"160 105 CURVE SMOOTH",
"160 700 LINE",
"75 700 LINE",
"75 100 LINE SMOOTH",
"75 24 OFFCURVE",
"121 0 OFFCURVE",
"160 0 CURVE SMOOTH"
);
}
);
width = 250;
}
);
unicode = 006C;
},
{
glyphname = lslash;
lastChange = "2016-08-31 13:14:00 +0000";
layers = (
{
hints = (
{
place = "{85, 85}";
},
{
horizontal = 1;
place = "{0, 75}";
},
{
horizontal = 1;
place = "{700, -20}";
target = down;
type = TopGhost;
}
);
layerId = UUID0;
paths = (
{
closed = 1;
nodes = (
"225 0 LINE",
"225 75 LINE",
"205 75 LINE SMOOTH",
"179 75 OFFCURVE",
"170 84 OFFCURVE",
"170 105 CURVE SMOOTH",
"170 388 LINE",
"231 428 LINE",
"231 508 LINE",
"170 467 LINE",
"170 700 LINE",
"85 700 LINE",
"85 411 LINE",
"35 378 LINE",
"35 300 LINE",
"85 332 LINE",
"85 100 LINE SMOOTH",
"85 24 OFFCURVE",
"131 0 OFFCURVE",
"170 0 CURVE SMOOTH"
);
}
);
width = 271;
}
);
unicode = 0142;
},
{
glyphname = m;
lastChange = "2016-08-31 13:14:00 +0000";
layers = (
{
hints = (
{
place = "{80, 85}";
},
{
place = "{320, 85}";
},
{
place = "{560, 85}";
},
{
horizontal = 1;
place = "{0, 21}";
target = up;
type = BottomGhost;
},
{
horizontal = 1;
place = "{425, 75}";
}
);
layerId = UUID0;
paths = (
{
closed = 1;
nodes = (
"165 0 LINE",
"165 373 LINE SMOOTH",
"165 393 OFFCURVE",
"182 425 OFFCURVE",
"230 425 CURVE SMOOTH",
"256 425 LINE SMOOTH",
"296 425 OFFCURVE",
"320 400 OFFCURVE",
"320 360 CURVE SMOOTH",
"320 0 LINE",
"405 0 LINE",
"405 367 LINE",
"407 388 OFFCURVE",
"423 425 OFFCURVE",
"469 425 CURVE SMOOTH",
"495 425 LINE SMOOTH",
"535 425 OFFCURVE",
"560 400 OFFCURVE",
"560 360 CURVE SMOOTH",
"560 0 LINE",
"645 0 LINE",
"645 340 LINE SMOOTH",
"645 455 OFFCURVE",
"590 500 OFFCURVE",
"485 500 CURVE SMOOTH",
"479 500 LINE SMOOTH",
"438 500 OFFCURVE",
"402 486 OFFCURVE",
"376 454 CURVE",
"350 485 OFFCURVE",
"306 500 OFFCURVE",
"246 500 CURVE SMOOTH",
"240 500 LINE SMOOTH",
"210 500 OFFCURVE",
"182 493 OFFCURVE",
"160 476 CURVE",
"160 500 LINE",
"80 500 LINE",
"80 0 LINE"
);
}
);
width = 720;
}
);
unicode = 006D;
},
{
glyphname = n;
lastChange = "2016-08-31 13:14:00 +0000";
layers = (
{
hints = (
{
place = "{80, 85}";
},
{
place = "{341, 85}";
},
{
horizontal = 1;
place = "{0, 21}";
target = up;
type = BottomGhost;
},
{
horizontal = 1;
place = "{425, 75}";
}
);
layerId = UUID0;
paths = (
{
closed = 1;
nodes = (
"165 0 LINE",
"165 370 LINE SMOOTH",
"165 390 OFFCURVE",
"180 425 OFFCURVE",
"230 425 CURVE SMOOTH",
"276 425 LINE SMOOTH",
"316 425 OFFCURVE",
"341 400 OFFCURVE",
"341 360 CURVE SMOOTH",
"341 0 LINE",
"426 0 LINE",
"426 340 LINE SMOOTH",
"426 455 OFFCURVE",
"371 500 OFFCURVE",
"266 500 CURVE SMOOTH",
"240 500 LINE SMOOTH",
"210 500 OFFCURVE",
"182 493 OFFCURVE",
"160 476 CURVE",
"160 500 LINE",
"80 500 LINE",
"80 0 LINE"
);
}
);
width = 501;
}
);
unicode = 006E;
},
{
glyphname = ntilde;
lastChange = "2016-08-31 13:14:00 +0000";
layers = (
{
hints = (
{
place = "{80, 85}";
},
{
place = "{341, 85}";
},
{
horizontal = 1;
place = "{0, 21}";
target = up;
type = BottomGhost;
},
{
horizontal = 1;
place = "{425, 75}";
},
{
horizontal = 1;
place = "{591, 69}";
},
{
horizontal = 1;
place = "{631, 69}";
}
);
layerId = UUID0;
paths = (
{
closed = 1;
nodes = (
"165 0 LINE",
"165 370 LINE SMOOTH",
"165 390 OFFCURVE",
"180 425 OFFCURVE",
"230 425 CURVE SMOOTH",
"276 425 LINE SMOOTH",
"316 425 OFFCURVE",
"341 400 OFFCURVE",
"341 360 CURVE SMOOTH",
"341 0 LINE",
"426 0 LINE",
"426 340 LINE SMOOTH",
"426 455 OFFCURVE",
"371 500 OFFCURVE",
"266 500 CURVE SMOOTH",
"240 500 LINE SMOOTH",
"210 500 OFFCURVE",
"182 493 OFFCURVE",
"160 476 CURVE",
"160 500 LINE",
"80 500 LINE",
"80 0 LINE"
);
},
{
closed = 1;
nodes = (
"130 595 LINE",
"130 595 OFFCURVE",
"193 631 OFFCURVE",
"207 631 CURVE SMOOTH",
"217 631 LINE SMOOTH",
"237 631 OFFCURVE",
"314 591 OFFCURVE",
"327 591 CURVE SMOOTH",
"342 591 LINE SMOOTH",
"359 591 OFFCURVE",
"410 624 OFFCURVE",
"410 624 CURVE",
"410 696 LINE",
"410 696 OFFCURVE",
"355 660 OFFCURVE",
"343 660 CURVE SMOOTH",
"333 660 LINE SMOOTH",
"310 660 OFFCURVE",
"246 700 OFFCURVE",
"222 700 CURVE SMOOTH",
"207 700 LINE SMOOTH",
"188 700 OFFCURVE",
"130 667 OFFCURVE",
"130 667 CURVE"
);
}
);
width = 501;
}
);
unicode = 00F1;
},
{
glyphname = o;
lastChange = "2016-08-31 13:14:00 +0000";
layers = (
{
hints = (
{
place = "{70, 85}";
},
{
place = "{338, 85}";
},
{
horizontal = 1;
place = "{0, 75}";
},
{
horizontal = 1;
place = "{425, 75}";
}
);
layerId = UUID0;
paths = (
{
closed = 1;
nodes = (
"423 160 LINE",
"423 340 LINE SMOOTH",
"423 454 OFFCURVE",
"368 500 OFFCURVE",
"253 500 CURVE SMOOTH",
"240 500 LINE SMOOTH",
"125 500 OFFCURVE",
"70 454 OFFCURVE",
"70 340 CURVE SMOOTH",
"70 160 LINE SMOOTH",
"70 46 OFFCURVE",
"125 0 OFFCURVE",
"240 0 CURVE SMOOTH",
"253 0 LINE SMOOTH",
"368 0 OFFCURVE",
"423 46 OFFCURVE",
"423 160 CURVE"
);
},
{
closed = 1;
nodes = (
"338 140 LINE SMOOTH",
"338 100 OFFCURVE",
"313 75 OFFCURVE",
"263 75 CURVE SMOOTH",
"230 75 LINE SMOOTH",
"180 75 OFFCURVE",
"155 100 OFFCURVE",
"155 140 CURVE SMOOTH",
"155 360 LINE SMOOTH",
"155 400 OFFCURVE",
"180 425 OFFCURVE",
"230 425 CURVE SMOOTH",
"263 425 LINE SMOOTH",
"313 425 OFFCURVE",
"338 400 OFFCURVE",
"338 360 CURVE SMOOTH"
);
}
);
width = 493;
}
);
unicode = 006F;
},
{
glyphname = oacute;
lastChange = "2016-08-31 13:14:00 +0000";
layers = (
{
hints = (
{
place = "{70, 85}";
},
{
place = "{338, 85}";
},
{
horizontal = 1;
place = "{0, 75}";
},
{
horizontal = 1;
place = "{425, 75}";
},
{
horizontal = 1;
place = "{715, -20}";
target = down;
type = TopGhost;
}
);
layerId = UUID0;
paths = (
{
closed = 1;
nodes = (
"423 160 LINE",
"423 340 LINE SMOOTH",
"423 454 OFFCURVE",
"368 500 OFFCURVE",
"253 500 CURVE SMOOTH",
"240 500 LINE SMOOTH",
"125 500 OFFCURVE",
"70 454 OFFCURVE",
"70 340 CURVE SMOOTH",
"70 160 LINE SMOOTH",
"70 46 OFFCURVE",
"125 0 OFFCURVE",
"240 0 CURVE SMOOTH",
"253 0 LINE SMOOTH",
"368 0 OFFCURVE",
"423 46 OFFCURVE",
"423 160 CURVE"
);
},
{
closed = 1;
nodes = (
"338 140 LINE SMOOTH",
"338 100 OFFCURVE",
"313 75 OFFCURVE",
"263 75 CURVE SMOOTH",
"230 75 LINE SMOOTH",
"180 75 OFFCURVE",
"155 100 OFFCURVE",
"155 140 CURVE SMOOTH",
"155 360 LINE SMOOTH",
"155 400 OFFCURVE",
"180 425 OFFCURVE",
"230 425 CURVE SMOOTH",
"263 425 LINE SMOOTH",
"313 425 OFFCURVE",
"338 400 OFFCURVE",
"338 360 CURVE SMOOTH"
);
},
{
closed = 1;
nodes = (
"268 580 LINE",
"395 715 LINE",
"286 715 LINE",
"182 580 LINE"
);
}
);
width = 493;
}
);
unicode = 00F3;
},
{
glyphname = ocircumflex;
lastChange = "2016-08-31 13:14:00 +0000";
layers = (
{
hints = (
{
place = "{70, 85}";
},
{
place = "{338, 85}";
},
{
horizontal = 1;
place = "{0, 75}";
},
{
horizontal = 1;
place = "{425, 75}";
},
{
horizontal = 1;
place = "{715, -20}";
target = down;
type = TopGhost;
}
);
layerId = UUID0;
paths = (
{
closed = 1;
nodes = (
"423 160 LINE",
"423 340 LINE SMOOTH",
"423 454 OFFCURVE",
"368 500 OFFCURVE",
"253 500 CURVE SMOOTH",
"240 500 LINE SMOOTH",
"125 500 OFFCURVE",
"70 454 OFFCURVE",
"70 340 CURVE SMOOTH",
"70 160 LINE SMOOTH",
"70 46 OFFCURVE",
"125 0 OFFCURVE",
"240 0 CURVE SMOOTH",
"253 0 LINE SMOOTH",
"368 0 OFFCURVE",
"423 46 OFFCURVE",
"423 160 CURVE"
);
},
{
closed = 1;
nodes = (
"338 140 LINE SMOOTH",
"338 100 OFFCURVE",
"313 75 OFFCURVE",
"263 75 CURVE SMOOTH",
"230 75 LINE SMOOTH",
"180 75 OFFCURVE",
"155 100 OFFCURVE",
"155 140 CURVE SMOOTH",
"155 360 LINE SMOOTH",
"155 400 OFFCURVE",
"180 425 OFFCURVE",
"230 425 CURVE SMOOTH",
"263 425 LINE SMOOTH",
"313 425 OFFCURVE",
"338 400 OFFCURVE",
"338 360 CURVE SMOOTH"
);
},
{
closed = 1;
nodes = (
"405 580 LINE",
"292 715 LINE",
"204 715 LINE",
"92 580 LINE",
"188 580 LINE",
"248 655 LINE",
"308 580 LINE"
);
}
);
width = 493;
}
);
unicode = 00F4;
},
{
glyphname = odieresis;
lastChange = "2016-08-31 13:14:00 +0000";
layers = (
{
hints = (
{
place = "{70, 85}";
},
{
place = "{106, 85}";
},
{
place = "{306, 85}";
},
{
place = "{338, 85}";
},
{
horizontal = 1;
place = "{0, 75}";
},
{
horizontal = 1;
place = "{425, 75}";
},
{
horizontal = 1;
place = "{595, 80}";
}
);
layerId = UUID0;
paths = (
{
closed = 1;
nodes = (
"423 160 LINE",
"423 340 LINE SMOOTH",
"423 454 OFFCURVE",
"368 500 OFFCURVE",
"253 500 CURVE SMOOTH",
"240 500 LINE SMOOTH",
"125 500 OFFCURVE",
"70 454 OFFCURVE",
"70 340 CURVE SMOOTH",
"70 160 LINE SMOOTH",
"70 46 OFFCURVE",
"125 0 OFFCURVE",
"240 0 CURVE SMOOTH",
"253 0 LINE SMOOTH",
"368 0 OFFCURVE",
"423 46 OFFCURVE",
"423 160 CURVE"
);
},
{
closed = 1;
nodes = (
"338 140 LINE SMOOTH",
"338 100 OFFCURVE",
"313 75 OFFCURVE",
"263 75 CURVE SMOOTH",
"230 75 LINE SMOOTH",
"180 75 OFFCURVE",
"155 100 OFFCURVE",
"155 140 CURVE SMOOTH",
"155 360 LINE SMOOTH",
"155 400 OFFCURVE",
"180 425 OFFCURVE",
"230 425 CURVE SMOOTH",
"263 425 LINE SMOOTH",
"313 425 OFFCURVE",
"338 400 OFFCURVE",
"338 360 CURVE SMOOTH"
);
},
{
closed = 1;
nodes = (
"391 595 LINE",
"391 675 LINE",
"306 675 LINE",
"306 595 LINE"
);
},
{
closed = 1;
nodes = (
"191 595 LINE",
"191 675 LINE",
"106 675 LINE",
"106 595 LINE"
);
}
);
width = 493;
}
);
unicode = 00F6;
},
{
glyphname = ograve;
lastChange = "2016-08-31 13:14:00 +0000";
layers = (
{
hints = (
{
place = "{70, 85}";
},
{
place = "{338, 85}";
},
{
horizontal = 1;
place = "{0, 75}";
},
{
horizontal = 1;
place = "{425, 75}";
},
{
horizontal = 1;
place = "{715, -20}";
target = down;
type = TopGhost;
}
);
layerId = UUID0;
paths = (
{
closed = 1;
nodes = (
"423 160 LINE",
"423 340 LINE SMOOTH",
"423 454 OFFCURVE",
"368 500 OFFCURVE",
"253 500 CURVE SMOOTH",
"240 500 LINE SMOOTH",
"125 500 OFFCURVE",
"70 454 OFFCURVE",
"70 340 CURVE SMOOTH",
"70 160 LINE SMOOTH",
"70 46 OFFCURVE",
"125 0 OFFCURVE",
"240 0 CURVE SMOOTH",
"253 0 LINE SMOOTH",
"368 0 OFFCURVE",
"423 46 OFFCURVE",
"423 160 CURVE"
);
},
{
closed = 1;
nodes = (
"338 140 LINE SMOOTH",
"338 100 OFFCURVE",
"313 75 OFFCURVE",
"263 75 CURVE SMOOTH",
"230 75 LINE SMOOTH",
"180 75 OFFCURVE",
"155 100 OFFCURVE",
"155 140 CURVE SMOOTH",
"155 360 LINE SMOOTH",
"155 400 OFFCURVE",
"180 425 OFFCURVE",
"230 425 CURVE SMOOTH",
"263 425 LINE SMOOTH",
"313 425 OFFCURVE",
"338 400 OFFCURVE",
"338 360 CURVE SMOOTH"
);
},
{
closed = 1;
nodes = (
"341 580 LINE",
"237 715 LINE",
"128 715 LINE",
"255 580 LINE"
);
}
);
width = 493;
}
);
unicode = 00F2;
},
{
glyphname = oslash;
lastChange = "2016-08-31 13:14:00 +0000";
layers = (
{
hints = (
{
place = "{70, 85}";
},
{
place = "{338, 85}";
},
{
horizontal = 1;
place = "{-89, 21}";
target = up;
type = BottomGhost;
},
{
horizontal = 1;
place = "{0, 75}";
},
{
horizontal = 1;
place = "{425, 75}";
},
{
horizontal = 1;
place = "{589, -20}";
target = down;
type = TopGhost;
}
);
layerId = UUID0;
paths = (
{
closed = 1;
nodes = (
"423 160 LINE",
"423 340 LINE SMOOTH",
"423 412 OFFCURVE",
"401 456 OFFCURVE",
"356 480 CURVE",
"389 589 LINE",
"312 589 LINE",
"284 498 LINE",
"274 499 OFFCURVE",
"264 500 OFFCURVE",
"253 500 CURVE SMOOTH",
"240 500 LINE SMOOTH",
"125 500 OFFCURVE",
"70 454 OFFCURVE",
"70 340 CURVE SMOOTH",
"70 160 LINE SMOOTH",
"70 87 OFFCURVE",
"92 42 OFFCURVE",
"139 19 CURVE",
"106 -89 LINE",
"184 -89 LINE",
"211 1 LINE",
"220 0 OFFCURVE",
"230 0 OFFCURVE",
"240 0 CURVE SMOOTH",
"253 0 LINE SMOOTH",
"368 0 OFFCURVE",
"423 46 OFFCURVE",
"423 160 CURVE"
);
},
{
closed = 1;
nodes = (
"155 140 LINE",
"155 360 LINE SMOOTH",
"155 400 OFFCURVE",
"180 425 OFFCURVE",
"230 425 CURVE SMOOTH",
"262 425 LINE",
"164 103 LINE",
"158 113 OFFCURVE",
"155 125 OFFCURVE",
"155 140 CURVE"
);
},
{
closed = 1;
nodes = (
"338 140 LINE SMOOTH",
"338 100 OFFCURVE",
"313 75 OFFCURVE",
"263 75 CURVE SMOOTH",
"234 75 LINE",
"330 394 LINE",
"335 384 OFFCURVE",
"338 373 OFFCURVE",
"338 360 CURVE SMOOTH"
);
}
);
width = 493;
}
);
unicode = 00F8;
},
{
glyphname = otilde;
lastChange = "2016-08-31 13:14:00 +0000";
layers = (
{
hints = (
{
place = "{70, 85}";
},
{
place = "{338, 85}";
},
{
horizontal = 1;
place = "{0, 75}";
},
{
horizontal = 1;
place = "{425, 75}";
},
{
horizontal = 1;
place = "{591, 69}";
},
{
horizontal = 1;
place = "{631, 69}";
}
);
layerId = UUID0;
paths = (
{
closed = 1;
nodes = (
"423 160 LINE",
"423 340 LINE SMOOTH",
"423 454 OFFCURVE",
"368 500 OFFCURVE",
"253 500 CURVE SMOOTH",
"240 500 LINE SMOOTH",
"125 500 OFFCURVE",
"70 454 OFFCURVE",
"70 340 CURVE SMOOTH",
"70 160 LINE SMOOTH",
"70 46 OFFCURVE",
"125 0 OFFCURVE",
"240 0 CURVE SMOOTH",
"253 0 LINE SMOOTH",
"368 0 OFFCURVE",
"423 46 OFFCURVE",
"423 160 CURVE"
);
},
{
closed = 1;
nodes = (
"338 140 LINE SMOOTH",
"338 100 OFFCURVE",
"313 75 OFFCURVE",
"263 75 CURVE SMOOTH",
"230 75 LINE SMOOTH",
"180 75 OFFCURVE",
"155 100 OFFCURVE",
"155 140 CURVE SMOOTH",
"155 360 LINE SMOOTH",
"155 400 OFFCURVE",
"180 425 OFFCURVE",
"230 425 CURVE SMOOTH",
"263 425 LINE SMOOTH",
"313 425 OFFCURVE",
"338 400 OFFCURVE",
"338 360 CURVE SMOOTH"
);
},
{
closed = 1;
nodes = (
"105 595 LINE",
"105 595 OFFCURVE",
"168 631 OFFCURVE",
"182 631 CURVE SMOOTH",
"192 631 LINE SMOOTH",
"212 631 OFFCURVE",
"289 591 OFFCURVE",
"302 591 CURVE SMOOTH",
"317 591 LINE SMOOTH",
"334 591 OFFCURVE",
"385 624 OFFCURVE",
"385 624 CURVE",
"385 696 LINE",
"385 696 OFFCURVE",
"330 660 OFFCURVE",
"318 660 CURVE SMOOTH",
"308 660 LINE SMOOTH",
"285 660 OFFCURVE",
"221 700 OFFCURVE",
"197 700 CURVE SMOOTH",
"182 700 LINE SMOOTH",
"163 700 OFFCURVE",
"105 667 OFFCURVE",
"105 667 CURVE"
);
}
);
width = 493;
}
);
unicode = 00F5;
},
{
glyphname = oe;
lastChange = "2016-08-31 13:14:00 +0000";
layers = (
{
hints = (
{
place = "{70, 85}";
},
{
place = "{338, 85}";
},
{
place = "{586, 83}";
},
{
horizontal = 1;
place = "{0, 75}";
},
{
horizontal = 1;
place = "{215, 75}";
},
{
horizontal = 1;
place = "{425, 75}";
}
);
layerId = UUID0;
paths = (
{
closed = 1;
nodes = (
"637 0 LINE",
"637 75 LINE",
"498 75 LINE SMOOTH",
"448 75 OFFCURVE",
"423 100 OFFCURVE",
"423 140 CURVE SMOOTH",
"423 215 LINE",
"669 215 LINE",
"669 345 LINE SMOOTH",
"669 445 OFFCURVE",
"621 500 OFFCURVE",
"525 500 CURVE SMOOTH",
"498 500 LINE SMOOTH",
"436 500 OFFCURVE",
"403 485 OFFCURVE",
"378 461 CURVE",
"350 485 OFFCURVE",
"315 500 OFFCURVE",
"253 500 CURVE SMOOTH",
"240 500 LINE SMOOTH",
"125 500 OFFCURVE",
"70 454 OFFCURVE",
"70 340 CURVE SMOOTH",
"70 160 LINE SMOOTH",
"70 46 OFFCURVE",
"125 0 OFFCURVE",
"240 0 CURVE SMOOTH",
"253 0 LINE SMOOTH",
"317 0 OFFCURVE",
"352 14 OFFCURVE",
"380 39 CURVE",
"408 14 OFFCURVE",
"442 0 OFFCURVE",
"508 0 CURVE SMOOTH"
);
},
{
closed = 1;
nodes = (
"338 140 LINE SMOOTH",
"338 100 OFFCURVE",
"313 75 OFFCURVE",
"263 75 CURVE SMOOTH",
"230 75 LINE SMOOTH",
"180 75 OFFCURVE",
"155 100 OFFCURVE",
"155 140 CURVE SMOOTH",
"155 360 LINE SMOOTH",
"155 400 OFFCURVE",
"180 425 OFFCURVE",
"230 425 CURVE SMOOTH",
"263 425 LINE SMOOTH",
"313 425 OFFCURVE",
"338 400 OFFCURVE",
"338 360 CURVE SMOOTH"
);
},
{
closed = 1;
nodes = (
"423 360 LINE SMOOTH",
"423 400 OFFCURVE",
"438 425 OFFCURVE",
"488 425 CURVE SMOOTH",
"526 425 LINE SMOOTH",
"561 425 OFFCURVE",
"586 400 OFFCURVE",
"586 365 CURVE SMOOTH",
"586 290 LINE",
"423 290 LINE"
);
}
);
width = 734;
}
);
unicode = 0153;
},
{
glyphname = p;
lastChange = "2016-08-31 13:14:00 +0000";
layers = (
{
hints = (
{
place = "{80, 85}";
},
{
place = "{341, 85}";
},
{
horizontal = 1;
place = "{-170, 21}";
target = up;
type = BottomGhost;
},
{
horizontal = 1;
place = "{0, 75}";
},
{
horizontal = 1;
place = "{425, 75}";
}
);
layerId = UUID0;
paths = (
{
closed = 1;
nodes = (
"165 -170 LINE",
"165 0 LINE",
"256 0 LINE SMOOTH",
"371 0 OFFCURVE",
"426 46 OFFCURVE",
"426 160 CURVE SMOOTH",
"426 340 LINE SMOOTH",
"426 455 OFFCURVE",
"371 500 OFFCURVE",
"256 500 CURVE SMOOTH",
"240 500 LINE SMOOTH",
"210 500 OFFCURVE",
"182 493 OFFCURVE",
"160 476 CURVE",
"160 500 LINE",
"80 500 LINE",
"80 -170 LINE"
);
},
{
closed = 1;
nodes = (
"230 425 LINE",
"266 425 LINE SMOOTH",
"316 425 OFFCURVE",
"341 400 OFFCURVE",
"341 360 CURVE SMOOTH",
"341 140 LINE SMOOTH",
"341 100 OFFCURVE",
"316 75 OFFCURVE",
"266 75 CURVE SMOOTH",
"165 75 LINE",
"165 370 LINE SMOOTH",
"165 390 OFFCURVE",
"180 425 OFFCURVE",
"230 425 CURVE"
);
}
);
width = 496;
}
);
unicode = 0070;
},
{
glyphname = thorn;
lastChange = "2016-08-31 13:14:00 +0000";
layers = (
{
hints = (
{
place = "{80, 85}";
},
{
place = "{341, 85}";
},
{
horizontal = 1;
place = "{-170, 21}";
target = up;
type = BottomGhost;
},
{
horizontal = 1;
place = "{0, 75}";
},
{
horizontal = 1;
place = "{425, 75}";
},
{
horizontal = 1;
place = "{700, -20}";
target = down;
type = TopGhost;
}
);
layerId = UUID0;
paths = (
{
closed = 1;
nodes = (
"165 -170 LINE",
"165 700 LINE",
"80 700 LINE",
"80 -170 LINE"
);
},
{
closed = 1;
nodes = (
"426 160 LINE",
"426 340 LINE SMOOTH",
"426 455 OFFCURVE",
"371 500 OFFCURVE",
"256 500 CURVE SMOOTH",
"240 500 LINE SMOOTH",
"180 500 OFFCURVE",
"131 471 OFFCURVE",
"108 399 CURVE",
"165 370 LINE",
"165 390 OFFCURVE",
"180 425 OFFCURVE",
"230 425 CURVE SMOOTH",
"266 425 LINE SMOOTH",
"316 425 OFFCURVE",
"341 400 OFFCURVE",
"341 360 CURVE SMOOTH",
"341 140 LINE SMOOTH",
"341 100 OFFCURVE",
"316 75 OFFCURVE",
"266 75 CURVE SMOOTH",
"135 75 LINE",
"135 0 LINE",
"256 0 LINE SMOOTH",
"371 0 OFFCURVE",
"426 46 OFFCURVE",
"426 160 CURVE"
);
}
);
width = 504;
}
);
unicode = 00FE;
},
{
glyphname = q;
lastChange = "2016-08-31 13:14:00 +0000";
layers = (
{
hints = (
{
place = "{70, 85}";
},
{
place = "{336, 85}";
},
{
horizontal = 1;
place = "{-170, 21}";
target = up;
type = BottomGhost;
},
{
horizontal = 1;
place = "{0, 75}";
},
{
horizontal = 1;
place = "{425, 75}";
}
);
layerId = UUID0;
paths = (
{
closed = 1;
nodes = (
"421 -170 LINE",
"421 500 LINE",
"240 500 LINE SMOOTH",
"125 500 OFFCURVE",
"70 454 OFFCURVE",
"70 340 CURVE SMOOTH",
"70 160 LINE SMOOTH",
"70 45 OFFCURVE",
"125 0 OFFCURVE",
"240 0 CURVE SMOOTH",
"261 0 LINE SMOOTH",
"289 0 OFFCURVE",
"314 6 OFFCURVE",
"336 20 CURVE",
"336 -170 LINE"
);
},
{
closed = 1;
nodes = (
"271 75 LINE",
"230 75 LINE SMOOTH",
"180 75 OFFCURVE",
"155 100 OFFCURVE",
"155 140 CURVE SMOOTH",
"155 360 LINE SMOOTH",
"155 400 OFFCURVE",
"180 425 OFFCURVE",
"230 425 CURVE SMOOTH",
"336 425 LINE",
"336 130 LINE SMOOTH",
"336 110 OFFCURVE",
"321 75 OFFCURVE",
"271 75 CURVE"
);
}
);
width = 501;
}
);
unicode = 0071;
},
{
glyphname = r;
lastChange = "2016-08-31 13:14:00 +0000";
layers = (
{
hints = (
{
place = "{80, 85}";
},
{
horizontal = 1;
place = "{0, 21}";
target = up;
type = BottomGhost;
},
{
horizontal = 1;
place = "{420, 80}";
}
);
layerId = UUID0;
paths = (
{
closed = 1;
nodes = (
"165 0 LINE",
"165 355 LINE SMOOTH",
"165 375 OFFCURVE",
"180 420 OFFCURVE",
"230 420 CURVE SMOOTH",
"313 420 LINE",
"313 500 LINE",
"240 500 LINE SMOOTH",
"208 500 OFFCURVE",
"182 491 OFFCURVE",
"160 473 CURVE",
"160 500 LINE",
"80 500 LINE",
"80 0 LINE"
);
}
);
width = 333;
}
);
unicode = 0072;
},
{
glyphname = s;
lastChange = "2016-08-31 13:14:00 +0000";
layers = (
{
hints = (
{
place = "{60, 85}";
},
{
place = "{259, 85}";
},
{
horizontal = 1;
place = "{0, 75}";
},
{
horizontal = 1;
place = "{218, 81}";
},
{
horizontal = 1;
place = "{425, 75}";
}
);
layerId = UUID0;
paths = (
{
closed = 1;
nodes = (
"344 125 LINE",
"344 170 LINE SMOOTH",
"344 255 OFFCURVE",
"296 299 OFFCURVE",
"207 299 CURVE SMOOTH",
"193 299 LINE SMOOTH",
"168 299 OFFCURVE",
"145 312 OFFCURVE",
"145 344 CURVE SMOOTH",
"145 380 LINE SMOOTH",
"145 410 OFFCURVE",
"168 425 OFFCURVE",
"200 425 CURVE SMOOTH",
"324 425 LINE",
"324 500 LINE",
"210 500 LINE SMOOTH",
"115 500 OFFCURVE",
"60 467 OFFCURVE",
"60 374 CURVE SMOOTH",
"60 345 LINE SMOOTH",
"60 255 OFFCURVE",
"107 218 OFFCURVE",
"199 218 CURVE SMOOTH",
"216 218 LINE SMOOTH",
"244 218 OFFCURVE",
"259 203 OFFCURVE",
"259 173 CURVE SMOOTH",
"259 120 LINE SMOOTH",
"259 90 OFFCURVE",
"239 75 OFFCURVE",
"204 75 CURVE SMOOTH",
"65 75 LINE",
"65 0 LINE",
"194 0 LINE SMOOTH",
"289 0 OFFCURVE",
"344 39 OFFCURVE",
"344 125 CURVE"
);
}
);
width = 399;
}
);
unicode = 0073;
},
{
glyphname = scaron;
lastChange = "2016-08-31 13:14:00 +0000";
layers = (
{
hints = (
{
place = "{60, 85}";
},
{
place = "{259, 85}";
},
{
horizontal = 1;
place = "{0, 75}";
},
{
horizontal = 1;
place = "{218, 81}";
},
{
horizontal = 1;
place = "{425, 75}";
},
{
horizontal = 1;
place = "{714, -20}";
target = down;
type = TopGhost;
}
);
layerId = UUID0;
paths = (
{
closed = 1;
nodes = (
"344 125 LINE",
"344 170 LINE SMOOTH",
"344 255 OFFCURVE",
"296 299 OFFCURVE",
"207 299 CURVE SMOOTH",
"193 299 LINE SMOOTH",
"168 299 OFFCURVE",
"145 312 OFFCURVE",
"145 344 CURVE SMOOTH",
"145 380 LINE SMOOTH",
"145 410 OFFCURVE",
"168 425 OFFCURVE",
"200 425 CURVE SMOOTH",
"324 425 LINE",
"324 500 LINE",
"210 500 LINE SMOOTH",
"115 500 OFFCURVE",
"60 467 OFFCURVE",
"60 374 CURVE SMOOTH",
"60 345 LINE SMOOTH",
"60 255 OFFCURVE",
"107 218 OFFCURVE",
"199 218 CURVE SMOOTH",
"216 218 LINE SMOOTH",
"244 218 OFFCURVE",
"259 203 OFFCURVE",
"259 173 CURVE SMOOTH",
"259 120 LINE SMOOTH",
"259 90 OFFCURVE",
"239 75 OFFCURVE",
"204 75 CURVE SMOOTH",
"65 75 LINE",
"65 0 LINE",
"194 0 LINE SMOOTH",
"289 0 OFFCURVE",
"344 39 OFFCURVE",
"344 125 CURVE"
);
},
{
closed = 1;
nodes = (
"55 714 LINE",
"168 579 LINE",
"256 579 LINE",
"368 714 LINE",
"272 714 LINE",
"212 639 LINE",
"152 714 LINE"
);
}
);
width = 399;
}
);
unicode = 0161;
},
{
glyphname = germandbls;
lastChange = "2016-08-31 13:14:00 +0000";
layers = (
{
hints = (
{
place = "{80, 85}";
},
{
place = "{208, 85}";
},
{
place = "{341, 85}";
},
{
place = "{370, 85}";
},
{
horizontal = 1;
place = "{0, 75}";
},
{
horizontal = 1;
place = "{235, 75}";
},
{
horizontal = 1;
place = "{415, 71}";
},
{
horizontal = 1;
place = "{625, 75}";
}
);
layerId = UUID0;
paths = (
{
closed = 1;
nodes = (
"165 0 LINE",
"165 570 LINE SMOOTH",
"165 590 OFFCURVE",
"175 625 OFFCURVE",
"225 625 CURVE SMOOTH",
"266 625 LINE SMOOTH",
"316 625 OFFCURVE",
"341 600 OFFCURVE",
"341 560 CURVE SMOOTH",
"341 486 LINE",
"261 482 OFFCURVE",
"208 456 OFFCURVE",
"208 366 CURVE SMOOTH",
"208 356 LINE SMOOTH",
"208 282 OFFCURVE",
"257 235 OFFCURVE",
"324 235 CURVE SMOOTH",
"359 235 OFFCURVE",
"370 217 OFFCURVE",
"370 190 CURVE SMOOTH",
"370 120 LINE SMOOTH",
"370 90 OFFCURVE",
"353 75 OFFCURVE",
"323 75 CURVE SMOOTH",
"218 75 LINE",
"218 0 LINE",
"317 0 LINE SMOOTH",
"412 0 OFFCURVE",
"455 55 OFFCURVE",
"455 125 CURVE SMOOTH",
"455 190 LINE SMOOTH",
"455 264 OFFCURVE",
"410 310 OFFCURVE",
"336 310 CURVE SMOOTH",
"311 310 OFFCURVE",
"293 323 OFFCURVE",
"293 355 CURVE SMOOTH",
"293 370 LINE SMOOTH",
"293 400 OFFCURVE",
"307 415 OFFCURVE",
"348 415 CURVE SMOOTH",
"426 415 LINE",
"426 540 LINE SMOOTH",
"426 655 OFFCURVE",
"371 700 OFFCURVE",
"256 700 CURVE SMOOTH",
"230 700 LINE SMOOTH",
"152 700 OFFCURVE",
"80 660 OFFCURVE",
"80 560 CURVE SMOOTH",
"80 0 LINE"
);
}
);
width = 519;
}
);
unicode = 00DF;
},
{
glyphname = t;
lastChange = "2016-08-31 13:14:00 +0000";
layers = (
{
hints = (
{
place = "{85, 85}";
},
{
horizontal = 1;
place = "{0, 75}";
},
{
horizontal = 1;
place = "{425, 75}";
},
{
horizontal = 1;
place = "{620, -20}";
target = down;
type = TopGhost;
}
);
layerId = UUID0;
paths = (
{
closed = 1;
nodes = (
"286 0 LINE",
"286 75 LINE",
"215 75 LINE SMOOTH",
"185 75 OFFCURVE",
"170 85 OFFCURVE",
"170 115 CURVE SMOOTH",
"170 425 LINE",
"286 425 LINE",
"286 500 LINE",
"170 500 LINE",
"170 620 LINE",
"85 620 LINE",
"85 500 LINE",
"20 500 LINE",
"20 425 LINE",
"85 425 LINE",
"85 120 LINE SMOOTH",
"85 50 OFFCURVE",
"120 0 OFFCURVE",
"190 0 CURVE SMOOTH"
);
}
);
width = 311;
}
);
unicode = 0074;
},
{
glyphname = u;
lastChange = "2016-08-31 13:14:00 +0000";
layers = (
{
hints = (
{
place = "{75, 85}";
},
{
place = "{324, 85}";
},
{
horizontal = 1;
place = "{0, 75}";
},
{
horizontal = 1;
place = "{500, -20}";
target = down;
type = TopGhost;
}
);
layerId = UUID0;
paths = (
{
closed = 1;
nodes = (
"409 0 LINE",
"409 500 LINE",
"324 500 LINE",
"324 127 LINE",
"322 106 OFFCURVE",
"306 75 OFFCURVE",
"259 75 CURVE SMOOTH",
"225 75 LINE SMOOTH",
"185 75 OFFCURVE",
"160 100 OFFCURVE",
"160 140 CURVE SMOOTH",
"160 500 LINE",
"75 500 LINE",
"75 160 LINE SMOOTH",
"75 45 OFFCURVE",
"130 0 OFFCURVE",
"235 0 CURVE SMOOTH",
"249 0 LINE SMOOTH",
"279 0 OFFCURVE",
"306 7 OFFCURVE",
"329 23 CURVE",
"329 0 LINE"
);
}
);
width = 489;
}
);
unicode = 0075;
},
{
glyphname = uacute;
lastChange = "2016-08-31 13:14:00 +0000";
layers = (
{
hints = (
{
place = "{75, 85}";
},
{
place = "{324, 85}";
},
{
horizontal = 1;
place = "{0, 75}";
},
{
horizontal = 1;
place = "{500, -20}";
target = down;
type = TopGhost;
},
{
horizontal = 1;
place = "{715, -20}";
target = down;
type = TopGhost;
}
);
layerId = UUID0;
paths = (
{
closed = 1;
nodes = (
"409 0 LINE",
"409 500 LINE",
"324 500 LINE",
"324 127 LINE",
"322 106 OFFCURVE",
"306 75 OFFCURVE",
"259 75 CURVE SMOOTH",
"225 75 LINE SMOOTH",
"185 75 OFFCURVE",
"160 100 OFFCURVE",
"160 140 CURVE SMOOTH",
"160 500 LINE",
"75 500 LINE",
"75 160 LINE SMOOTH",
"75 45 OFFCURVE",
"130 0 OFFCURVE",
"235 0 CURVE SMOOTH",
"249 0 LINE SMOOTH",
"279 0 OFFCURVE",
"306 7 OFFCURVE",
"329 23 CURVE",
"329 0 LINE"
);
},
{
closed = 1;
nodes = (
"250 580 LINE",
"377 715 LINE",
"268 715 LINE",
"164 580 LINE"
);
}
);
width = 489;
}
);
unicode = 00FA;
},
{
glyphname = ucircumflex;
lastChange = "2016-08-31 13:14:00 +0000";
layers = (
{
hints = (
{
place = "{75, 85}";
},
{
place = "{324, 85}";
},
{
horizontal = 1;
place = "{0, 75}";
},
{
horizontal = 1;
place = "{500, -20}";
target = down;
type = TopGhost;
},
{
horizontal = 1;
place = "{715, -20}";
target = down;
type = TopGhost;
}
);
layerId = UUID0;
paths = (
{
closed = 1;
nodes = (
"409 0 LINE",
"409 500 LINE",
"324 500 LINE",
"324 127 LINE",
"322 106 OFFCURVE",
"306 75 OFFCURVE",
"259 75 CURVE SMOOTH",
"225 75 LINE SMOOTH",
"185 75 OFFCURVE",
"160 100 OFFCURVE",
"160 140 CURVE SMOOTH",
"160 500 LINE",
"75 500 LINE",
"75 160 LINE SMOOTH",
"75 45 OFFCURVE",
"130 0 OFFCURVE",
"235 0 CURVE SMOOTH",
"249 0 LINE SMOOTH",
"279 0 OFFCURVE",
"306 7 OFFCURVE",
"329 23 CURVE",
"329 0 LINE"
);
},
{
closed = 1;
nodes = (
"400 580 LINE",
"287 715 LINE",
"199 715 LINE",
"87 580 LINE",
"183 580 LINE",
"243 655 LINE",
"303 580 LINE"
);
}
);
width = 489;
}
);
unicode = 00FB;
},
{
glyphname = udieresis;
lastChange = "2016-08-31 13:14:00 +0000";
layers = (
{
hints = (
{
place = "{75, 85}";
},
{
place = "{96, 85}";
},
{
place = "{296, 85}";
},
{
place = "{324, 85}";
},
{
horizontal = 1;
place = "{0, 75}";
},
{
horizontal = 1;
place = "{500, -20}";
target = down;
type = TopGhost;
},
{
horizontal = 1;
place = "{595, 80}";
}
);
layerId = UUID0;
paths = (
{
closed = 1;
nodes = (
"409 0 LINE",
"409 500 LINE",
"324 500 LINE",
"324 127 LINE",
"322 106 OFFCURVE",
"306 75 OFFCURVE",
"259 75 CURVE SMOOTH",
"225 75 LINE SMOOTH",
"185 75 OFFCURVE",
"160 100 OFFCURVE",
"160 140 CURVE SMOOTH",
"160 500 LINE",
"75 500 LINE",
"75 160 LINE SMOOTH",
"75 45 OFFCURVE",
"130 0 OFFCURVE",
"235 0 CURVE SMOOTH",
"249 0 LINE SMOOTH",
"279 0 OFFCURVE",
"306 7 OFFCURVE",
"329 23 CURVE",
"329 0 LINE"
);
},
{
closed = 1;
nodes = (
"381 595 LINE",
"381 675 LINE",
"296 675 LINE",
"296 595 LINE"
);
},
{
closed = 1;
nodes = (
"181 595 LINE",
"181 675 LINE",
"96 675 LINE",
"96 595 LINE"
);
}
);
width = 489;
}
);
unicode = 00FC;
},
{
glyphname = ugrave;
lastChange = "2016-08-31 13:14:00 +0000";
layers = (
{
hints = (
{
place = "{75, 85}";
},
{
place = "{324, 85}";
},
{
horizontal = 1;
place = "{0, 75}";
},
{
horizontal = 1;
place = "{500, -20}";
target = down;
type = TopGhost;
},
{
horizontal = 1;
place = "{715, -20}";
target = down;
type = TopGhost;
}
);
layerId = UUID0;
paths = (
{
closed = 1;
nodes = (
"409 0 LINE",
"409 500 LINE",
"324 500 LINE",
"324 127 LINE",
"322 106 OFFCURVE",
"306 75 OFFCURVE",
"259 75 CURVE SMOOTH",
"225 75 LINE SMOOTH",
"185 75 OFFCURVE",
"160 100 OFFCURVE",
"160 140 CURVE SMOOTH",
"160 500 LINE",
"75 500 LINE",
"75 160 LINE SMOOTH",
"75 45 OFFCURVE",
"130 0 OFFCURVE",
"235 0 CURVE SMOOTH",
"249 0 LINE SMOOTH",
"279 0 OFFCURVE",
"306 7 OFFCURVE",
"329 23 CURVE",
"329 0 LINE"
);
},
{
closed = 1;
nodes = (
"332 580 LINE",
"228 715 LINE",
"119 715 LINE",
"246 580 LINE"
);
}
);
width = 489;
}
);
unicode = 00F9;
},
{
glyphname = v;
lastChange = "2016-08-31 13:14:00 +0000";
layers = (
{
hints = (
{
horizontal = 1;
place = "{0, 21}";
target = up;
type = BottomGhost;
},
{
horizontal = 1;
place = "{500, -20}";
target = down;
type = TopGhost;
}
);
layerId = UUID0;
paths = (
{
closed = 1;
nodes = (
"427 500 LINE",
"339 500 LINE",
"234 71 LINE",
"126 500 LINE",
"35 500 LINE",
"170 0 LINE",
"293 0 LINE"
);
}
);
width = 462;
}
);
unicode = 0076;
},
{
glyphname = w;
lastChange = "2016-08-31 13:14:00 +0000";
layers = (
{
hints = (
{
horizontal = 1;
place = "{0, 21}";
target = up;
type = BottomGhost;
},
{
horizontal = 1;
place = "{500, -20}";
target = down;
type = TopGhost;
}
);
layerId = UUID0;
paths = (
{
closed = 1;
nodes = (
"630 500 LINE",
"547 500 LINE",
"466 64 LINE",
"383 410 LINE",
"298 410 LINE",
"209 64 LINE",
"128 500 LINE",
"40 500 LINE",
"140 0 LINE",
"268 0 LINE",
"337 271 LINE",
"400 0 LINE",
"531 0 LINE"
);
}
);
width = 670;
}
);
unicode = 0077;
},
{
glyphname = x;
lastChange = "2016-08-31 13:14:00 +0000";
layers = (
{
hints = (
{
horizontal = 1;
place = "{0, 21}";
target = up;
type = BottomGhost;
},
{
horizontal = 1;
place = "{500, -20}";
target = down;
type = TopGhost;
}
);
layerId = UUID0;
paths = (
{
closed = 1;
nodes = (
"429 0 LINE",
"281 262 LINE",
"416 500 LINE",
"323 500 LINE",
"236 335 LINE",
"150 500 LINE",
"52 500 LINE",
"185 258 LINE",
"40 0 LINE",
"134 0 LINE",
"234 185 LINE",
"329 0 LINE"
);
}
);
width = 464;
}
);
unicode = 0078;
},
{
glyphname = y;
lastChange = "2016-08-31 13:14:00 +0000";
layers = (
{
hints = (
{
horizontal = 1;
place = "{-175, 75}";
},
{
horizontal = 1;
place = "{0, 21}";
target = up;
type = BottomGhost;
},
{
horizontal = 1;
place = "{500, -20}";
target = down;
type = TopGhost;
}
);
layerId = UUID0;
paths = (
{
closed = 1;
nodes = (
"428 500 LINE",
"341 500 LINE",
"243 87 LINE",
"127 500 LINE",
"35 500 LINE",
"190 0 LINE",
"210 0 LINE",
"194 -55 LINE SMOOTH",
"186 -84 OFFCURVE",
"174 -100 OFFCURVE",
"154 -100 CURVE SMOOTH",
"134 -100 OFFCURVE",
"116 -98 OFFCURVE",
"102 -96 CURVE",
"102 -169 LINE",
"114 -171 OFFCURVE",
"138 -175 OFFCURVE",
"159 -175 CURVE SMOOTH",
"240 -175 OFFCURVE",
"262 -122 OFFCURVE",
"283 -44 CURVE SMOOTH"
);
}
);
width = 463;
}
);
unicode = 0079;
},
{
glyphname = yacute;
lastChange = "2016-08-31 13:14:00 +0000";
layers = (
{
hints = (
{
horizontal = 1;
place = "{-175, 75}";
},
{
horizontal = 1;
place = "{0, 21}";
target = up;
type = BottomGhost;
},
{
horizontal = 1;
place = "{500, -20}";
target = down;
type = TopGhost;
},
{
horizontal = 1;
place = "{715, -20}";
target = down;
type = TopGhost;
}
);
layerId = UUID0;
paths = (
{
closed = 1;
nodes = (
"428 500 LINE",
"341 500 LINE",
"243 87 LINE",
"127 500 LINE",
"35 500 LINE",
"190 0 LINE",
"210 0 LINE",
"194 -55 LINE SMOOTH",
"186 -84 OFFCURVE",
"174 -100 OFFCURVE",
"154 -100 CURVE SMOOTH",
"134 -100 OFFCURVE",
"116 -98 OFFCURVE",
"102 -96 CURVE",
"102 -169 LINE",
"114 -171 OFFCURVE",
"138 -175 OFFCURVE",
"159 -175 CURVE SMOOTH",
"240 -175 OFFCURVE",
"262 -122 OFFCURVE",
"283 -44 CURVE SMOOTH"
);
},
{
closed = 1;
nodes = (
"279 580 LINE",
"406 715 LINE",
"297 715 LINE",
"193 580 LINE"
);
}
);
width = 463;
}
);
unicode = 00FD;
},
{
glyphname = ydieresis;
lastChange = "2016-08-31 13:14:00 +0000";
layers = (
{
hints = (
{
place = "{90, 85}";
},
{
place = "{290, 85}";
},
{
horizontal = 1;
place = "{-175, 75}";
},
{
horizontal = 1;
place = "{0, 21}";
target = up;
type = BottomGhost;
},
{
horizontal = 1;
place = "{500, -20}";
target = down;
type = TopGhost;
},
{
horizontal = 1;
place = "{595, 80}";
}
);
layerId = UUID0;
paths = (
{
closed = 1;
nodes = (
"428 500 LINE",
"341 500 LINE",
"243 87 LINE",
"127 500 LINE",
"35 500 LINE",
"190 0 LINE",
"210 0 LINE",
"194 -55 LINE SMOOTH",
"186 -84 OFFCURVE",
"174 -100 OFFCURVE",
"154 -100 CURVE SMOOTH",
"134 -100 OFFCURVE",
"116 -98 OFFCURVE",
"102 -96 CURVE",
"102 -169 LINE",
"114 -171 OFFCURVE",
"138 -175 OFFCURVE",
"159 -175 CURVE SMOOTH",
"240 -175 OFFCURVE",
"262 -122 OFFCURVE",
"283 -44 CURVE SMOOTH"
);
},
{
closed = 1;
nodes = (
"375 595 LINE",
"375 675 LINE",
"290 675 LINE",
"290 595 LINE"
);
},
{
closed = 1;
nodes = (
"175 595 LINE",
"175 675 LINE",
"90 675 LINE",
"90 595 LINE"
);
}
);
width = 463;
}
);
unicode = 00FF;
},
{
glyphname = z;
lastChange = "2016-08-31 13:14:00 +0000";
layers = (
{
hints = (
{
horizontal = 1;
place = "{0, 74}";
},
{
horizontal = 1;
place = "{426, 74}";
}
);
layerId = UUID0;
paths = (
{
closed = 1;
nodes = (
"353 411 LINE",
"353 500 LINE",
"65 500 LINE",
"65 426 LINE",
"262 426 LINE",
"45 80 LINE",
"45 0 LINE",
"343 0 LINE",
"343 74 LINE",
"137 74 LINE"
);
}
);
width = 403;
}
);
unicode = 007A;
},
{
glyphname = zcaron;
lastChange = "2016-08-31 13:14:00 +0000";
layers = (
{
hints = (
{
horizontal = 1;
place = "{0, 74}";
},
{
horizontal = 1;
place = "{426, 74}";
},
{
horizontal = 1;
place = "{714, -20}";
target = down;
type = TopGhost;
}
);
layerId = UUID0;
paths = (
{
closed = 1;
nodes = (
"353 411 LINE",
"353 500 LINE",
"65 500 LINE",
"65 426 LINE",
"262 426 LINE",
"45 80 LINE",
"45 0 LINE",
"343 0 LINE",
"343 74 LINE",
"137 74 LINE"
);
},
{
closed = 1;
nodes = (
"60 714 LINE",
"173 579 LINE",
"261 579 LINE",
"373 714 LINE",
"277 714 LINE",
"217 639 LINE",
"157 714 LINE"
);
}
);
width = 403;
}
);
unicode = 017E;
},
{
glyphname = fi;
lastChange = "2016-08-31 13:14:00 +0000";
layers = (
{
hints = (
{
place = "{95, 85}";
},
{
place = "{350, 85}";
},
{
horizontal = 1;
place = "{0, 21}";
target = up;
type = BottomGhost;
},
{
horizontal = 1;
place = "{425, 75}";
},
{
horizontal = 1;
place = "{625, 75}";
}
);
layerId = UUID0;
paths = (
{
closed = 1;
nodes = (
"414 625 LINE",
"414 700 LINE",
"199 700 LINE SMOOTH",
"139 700 OFFCURVE",
"95 660 OFFCURVE",
"95 590 CURVE SMOOTH",
"95 500 LINE",
"30 500 LINE",
"30 425 LINE",
"95 425 LINE",
"95 0 LINE",
"180 0 LINE",
"180 425 LINE",
"350 425 LINE",
"350 0 LINE",
"435 0 LINE",
"435 500 LINE",
"180 500 LINE",
"180 595 LINE SMOOTH",
"180 612 OFFCURVE",
"193 625 OFFCURVE",
"215 625 CURVE SMOOTH"
);
}
);
width = 515;
}
);
unicode = FB01;
},
{
glyphname = fl;
lastChange = "2016-08-31 13:14:00 +0000";
layers = (
{
hints = (
{
place = "{95, 85}";
},
{
place = "{350, 85}";
},
{
horizontal = 1;
place = "{0, 75}";
},
{
horizontal = 1;
place = "{425, 75}";
},
{
horizontal = 1;
place = "{625, 75}";
}
);
layerId = UUID0;
paths = (
{
closed = 1;
nodes = (
"490 0 LINE",
"490 75 LINE",
"470 75 LINE SMOOTH",
"444 75 OFFCURVE",
"435 84 OFFCURVE",
"435 105 CURVE SMOOTH",
"435 700 LINE",
"199 700 LINE SMOOTH",
"139 700 OFFCURVE",
"95 660 OFFCURVE",
"95 590 CURVE SMOOTH",
"95 500 LINE",
"30 500 LINE",
"30 425 LINE",
"95 425 LINE",
"95 0 LINE",
"180 0 LINE",
"180 425 LINE",
"272 425 LINE",
"272 500 LINE",
"180 500 LINE",
"180 595 LINE SMOOTH",
"180 612 OFFCURVE",
"193 625 OFFCURVE",
"215 625 CURVE SMOOTH",
"350 625 LINE",
"350 100 LINE SMOOTH",
"350 24 OFFCURVE",
"396 0 OFFCURVE",
"435 0 CURVE SMOOTH"
);
}
);
width = 530;
}
);
unicode = FB02;
},
{
glyphname = ordfeminine;
lastChange = "2016-08-31 13:14:00 +0000";
layers = (
{
hints = (
{
place = "{48, 68}";
},
{
place = "{232, 68}";
},
{
horizontal = 1;
place = "{0, 75}";
},
{
horizontal = 1;
place = "{324, 53}";
},
{
horizontal = 1;
place = "{324, 59}";
},
{
horizontal = 1;
place = "{499, 58}";
},
{
horizontal = 1;
place = "{639, 61}";
}
);
layerId = UUID0;
paths = (
{
closed = 1;
nodes = (
"337 324 LINE",
"337 377 LINE",
"309 377 OFFCURVE",
"300 384 OFFCURVE",
"300 399 CURVE SMOOTH",
"300 580 LINE SMOOTH",
"300 665 OFFCURVE",
"258 700 OFFCURVE",
"172 700 CURVE SMOOTH",
"78 700 LINE",
"78 639 LINE",
"179 639 LINE SMOOTH",
"217 639 OFFCURVE",
"232 625 OFFCURVE",
"232 595 CURVE SMOOTH",
"232 557 LINE",
"158 557 LINE SMOOTH",
"83 557 OFFCURVE",
"48 516 OFFCURVE",
"48 441 CURVE SMOOTH",
"48 426 LINE SMOOTH",
"48 351 OFFCURVE",
"82 324 OFFCURVE",
"157 324 CURVE SMOOTH",
"209 324 LINE SMOOTH",
"227 324 OFFCURVE",
"242 332 OFFCURVE",
"252 344 CURVE",
"263 331 OFFCURVE",
"280 324 OFFCURVE",
"292 324 CURVE SMOOTH"
);
},
{
closed = 1;
nodes = (
"321 0 LINE",
"321 75 LINE",
"70 75 LINE",
"70 0 LINE"
);
},
{
closed = 1;
nodes = (
"197 383 LINE",
"153 383 LINE SMOOTH",
"127 383 OFFCURVE",
"116 396 OFFCURVE",
"116 422 CURVE SMOOTH",
"116 454 LINE SMOOTH",
"116 480 OFFCURVE",
"135 499 OFFCURVE",
"161 499 CURVE SMOOTH",
"232 499 LINE",
"232 420 LINE SMOOTH",
"232 405 OFFCURVE",
"232 383 OFFCURVE",
"197 383 CURVE"
);
}
);
width = 395;
}
);
unicode = 00AA;
},
{
glyphname = ordmasculine;
lastChange = "2016-08-31 13:14:00 +0000";
layers = (
{
hints = (
{
place = "{73, 68}";
},
{
place = "{270, 68}";
},
{
horizontal = 1;
place = "{0, 75}";
},
{
horizontal = 1;
place = "{326, 61}";
},
{
horizontal = 1;
place = "{641, 61}";
}
);
layerId = UUID0;
paths = (
{
closed = 1;
nodes = (
"346 0 LINE",
"346 75 LINE",
"70 75 LINE",
"70 0 LINE"
);
},
{
closed = 1;
nodes = (
"338 446 LINE",
"338 582 LINE SMOOTH",
"338 667 OFFCURVE",
"297 702 OFFCURVE",
"211 702 CURVE SMOOTH",
"201 702 LINE SMOOTH",
"114 702 OFFCURVE",
"73 667 OFFCURVE",
"73 582 CURVE SMOOTH",
"73 446 LINE SMOOTH",
"73 361 OFFCURVE",
"114 326 OFFCURVE",
"201 326 CURVE SMOOTH",
"211 326 LINE SMOOTH",
"297 326 OFFCURVE",
"338 361 OFFCURVE",
"338 446 CURVE"
);
},
{
closed = 1;
nodes = (
"270 435 LINE SMOOTH",
"270 405 OFFCURVE",
"252 387 OFFCURVE",
"214 387 CURVE SMOOTH",
"197 387 LINE SMOOTH",
"160 387 OFFCURVE",
"141 405 OFFCURVE",
"141 435 CURVE SMOOTH",
"141 593 LINE SMOOTH",
"141 623 OFFCURVE",
"160 641 OFFCURVE",
"197 641 CURVE SMOOTH",
"214 641 LINE SMOOTH",
"252 641 OFFCURVE",
"270 623 OFFCURVE",
"270 593 CURVE SMOOTH"
);
}
);
width = 416;
}
);
unicode = 00BA;
},
{
glyphname = uni03BC;
lastChange = "2016-08-31 13:14:00 +0000";
layers = (
{
hints = (
{
place = "{80, 85}";
},
{
place = "{329, 85}";
},
{
horizontal = 1;
place = "{-170, 21}";
target = up;
type = BottomGhost;
},
{
horizontal = 1;
place = "{0, 75}";
},
{
horizontal = 1;
place = "{500, -20}";
target = down;
type = TopGhost;
}
);
layerId = UUID0;
paths = (
{
closed = 1;
nodes = (
"165 -170 LINE",
"165 10 LINE",
"186 3 OFFCURVE",
"211 0 OFFCURVE",
"240 0 CURVE SMOOTH",
"254 0 LINE SMOOTH",
"284 0 OFFCURVE",
"311 7 OFFCURVE",
"334 23 CURVE",
"334 0 LINE",
"414 0 LINE",
"414 500 LINE",
"329 500 LINE",
"329 130 LINE SMOOTH",
"329 110 OFFCURVE",
"314 75 OFFCURVE",
"264 75 CURVE SMOOTH",
"230 75 LINE SMOOTH",
"190 75 OFFCURVE",
"165 100 OFFCURVE",
"165 140 CURVE SMOOTH",
"165 500 LINE",
"80 500 LINE",
"80 -170 LINE"
);
}
);
width = 494;
}
);
unicode = 03BC;
},
{
glyphname = pi;
lastChange = "2016-08-31 13:14:00 +0000";
layers = (
{
hints = (
{
place = "{124, 85}";
},
{
place = "{334, 85}";
},
{
horizontal = 1;
place = "{0, 75}";
},
{
horizontal = 1;
place = "{427, 73}";
}
);
layerId = UUID0;
paths = (
{
closed = 1;
nodes = (
"209 0 LINE",
"209 427 LINE",
"334 427 LINE",
"334 100 LINE SMOOTH",
"334 24 OFFCURVE",
"380 0 OFFCURVE",
"419 0 CURVE SMOOTH",
"469 0 LINE",
"469 75 LINE",
"454 75 LINE SMOOTH",
"428 75 OFFCURVE",
"419 84 OFFCURVE",
"419 105 CURVE SMOOTH",
"419 427 LINE",
"509 427 LINE",
"509 500 LINE",
"45 500 LINE",
"45 427 LINE",
"124 427 LINE",
"124 0 LINE"
);
}
);
width = 554;
}
);
unicode = 03C0;
},
{
glyphname = zero;
lastChange = "2016-08-31 13:14:00 +0000";
layers = (
{
hints = (
{
place = "{62, 85}";
},
{
place = "{323, 85}";
},
{
horizontal = 1;
place = "{0, 75}";
},
{
horizontal = 1;
place = "{625, 75}";
}
);
layerId = UUID0;
paths = (
{
closed = 1;
nodes = (
"408 170 LINE",
"408 530 LINE SMOOTH",
"408 645 OFFCURVE",
"340 700 OFFCURVE",
"240 700 CURVE SMOOTH",
"230 700 LINE SMOOTH",
"130 700 OFFCURVE",
"62 645 OFFCURVE",
"62 530 CURVE SMOOTH",
"62 170 LINE SMOOTH",
"62 56 OFFCURVE",
"130 0 OFFCURVE",
"230 0 CURVE SMOOTH",
"240 0 LINE SMOOTH",
"340 0 OFFCURVE",
"408 56 OFFCURVE",
"408 170 CURVE"
);
},
{
closed = 1;
nodes = (
"323 151 LINE SMOOTH",
"323 111 OFFCURVE",
"290 75 OFFCURVE",
"240 75 CURVE SMOOTH",
"230 75 LINE SMOOTH",
"180 75 OFFCURVE",
"147 111 OFFCURVE",
"147 151 CURVE SMOOTH",
"147 549 LINE SMOOTH",
"147 589 OFFCURVE",
"180 625 OFFCURVE",
"230 625 CURVE SMOOTH",
"240 625 LINE SMOOTH",
"290 625 OFFCURVE",
"323 589 OFFCURVE",
"323 549 CURVE SMOOTH"
);
}
);
width = 470;
}
);
unicode = 0030;
},
{
glyphname = one;
lastChange = "2016-08-31 13:14:00 +0000";
layers = (
{
hints = (
{
place = "{213, 85}";
},
{
horizontal = 1;
place = "{0, 75}";
},
{
horizontal = 1;
place = "{700, -20}";
target = down;
type = TopGhost;
}
);
layerId = UUID0;
paths = (
{
closed = 1;
nodes = (
"397 0 LINE",
"397 75 LINE",
"298 75 LINE",
"298 700 LINE",
"203 700 LINE",
"82 650 LINE",
"82 569 LINE",
"213 621 LINE",
"213 75 LINE",
"92 75 LINE",
"92 0 LINE"
);
}
);
width = 470;
}
);
unicode = 0031;
},
{
glyphname = two;
lastChange = "2016-08-31 13:14:00 +0000";
layers = (
{
hints = (
{
place = "{276, 87}";
},
{
horizontal = 1;
place = "{0, 76}";
},
{
horizontal = 1;
place = "{624, 76}";
}
);
layerId = UUID0;
paths = (
{
closed = 1;
nodes = (
"383 0 LINE",
"383 76 LINE",
"154 76 LINE",
"292 285 LINE SMOOTH",
"354 379 OFFCURVE",
"363 390 OFFCURVE",
"363 488 CURVE SMOOTH",
"363 530 LINE SMOOTH",
"363 644 OFFCURVE",
"298 700 OFFCURVE",
"183 700 CURVE SMOOTH",
"83 700 LINE",
"83 624 LINE",
"193 624 LINE SMOOTH",
"243 624 OFFCURVE",
"276 589 OFFCURVE",
"276 549 CURVE SMOOTH",
"276 479 LINE SMOOTH",
"276 409 OFFCURVE",
"270 402 OFFCURVE",
"213 316 CURVE SMOOTH",
"63 88 LINE",
"63 0 LINE"
);
}
);
width = 470;
}
);
unicode = 0032;
},
{
glyphname = three;
lastChange = "2016-08-31 13:14:00 +0000";
layers = (
{
hints = (
{
place = "{275, 87}";
},
{
place = "{285, 87}";
},
{
horizontal = 1;
place = "{0, 75}";
},
{
horizontal = 1;
place = "{323, 75}";
},
{
horizontal = 1;
place = "{625, 75}";
}
);
layerId = UUID0;
paths = (
{
closed = 1;
nodes = (
"372 158 LINE",
"372 242 LINE SMOOTH",
"372 302 OFFCURVE",
"349 342 OFFCURVE",
"307 365 CURVE",
"341 389 OFFCURVE",
"362 428 OFFCURVE",
"362 481 CURVE SMOOTH",
"362 544 LINE SMOOTH",
"362 654 OFFCURVE",
"300 700 OFFCURVE",
"190 700 CURVE SMOOTH",
"84 700 LINE",
"84 625 LINE",
"202 625 LINE SMOOTH",
"252 625 OFFCURVE",
"275 604 OFFCURVE",
"275 553 CURVE SMOOTH",
"275 471 LINE SMOOTH",
"275 426 OFFCURVE",
"242 398 OFFCURVE",
"202 398 CURVE SMOOTH",
"115 398 LINE",
"115 323 LINE",
"212 323 LINE SMOOTH",
"255 323 OFFCURVE",
"285 295 OFFCURVE",
"285 251 CURVE SMOOTH",
"285 148 LINE SMOOTH",
"285 97 OFFCURVE",
"262 75 OFFCURVE",
"211 75 CURVE SMOOTH",
"84 75 LINE",
"84 0 LINE",
"202 0 LINE SMOOTH",
"322 0 OFFCURVE",
"372 48 OFFCURVE",
"372 158 CURVE"
);
}
);
width = 470;
}
);
unicode = 0033;
},
{
glyphname = four;
lastChange = "2016-08-31 13:14:00 +0000";
layers = (
{
hints = (
{
place = "{267, 85}";
},
{
horizontal = 1;
place = "{0, 21}";
target = up;
type = BottomGhost;
},
{
horizontal = 1;
place = "{156, 73}";
},
{
horizontal = 1;
place = "{700, -20}";
target = down;
type = TopGhost;
}
);
layerId = UUID0;
paths = (
{
closed = 1;
nodes = (
"422 156 LINE",
"422 229 LINE",
"352 229 LINE",
"352 457 LINE",
"267 457 LINE",
"267 229 LINE",
"155 229 LINE",
"249 700 LINE",
"168 700 LINE",
"69 242 LINE",
"69 156 LINE",
"267 156 LINE",
"267 0 LINE",
"352 0 LINE",
"352 156 LINE"
);
}
);
width = 470;
}
);
unicode = 0034;
},
{
glyphname = five;
lastChange = "2016-08-31 13:14:00 +0000";
layers = (
{
hints = (
{
place = "{93, 85}";
},
{
place = "{287, 87}";
},
{
horizontal = 1;
place = "{0, 75}";
},
{
horizontal = 1;
place = "{347, 75}";
},
{
horizontal = 1;
place = "{625, 75}";
}
);
layerId = UUID0;
paths = (
{
closed = 1;
nodes = (
"374 158 LINE",
"374 266 LINE SMOOTH",
"374 377 OFFCURVE",
"306 422 OFFCURVE",
"209 422 CURVE SMOOTH",
"178 422 LINE",
"178 625 LINE",
"359 625 LINE",
"359 700 LINE",
"93 700 LINE",
"93 347 LINE",
"214 347 LINE SMOOTH",
"257 347 OFFCURVE",
"287 319 OFFCURVE",
"287 275 CURVE SMOOTH",
"287 148 LINE SMOOTH",
"287 97 OFFCURVE",
"264 75 OFFCURVE",
"213 75 CURVE SMOOTH",
"83 75 LINE",
"83 0 LINE",
"204 0 LINE SMOOTH",
"324 0 OFFCURVE",
"374 48 OFFCURVE",
"374 158 CURVE"
);
}
);
width = 470;
}
);
unicode = 0035;
},
{
glyphname = six;
lastChange = "2016-08-31 13:14:00 +0000";
layers = (
{
hints = (
{
place = "{64, 85}";
},
{
place = "{320, 85}";
},
{
horizontal = 1;
place = "{0, 75}";
},
{
horizontal = 1;
place = "{365, 75}";
},
{
horizontal = 1;
place = "{624, 76}";
}
);
layerId = UUID0;
paths = (
{
closed = 1;
nodes = (
"405 170 LINE",
"405 280 LINE SMOOTH",
"405 394 OFFCURVE",
"350 440 OFFCURVE",
"237 440 CURVE SMOOTH",
"149 440 LINE",
"149 549 LINE SMOOTH",
"149 589 OFFCURVE",
"182 624 OFFCURVE",
"232 624 CURVE SMOOTH",
"357 624 LINE",
"357 700 LINE",
"242 700 LINE SMOOTH",
"127 700 OFFCURVE",
"64 644 OFFCURVE",
"64 530 CURVE SMOOTH",
"64 170 LINE SMOOTH",
"64 56 OFFCURVE",
"137 0 OFFCURVE",
"222 0 CURVE SMOOTH",
"247 0 LINE SMOOTH",
"332 0 OFFCURVE",
"405 56 OFFCURVE",
"405 170 CURVE"
);
},
{
closed = 1;
nodes = (
"247 365 LINE SMOOTH",
"297 365 OFFCURVE",
"320 339 OFFCURVE",
"320 299 CURVE SMOOTH",
"320 151 LINE SMOOTH",
"320 111 OFFCURVE",
"292 75 OFFCURVE",
"242 75 CURVE SMOOTH",
"227 75 LINE SMOOTH",
"177 75 OFFCURVE",
"149 111 OFFCURVE",
"149 151 CURVE SMOOTH",
"149 365 LINE"
);
}
);
width = 470;
}
);
unicode = 0036;
},
{
glyphname = seven;
lastChange = "2016-08-31 13:14:00 +0000";
layers = (
{
hints = (
{
horizontal = 1;
place = "{0, 21}";
target = up;
type = BottomGhost;
},
{
horizontal = 1;
place = "{625, 75}";
}
);
layerId = UUID0;
paths = (
{
closed = 1;
nodes = (
"373 603 LINE",
"373 700 LINE",
"68 700 LINE",
"68 625 LINE",
"290 625 LINE",
"123 0 LINE",
"212 0 LINE"
);
}
);
width = 470;
}
);
unicode = 0037;
},
{
glyphname = eight;
lastChange = "2016-08-31 13:14:00 +0000";
layers = (
{
hints = (
{
place = "{56, 87}";
},
{
place = "{68, 87}";
},
{
place = "{315, 87}";
},
{
place = "{327, 87}";
},
{
horizontal = 1;
place = "{0, 75}";
},
{
horizontal = 1;
place = "{323, 75}";
},
{
horizontal = 1;
place = "{625, 75}";
}
);
layerId = UUID0;
paths = (
{
closed = 1;
nodes = (
"414 158 LINE",
"414 242 LINE SMOOTH",
"414 302 OFFCURVE",
"391 342 OFFCURVE",
"349 365 CURVE",
"383 389 OFFCURVE",
"402 428 OFFCURVE",
"402 481 CURVE SMOOTH",
"402 544 LINE SMOOTH",
"402 654 OFFCURVE",
"340 700 OFFCURVE",
"240 700 CURVE SMOOTH",
"230 700 LINE SMOOTH",
"130 700 OFFCURVE",
"68 654 OFFCURVE",
"68 544 CURVE SMOOTH",
"68 481 LINE SMOOTH",
"68 428 OFFCURVE",
"87 389 OFFCURVE",
"121 365 CURVE",
"79 342 OFFCURVE",
"56 302 OFFCURVE",
"56 242 CURVE SMOOTH",
"56 158 LINE SMOOTH",
"56 48 OFFCURVE",
"106 0 OFFCURVE",
"226 0 CURVE SMOOTH",
"244 0 LINE SMOOTH",
"364 0 OFFCURVE",
"414 48 OFFCURVE",
"414 158 CURVE"
);
},
{
closed = 1;
nodes = (
"327 251 LINE",
"327 148 LINE SMOOTH",
"327 97 OFFCURVE",
"304 75 OFFCURVE",
"253 75 CURVE SMOOTH",
"209 75 LINE SMOOTH",
"163 75 OFFCURVE",
"143 99 OFFCURVE",
"143 148 CURVE SMOOTH",
"143 251 LINE SMOOTH",
"143 295 OFFCURVE",
"173 323 OFFCURVE",
"216 323 CURVE SMOOTH",
"254 323 LINE SMOOTH",
"297 323 OFFCURVE",
"327 295 OFFCURVE",
"327 251 CURVE"
);
},
{
closed = 1;
nodes = (
"244 625 LINE SMOOTH",
"294 625 OFFCURVE",
"315 604 OFFCURVE",
"315 553 CURVE SMOOTH",
"315 471 LINE SMOOTH",
"315 426 OFFCURVE",
"284 398 OFFCURVE",
"244 398 CURVE SMOOTH",
"220 398 LINE",
"183 400 OFFCURVE",
"155 428 OFFCURVE",
"155 471 CURVE SMOOTH",
"155 553 LINE SMOOTH",
"155 600 OFFCURVE",
"173 625 OFFCURVE",
"218 625 CURVE SMOOTH"
);
}
);
width = 470;
}
);
unicode = 0038;
},
{
glyphname = nine;
lastChange = "2016-08-31 13:14:00 +0000";
layers = (
{
hints = (
{
place = "{65, 85}";
},
{
place = "{321, 85}";
},
{
horizontal = 1;
place = "{0, 76}";
},
{
horizontal = 1;
place = "{260, 75}";
},
{
horizontal = 1;
place = "{625, 75}";
}
);
layerId = UUID0;
paths = (
{
closed = 1;
nodes = (
"65 530 LINE",
"65 420 LINE SMOOTH",
"65 306 OFFCURVE",
"120 260 OFFCURVE",
"233 260 CURVE SMOOTH",
"321 260 LINE",
"321 151 LINE SMOOTH",
"321 111 OFFCURVE",
"288 76 OFFCURVE",
"238 76 CURVE SMOOTH",
"123 76 LINE",
"123 0 LINE",
"228 0 LINE SMOOTH",
"343 0 OFFCURVE",
"406 56 OFFCURVE",
"406 170 CURVE SMOOTH",
"406 530 LINE SMOOTH",
"406 644 OFFCURVE",
"333 700 OFFCURVE",
"248 700 CURVE SMOOTH",
"223 700 LINE SMOOTH",
"138 700 OFFCURVE",
"65 644 OFFCURVE",
"65 530 CURVE"
);
},
{
closed = 1;
nodes = (
"223 335 LINE SMOOTH",
"173 335 OFFCURVE",
"150 361 OFFCURVE",
"150 401 CURVE SMOOTH",
"150 549 LINE SMOOTH",
"150 589 OFFCURVE",
"178 625 OFFCURVE",
"228 625 CURVE SMOOTH",
"243 625 LINE SMOOTH",
"293 625 OFFCURVE",
"321 589 OFFCURVE",
"321 549 CURVE SMOOTH",
"321 335 LINE"
);
}
);
width = 470;
}
);
unicode = 0039;
},
{
glyphname = onesuperior;
lastChange = "2016-08-31 13:14:00 +0000";
layers = (
{
hints = (
{
place = "{193, 74}";
},
{
horizontal = 1;
place = "{205, 64}";
},
{
horizontal = 1;
place = "{700, -20}";
target = down;
type = TopGhost;
}
);
layerId = UUID0;
paths = (
{
closed = 1;
nodes = (
"341 205 LINE",
"341 269 LINE",
"267 269 LINE",
"267 700 LINE",
"185 700 LINE",
"94 662 LINE",
"94 594 LINE",
"193 633 LINE",
"193 269 LINE",
"102 269 LINE",
"102 205 LINE"
);
}
);
width = 410;
}
);
unicode = 00B9;
},
{
glyphname = twosuperior;
lastChange = "2016-08-31 13:14:00 +0000";
layers = (
{
hints = (
{
place = "{249, 73}";
},
{
horizontal = 1;
place = "{205, 64}";
},
{
horizontal = 1;
place = "{636, 64}";
}
);
layerId = UUID0;
paths = (
{
closed = 1;
nodes = (
"327 205 LINE",
"327 269 LINE",
"165 269 LINE",
"268 408 LINE SMOOTH",
"308 462 OFFCURVE",
"322 479 OFFCURVE",
"322 558 CURVE SMOOTH",
"322 581 LINE SMOOTH",
"322 663 OFFCURVE",
"281 700 OFFCURVE",
"181 700 CURVE SMOOTH",
"102 700 LINE",
"102 636 LINE",
"188 636 LINE SMOOTH",
"232 636 OFFCURVE",
"249 617 OFFCURVE",
"249 587 CURVE SMOOTH",
"249 551 LINE SMOOTH",
"249 499 OFFCURVE",
"241 488 OFFCURVE",
"199 431 CURVE SMOOTH",
"87 278 LINE",
"87 205 LINE"
);
}
);
width = 410;
}
);
unicode = 00B2;
},
{
glyphname = threesuperior;
lastChange = "2016-08-31 13:14:00 +0000";
layers = (
{
hints = (
{
place = "{235, 75}";
},
{
place = "{243, 74}";
},
{
horizontal = 1;
place = "{205, 64}";
},
{
horizontal = 1;
place = "{426, 64}";
},
{
horizontal = 1;
place = "{636, 64}";
}
);
layerId = UUID0;
paths = (
{
closed = 1;
nodes = (
"317 324 LINE",
"317 369 LINE SMOOTH",
"317 414 OFFCURVE",
"298 444 OFFCURVE",
"266 461 CURVE",
"292 479 OFFCURVE",
"310 509 OFFCURVE",
"310 548 CURVE SMOOTH",
"310 583 LINE SMOOTH",
"310 665 OFFCURVE",
"264 700 OFFCURVE",
"181 700 CURVE SMOOTH",
"94 700 LINE",
"94 636 LINE",
"180 636 LINE SMOOTH",
"218 636 OFFCURVE",
"235 623 OFFCURVE",
"235 584 CURVE SMOOTH",
"235 542 LINE SMOOTH",
"235 508 OFFCURVE",
"211 490 OFFCURVE",
"180 490 CURVE SMOOTH",
"117 490 LINE",
"117 426 LINE",
"188 426 LINE SMOOTH",
"220 426 OFFCURVE",
"243 407 OFFCURVE",
"243 374 CURVE SMOOTH",
"243 319 LINE SMOOTH",
"243 281 OFFCURVE",
"222 269 OFFCURVE",
"187 269 CURVE SMOOTH",
"94 269 LINE",
"94 205 LINE",
"190 205 LINE SMOOTH",
"281 205 OFFCURVE",
"317 241 OFFCURVE",
"317 324 CURVE"
);
}
);
width = 410;
}
);
unicode = 00B3;
},
{
glyphname = fraction;
lastChange = "2016-08-31 13:14:00 +0000";
layers = (
{
hints = (
{
horizontal = 1;
place = "{-100, 21}";
target = up;
type = BottomGhost;
},
{
horizontal = 1;
place = "{810, -20}";
target = down;
type = TopGhost;
}
);
layerId = UUID0;
paths = (
{
closed = 1;
nodes = (
"315 810 LINE",
"235 810 LINE",
"-85 -100 LINE",
"-5 -100 LINE"
);
}
);
width = 230;
}
);
unicode = 2044;
},
{
glyphname = onehalf;
lastChange = "2016-08-31 13:14:00 +0000";
layers = (
{
hints = (
{
place = "{183, 74}";
},
{
place = "{743, 73}";
},
{
horizontal = 1;
place = "{-100, 21}";
target = up;
type = BottomGhost;
},
{
horizontal = 1;
place = "{0, 64}";
},
{
horizontal = 1;
place = "{205, 64}";
},
{
horizontal = 1;
place = "{431, 64}";
},
{
horizontal = 1;
place = "{700, -20}";
target = down;
type = TopGhost;
},
{
horizontal = 1;
place = "{810, -20}";
target = down;
type = TopGhost;
}
);
layerId = UUID0;
paths = (
{
closed = 1;
nodes = (
"331 205 LINE",
"331 269 LINE",
"257 269 LINE",
"257 700 LINE",
"175 700 LINE",
"84 662 LINE",
"84 594 LINE",
"183 633 LINE",
"183 269 LINE",
"92 269 LINE",
"92 205 LINE"
);
},
{
closed = 1;
nodes = (
"821 0 LINE",
"821 64 LINE",
"659 64 LINE",
"762 203 LINE SMOOTH",
"802 257 OFFCURVE",
"816 274 OFFCURVE",
"816 353 CURVE SMOOTH",
"816 376 LINE SMOOTH",
"816 458 OFFCURVE",
"775 495 OFFCURVE",
"675 495 CURVE SMOOTH",
"596 495 LINE",
"596 431 LINE",
"682 431 LINE SMOOTH",
"726 431 OFFCURVE",
"743 412 OFFCURVE",
"743 382 CURVE SMOOTH",
"743 346 LINE SMOOTH",
"743 294 OFFCURVE",
"735 283 OFFCURVE",
"693 226 CURVE SMOOTH",
"581 73 LINE",
"581 0 LINE"
);
},
{
closed = 1;
nodes = (
"651 810 LINE",
"581 810 LINE",
"251 -100 LINE",
"331 -100 LINE"
);
}
);
width = 875;
}
);
unicode = 00BD;
},
{
glyphname = onequarter;
lastChange = "2016-08-31 13:14:00 +0000";
layers = (
{
hints = (
{
place = "{183, 74}";
},
{
place = "{664, 71}";
},
{
horizontal = 1;
place = "{-100, 21}";
target = up;
type = BottomGhost;
},
{
horizontal = 1;
place = "{0, 21}";
target = up;
type = BottomGhost;
},
{
horizontal = 1;
place = "{117, 64}";
},
{
horizontal = 1;
place = "{205, 64}";
},
{
horizontal = 1;
place = "{700, -20}";
target = down;
type = TopGhost;
},
{
horizontal = 1;
place = "{810, -20}";
target = down;
type = TopGhost;
}
);
layerId = UUID0;
paths = (
{
closed = 1;
nodes = (
"331 205 LINE",
"331 269 LINE",
"257 269 LINE",
"257 700 LINE",
"175 700 LINE",
"84 662 LINE",
"84 594 LINE",
"183 633 LINE",
"183 269 LINE",
"92 269 LINE",
"92 205 LINE"
);
},
{
closed = 1;
nodes = (
"785 117 LINE",
"785 181 LINE",
"735 181 LINE",
"735 324 LINE",
"668 324 LINE",
"661 181 LINE",
"584 181 LINE",
"657 495 LINE",
"588 495 LINE",
"514 191 LINE",
"514 117 LINE",
"661 117 LINE",
"661 0 LINE",
"735 0 LINE",
"735 117 LINE"
);
},
{
closed = 1;
nodes = (
"646 810 LINE",
"566 810 LINE",
"246 -100 LINE",
"326 -100 LINE"
);
}
);
width = 875;
}
);
unicode = 00BC;
},
{
glyphname = threequarters;
lastChange = "2016-08-31 13:14:00 +0000";
layers = (
{
hints = (
{
place = "{242, 75}";
},
{
place = "{250, 74}";
},
{
place = "{657, 71}";
},
{
horizontal = 1;
place = "{-100, 21}";
target = up;
type = BottomGhost;
},
{
horizontal = 1;
place = "{0, 21}";
target = up;
type = BottomGhost;
},
{
horizontal = 1;
place = "{117, 64}";
},
{
horizontal = 1;
place = "{205, 64}";
},
{
horizontal = 1;
place = "{426, 64}";
},
{
horizontal = 1;
place = "{636, 64}";
},
{
horizontal = 1;
place = "{810, -20}";
target = down;
type = TopGhost;
}
);
layerId = UUID0;
paths = (
{
closed = 1;
nodes = (
"324 324 LINE",
"324 369 LINE SMOOTH",
"324 414 OFFCURVE",
"305 444 OFFCURVE",
"273 461 CURVE",
"299 479 OFFCURVE",
"317 509 OFFCURVE",
"317 548 CURVE SMOOTH",
"317 583 LINE SMOOTH",
"317 665 OFFCURVE",
"271 700 OFFCURVE",
"188 700 CURVE SMOOTH",
"101 700 LINE",
"101 636 LINE",
"187 636 LINE SMOOTH",
"225 636 OFFCURVE",
"242 623 OFFCURVE",
"242 584 CURVE SMOOTH",
"242 542 LINE SMOOTH",
"242 508 OFFCURVE",
"218 490 OFFCURVE",
"187 490 CURVE SMOOTH",
"124 490 LINE",
"124 426 LINE",
"195 426 LINE SMOOTH",
"227 426 OFFCURVE",
"250 407 OFFCURVE",
"250 374 CURVE SMOOTH",
"250 319 LINE SMOOTH",
"250 281 OFFCURVE",
"229 269 OFFCURVE",
"194 269 CURVE SMOOTH",
"101 269 LINE",
"101 205 LINE",
"197 205 LINE SMOOTH",
"288 205 OFFCURVE",
"324 241 OFFCURVE",
"324 324 CURVE"
);
},
{
closed = 1;
nodes = (
"778 117 LINE",
"778 181 LINE",
"728 181 LINE",
"728 324 LINE",
"661 324 LINE",
"654 181 LINE",
"577 181 LINE",
"650 495 LINE",
"581 495 LINE",
"507 191 LINE",
"507 117 LINE",
"654 117 LINE",
"654 0 LINE",
"728 0 LINE",
"728 117 LINE"
);
},
{
closed = 1;
nodes = (
"635 810 LINE",
"555 810 LINE",
"235 -100 LINE",
"315 -100 LINE"
);
}
);
width = 875;
}
);
unicode = 00BE;
},
{
glyphname = asterisk;
lastChange = "2016-08-31 13:14:00 +0000";
layers = (
{
hints = (
{
place = "{201, 77}";
},
{
horizontal = 1;
place = "{340, 21}";
target = up;
type = BottomGhost;
},
{
horizontal = 1;
place = "{722, -20}";
target = down;
type = TopGhost;
}
);
layerId = UUID0;
paths = (
{
closed = 1;
nodes = (
"440 546 LINE",
"415 625 LINE",
"272 570 LINE",
"285 722 LINE",
"195 722 LINE",
"208 570 LINE",
"67 627 LINE",
"40 547 LINE",
"185 515 LINE",
"78 393 LINE",
"148 340 LINE",
"239 482 LINE",
"327 340 LINE",
"399 392 LINE",
"293 515 LINE"
);
}
);
width = 480;
}
);
unicode = 002A;
},
{
glyphname = backslash;
lastChange = "2016-08-31 13:14:00 +0000";
layers = (
{
hints = (
{
horizontal = 1;
place = "{-110, 21}";
target = up;
type = BottomGhost;
},
{
horizontal = 1;
place = "{810, -20}";
target = down;
type = TopGhost;
}
);
layerId = UUID0;
paths = (
{
closed = 1;
nodes = (
"241 -110 LINE",
"320 -110 LINE",
"84 810 LINE",
"5 810 LINE"
);
}
);
width = 325;
}
);
unicode = 005C;
},
{
glyphname = periodcentered;
lastChange = "2016-08-31 13:14:00 +0000";
layers = (
{
hints = (
{
place = "{65, 100}";
},
{
horizontal = 1;
place = "{260, 100}";
}
);
layerId = UUID0;
paths = (
{
closed = 1;
nodes = (
"165 260 LINE",
"165 360 LINE",
"65 360 LINE",
"65 260 LINE"
);
}
);
width = 230;
}
);
unicode = 00B7;
},
{
glyphname = bullet;
lastChange = "2016-08-31 13:14:00 +0000";
layers = (
{
hints = (
{
horizontal = 1;
place = "{235, 21}";
target = up;
type = BottomGhost;
},
{
horizontal = 1;
place = "{390, -20}";
target = down;
type = TopGhost;
}
);
layerId = UUID0;
paths = (
{
closed = 1;
nodes = (
"220 235 LINE",
"220 390 LINE",
"70 390 LINE",
"70 235 LINE"
);
}
);
width = 290;
}
);
unicode = 2022;
},
{
glyphname = colon;
lastChange = "2016-08-31 13:14:00 +0000";
layers = (
{
hints = (
{
place = "{65, 100}";
},
{
horizontal = 1;
place = "{0, 100}";
},
{
horizontal = 1;
place = "{400, 100}";
}
);
layerId = UUID0;
paths = (
{
closed = 1;
nodes = (
"165 0 LINE",
"165 100 LINE",
"65 100 LINE",
"65 0 LINE"
);
},
{
closed = 1;
nodes = (
"165 400 LINE",
"165 500 LINE",
"65 500 LINE",
"65 400 LINE"
);
}
);
width = 230;
}
);
unicode = 003A;
},
{
glyphname = comma;
lastChange = "2016-08-31 13:14:00 +0000";
layers = (
{
hints = (
{
place = "{65, 100}";
},
{
horizontal = 1;
place = "{-140, 21}";
target = up;
type = BottomGhost;
},
{
horizontal = 1;
place = "{100, -20}";
target = down;
type = TopGhost;
}
);
layerId = UUID0;
paths = (
{
closed = 1;
nodes = (
"165 0 LINE",
"165 100 LINE",
"65 100 LINE",
"65 0 LINE",
"25 -140 LINE",
"103 -140 LINE"
);
}
);
width = 230;
}
);
unicode = 002C;
},
{
glyphname = ellipsis;
lastChange = "2016-08-31 13:14:00 +0000";
layers = (
{
hints = (
{
place = "{65, 100}";
},
{
place = "{285, 100}";
},
{
place = "{505, 100}";
},
{
horizontal = 1;
place = "{0, 100}";
}
);
layerId = UUID0;
paths = (
{
closed = 1;
nodes = (
"165 0 LINE",
"165 100 LINE",
"65 100 LINE",
"65 0 LINE"
);
},
{
closed = 1;
nodes = (
"385 0 LINE",
"385 100 LINE",
"285 100 LINE",
"285 0 LINE"
);
},
{
closed = 1;
nodes = (
"605 0 LINE",
"605 100 LINE",
"505 100 LINE",
"505 0 LINE"
);
}
);
width = 670;
}
);
unicode = 2026;
},
{
glyphname = exclam;
lastChange = "2016-08-31 13:14:00 +0000";
layers = (
{
hints = (
{
place = "{75, 100}";
},
{
place = "{82, 85}";
},
{
horizontal = 1;
place = "{0, 100}";
},
{
horizontal = 1;
place = "{700, -20}";
target = down;
type = TopGhost;
}
);
layerId = UUID0;
paths = (
{
closed = 1;
nodes = (
"175 0 LINE",
"175 100 LINE",
"75 100 LINE",
"75 0 LINE"
);
},
{
closed = 1;
nodes = (
"167 208 LINE",
"167 700 LINE",
"82 700 LINE",
"82 208 LINE"
);
}
);
width = 250;
}
);
unicode = 0021;
},
{
glyphname = exclamdown;
lastChange = "2016-08-31 13:14:00 +0000";
layers = (
{
hints = (
{
place = "{75, 100}";
},
{
place = "{83, 85}";
},
{
horizontal = 1;
place = "{-200, 21}";
target = up;
type = BottomGhost;
},
{
horizontal = 1;
place = "{400, 100}";
}
);
layerId = UUID0;
paths = (
{
closed = 1;
nodes = (
"75 500 LINE",
"75 400 LINE",
"175 400 LINE",
"175 500 LINE"
);
},
{
closed = 1;
nodes = (
"83 292 LINE",
"83 -200 LINE",
"168 -200 LINE",
"168 292 LINE"
);
}
);
width = 250;
}
);
unicode = 00A1;
},
{
glyphname = numbersign;
lastChange = "2016-08-31 13:14:00 +0000";
layers = (
{
hints = (
{
place = "{113, 80}";
},
{
place = "{273, 80}";
},
{
horizontal = 1;
place = "{0, 21}";
target = up;
type = BottomGhost;
},
{
horizontal = 1;
place = "{180, 75}";
},
{
horizontal = 1;
place = "{455, 75}";
},
{
horizontal = 1;
place = "{700, -20}";
target = down;
type = TopGhost;
}
);
layerId = UUID0;
paths = (
{
closed = 1;
nodes = (
"273 255 LINE",
"193 255 LINE",
"193 455 LINE",
"273 455 LINE"
);
},
{
closed = 1;
nodes = (
"423 180 LINE",
"423 255 LINE",
"353 255 LINE",
"353 455 LINE",
"423 455 LINE",
"423 530 LINE",
"353 530 LINE",
"353 700 LINE",
"273 700 LINE",
"273 530 LINE",
"193 530 LINE",
"193 700 LINE",
"113 700 LINE",
"113 530 LINE",
"43 530 LINE",
"43 455 LINE",
"113 455 LINE",
"113 255 LINE",
"43 255 LINE",
"43 180 LINE",
"113 180 LINE",
"113 0 LINE",
"193 0 LINE",
"193 180 LINE",
"273 180 LINE",
"273 0 LINE",
"353 0 LINE",
"353 180 LINE"
);
}
);
width = 470;
}
);
unicode = 0023;
},
{
glyphname = period;
lastChange = "2016-08-31 13:14:00 +0000";
layers = (
{
hints = (
{
place = "{65, 100}";
},
{
horizontal = 1;
place = "{0, 100}";
}
);
layerId = UUID0;
paths = (
{
closed = 1;
nodes = (
"165 0 LINE",
"165 100 LINE",
"65 100 LINE",
"65 0 LINE"
);
}
);
width = 230;
}
);
unicode = 002E;
},
{
glyphname = question;
lastChange = "2016-08-31 13:14:00 +0000";
layers = (
{
hints = (
{
place = "{87, 100}";
},
{
place = "{94, 85}";
},
{
place = "{213, 85}";
},
{
horizontal = 1;
place = "{0, 100}";
},
{
horizontal = 1;
place = "{624, 76}";
}
);
layerId = UUID0;
paths = (
{
closed = 1;
nodes = (
"298 518 LINE",
"298 550 LINE SMOOTH",
"298 655 OFFCURVE",
"237 700 OFFCURVE",
"130 700 CURVE SMOOTH",
"30 700 LINE",
"30 624 LINE",
"140 624 LINE SMOOTH",
"190 624 OFFCURVE",
"213 599 OFFCURVE",
"213 559 CURVE SMOOTH",
"213 509 LINE SMOOTH",
"213 465 OFFCURVE",
"208 460 OFFCURVE",
"147 390 CURVE SMOOTH",
"94 329 LINE",
"94 208 LINE",
"179 208 LINE",
"179 304 LINE",
"227 358 LINE SMOOTH",
"294 433 OFFCURVE",
"298 442 OFFCURVE",
"298 518 CURVE"
);
},
{
closed = 1;
nodes = (
"187 0 LINE",
"187 100 LINE",
"87 100 LINE",
"87 0 LINE"
);
}
);
width = 328;
}
);
unicode = 003F;
},
{
glyphname = questiondown;
lastChange = "2016-08-31 13:14:00 +0000";
layers = (
{
hints = (
{
place = "{45, 85}";
},
{
place = "{156, 100}";
},
{
place = "{164, 85}";
},
{
horizontal = 1;
place = "{-200, 76}";
},
{
horizontal = 1;
place = "{400, 100}";
}
);
layerId = UUID0;
paths = (
{
closed = 1;
nodes = (
"156 500 LINE",
"156 400 LINE",
"256 400 LINE",
"256 500 LINE"
);
},
{
closed = 1;
nodes = (
"45 -18 LINE",
"45 -50 LINE SMOOTH",
"45 -155 OFFCURVE",
"106 -200 OFFCURVE",
"213 -200 CURVE SMOOTH",
"313 -200 LINE",
"313 -124 LINE",
"203 -124 LINE SMOOTH",
"153 -124 OFFCURVE",
"130 -99 OFFCURVE",
"130 -59 CURVE SMOOTH",
"130 -9 LINE SMOOTH",
"130 35 OFFCURVE",
"135 40 OFFCURVE",
"196 110 CURVE SMOOTH",
"249 171 LINE",
"249 292 LINE",
"164 292 LINE",
"164 196 LINE",
"116 142 LINE SMOOTH",
"49 67 OFFCURVE",
"45 58 OFFCURVE",
"45 -18 CURVE"
);
}
);
width = 360;
}
);
unicode = 00BF;
},
{
glyphname = quotedbl;
lastChange = "2016-08-31 13:14:00 +0000";
layers = (
{
hints = (
{
place = "{55, 95}";
},
{
place = "{210, 95}";
},
{
horizontal = 1;
place = "{453, 21}";
target = up;
type = BottomGhost;
},
{
horizontal = 1;
place = "{700, -20}";
target = down;
type = TopGhost;
}
);
layerId = UUID0;
paths = (
{
closed = 1;
nodes = (
"150 610 LINE",
"150 700 LINE",
"55 700 LINE",
"55 610 LINE",
"75 453 LINE",
"130 453 LINE"
);
},
{
closed = 1;
nodes = (
"305 610 LINE",
"305 700 LINE",
"210 700 LINE",
"210 610 LINE",
"230 453 LINE",
"285 453 LINE"
);
}
);
width = 360;
}
);
unicode = 0022;
},
{
glyphname = quotesingle;
lastChange = "2016-08-31 13:14:00 +0000";
layers = (
{
hints = (
{
place = "{55, 95}";
},
{
horizontal = 1;
place = "{453, 21}";
target = up;
type = BottomGhost;
},
{
horizontal = 1;
place = "{700, -20}";
target = down;
type = TopGhost;
}
);
layerId = UUID0;
paths = (
{
closed = 1;
nodes = (
"150 610 LINE",
"150 700 LINE",
"55 700 LINE",
"55 610 LINE",
"75 453 LINE",
"130 453 LINE"
);
}
);
width = 205;
}
);
unicode = 0027;
},
{
glyphname = semicolon;
lastChange = "2016-08-31 13:14:00 +0000";
layers = (
{
hints = (
{
place = "{65, 100}";
},
{
horizontal = 1;
place = "{-140, 21}";
target = up;
type = BottomGhost;
},
{
horizontal = 1;
place = "{400, 100}";
}
);
layerId = UUID0;
paths = (
{
closed = 1;
nodes = (
"165 0 LINE",
"165 100 LINE",
"65 100 LINE",
"65 0 LINE",
"25 -140 LINE",
"103 -140 LINE"
);
},
{
closed = 1;
nodes = (
"165 400 LINE",
"165 500 LINE",
"65 500 LINE",
"65 400 LINE"
);
}
);
width = 230;
}
);
unicode = 003B;
},
{
glyphname = slash;
lastChange = "2016-08-31 13:14:00 +0000";
layers = (
{
hints = (
{
horizontal = 1;
place = "{-110, 21}";
target = up;
type = BottomGhost;
},
{
horizontal = 1;
place = "{810, -20}";
target = down;
type = TopGhost;
}
);
layerId = UUID0;
paths = (
{
closed = 1;
nodes = (
"320 810 LINE",
"241 810 LINE",
"5 -110 LINE",
"84 -110 LINE"
);
}
);
width = 325;
}
);
unicode = 002F;
},
{
glyphname = underscore;
lastChange = "2016-08-31 13:14:00 +0000";
layers = (
{
hints = (
{
horizontal = 1;
place = "{-170, 75}";
}
);
layerId = UUID0;
paths = (
{
closed = 1;
nodes = (
"507 -170 LINE",
"507 -95 LINE",
"3 -95 LINE",
"3 -170 LINE"
);
}
);
width = 510;
}
);
unicode = 005F;
},
{
glyphname = braceleft;
lastChange = "2016-08-31 13:14:00 +0000";
layers = (
{
hints = (
{
place = "{111, 78}";
},
{
horizontal = 1;
place = "{-120, 70}";
},
{
horizontal = 1;
place = "{750, 70}";
}
);
layerId = UUID0;
paths = (
{
closed = 1;
nodes = (
"40 295 LINE",
"91 295 OFFCURVE",
"111 285 OFFCURVE",
"111 231 CURVE SMOOTH",
"111 2 LINE SMOOTH",
"111 -87 OFFCURVE",
"141 -120 OFFCURVE",
"220 -120 CURVE SMOOTH",
"265 -120 LINE",
"265 -50 LINE",
"234 -50 LINE SMOOTH",
"203 -50 OFFCURVE",
"189 -43 OFFCURVE",
"189 -13 CURVE SMOOTH",
"189 231 LINE SMOOTH",
"189 301 OFFCURVE",
"149 344 OFFCURVE",
"104 349 CURVE",
"149 356 OFFCURVE",
"189 399 OFFCURVE",
"189 469 CURVE SMOOTH",
"189 713 LINE SMOOTH",
"189 743 OFFCURVE",
"203 750 OFFCURVE",
"234 750 CURVE SMOOTH",
"265 750 LINE",
"265 820 LINE",
"220 820 LINE SMOOTH",
"141 820 OFFCURVE",
"111 787 OFFCURVE",
"111 698 CURVE SMOOTH",
"111 469 LINE SMOOTH",
"111 415 OFFCURVE",
"91 405 OFFCURVE",
"40 405 CURVE"
);
}
);
width = 325;
}
);
unicode = 007B;
},
{
glyphname = braceright;
lastChange = "2016-08-31 13:14:00 +0000";
layers = (
{
hints = (
{
place = "{137, 78}";
},
{
horizontal = 1;
place = "{-120, 70}";
},
{
horizontal = 1;
place = "{750, 70}";
}
);
layerId = UUID0;
paths = (
{
closed = 1;
nodes = (
"286 405 LINE",
"235 405 OFFCURVE",
"215 415 OFFCURVE",
"215 469 CURVE SMOOTH",
"215 698 LINE SMOOTH",
"215 787 OFFCURVE",
"185 820 OFFCURVE",
"106 820 CURVE SMOOTH",
"61 820 LINE",
"61 750 LINE",
"92 750 LINE SMOOTH",
"123 750 OFFCURVE",
"137 743 OFFCURVE",
"137 713 CURVE SMOOTH",
"137 469 LINE SMOOTH",
"137 399 OFFCURVE",
"177 356 OFFCURVE",
"222 349 CURVE",
"177 344 OFFCURVE",
"137 301 OFFCURVE",
"137 231 CURVE SMOOTH",
"137 -13 LINE SMOOTH",
"137 -43 OFFCURVE",
"123 -50 OFFCURVE",
"92 -50 CURVE SMOOTH",
"61 -50 LINE",
"61 -120 LINE",
"106 -120 LINE SMOOTH",
"185 -120 OFFCURVE",
"215 -87 OFFCURVE",
"215 2 CURVE SMOOTH",
"215 231 LINE SMOOTH",
"215 285 OFFCURVE",
"235 295 OFFCURVE",
"286 295 CURVE"
);
}
);
width = 325;
}
);
unicode = 007D;
},
{
glyphname = bracketleft;
lastChange = "2016-08-31 13:14:00 +0000";
layers = (
{
hints = (
{
place = "{85, 80}";
},
{
horizontal = 1;
place = "{-120, 75}";
},
{
horizontal = 1;
place = "{745, 75}";
}
);
layerId = UUID0;
paths = (
{
closed = 1;
nodes = (
"275 -120 LINE",
"275 -45 LINE",
"165 -45 LINE",
"165 745 LINE",
"275 745 LINE",
"275 820 LINE",
"85 820 LINE",
"85 -120 LINE"
);
}
);
width = 325;
}
);
unicode = 005B;
},
{
glyphname = bracketright;
lastChange = "2016-08-31 13:14:00 +0000";
layers = (
{
hints = (
{
place = "{160, 80}";
},
{
horizontal = 1;
place = "{-120, 75}";
},
{
horizontal = 1;
place = "{745, 75}";
}
);
layerId = UUID0;
paths = (
{
closed = 1;
nodes = (
"240 -120 LINE",
"240 820 LINE",
"50 820 LINE",
"50 745 LINE",
"160 745 LINE",
"160 -45 LINE",
"50 -45 LINE",
"50 -120 LINE"
);
}
);
width = 325;
}
);
unicode = 005D;
},
{
glyphname = parenleft;
lastChange = "2016-08-31 13:14:00 +0000";
layers = (
{
hints = (
{
place = "{60, 85}";
},
{
horizontal = 1;
place = "{-120, 21}";
target = up;
type = BottomGhost;
},
{
horizontal = 1;
place = "{820, -20}";
target = down;
type = TopGhost;
}
);
layerId = UUID0;
paths = (
{
closed = 1;
nodes = (
"60 505 LINE",
"60 195 LINE SMOOTH",
"60 26 OFFCURVE",
"111 -57 OFFCURVE",
"172 -120 CURVE",
"260 -120 LINE",
"173 -14 OFFCURVE",
"145 36 OFFCURVE",
"145 193 CURVE SMOOTH",
"145 507 LINE SMOOTH",
"145 664 OFFCURVE",
"173 714 OFFCURVE",
"260 820 CURVE",
"172 820 LINE",
"111 757 OFFCURVE",
"60 674 OFFCURVE",
"60 505 CURVE"
);
}
);
width = 320;
}
);
unicode = 0028;
},
{
glyphname = parenright;
lastChange = "2016-08-31 13:14:00 +0000";
layers = (
{
hints = (
{
place = "{175, 85}";
},
{
horizontal = 1;
place = "{-120, 21}";
target = up;
type = BottomGhost;
},
{
horizontal = 1;
place = "{820, -20}";
target = down;
type = TopGhost;
}
);
layerId = UUID0;
paths = (
{
closed = 1;
nodes = (
"260 505 LINE SMOOTH",
"260 674 OFFCURVE",
"209 757 OFFCURVE",
"148 820 CURVE",
"60 820 LINE",
"147 714 OFFCURVE",
"175 664 OFFCURVE",
"175 507 CURVE SMOOTH",
"175 193 LINE SMOOTH",
"175 36 OFFCURVE",
"147 -14 OFFCURVE",
"60 -120 CURVE",
"148 -120 LINE",
"209 -57 OFFCURVE",
"260 26 OFFCURVE",
"260 195 CURVE SMOOTH"
);
}
);
width = 320;
}
);
unicode = 0029;
},
{
glyphname = emdash;
lastChange = "2016-08-31 13:14:00 +0000";
layers = (
{
hints = (
{
horizontal = 1;
place = "{275, 75}";
}
);
layerId = UUID0;
paths = (
{
closed = 1;
nodes = (
"540 275 LINE",
"540 350 LINE",
"65 350 LINE",
"65 275 LINE"
);
}
);
width = 605;
}
);
unicode = 2014;
},
{
glyphname = endash;
lastChange = "2016-08-31 13:14:00 +0000";
layers = (
{
hints = (
{
horizontal = 1;
place = "{275, 75}";
}
);
layerId = UUID0;
paths = (
{
closed = 1;
nodes = (
"465 275 LINE",
"465 350 LINE",
"85 350 LINE",
"85 275 LINE"
);
}
);
width = 550;
}
);
unicode = 2013;
},
{
glyphname = hyphen;
lastChange = "2016-08-31 13:14:00 +0000";
layers = (
{
hints = (
{
horizontal = 1;
place = "{275, 75}";
}
);
layerId = UUID0;
paths = (
{
closed = 1;
nodes = (
"410 275 LINE",
"410 350 LINE",
"85 350 LINE",
"85 275 LINE"
);
}
);
width = 495;
}
);
unicode = 002D;
},
{
glyphname = uni00AD;
lastChange = "2016-08-31 13:14:00 +0000";
layers = (
{
hints = (
{
horizontal = 1;
place = "{275, 75}";
}
);
layerId = UUID0;
paths = (
{
closed = 1;
nodes = (
"410 275 LINE",
"410 350 LINE",
"85 350 LINE",
"85 275 LINE"
);
}
);
width = 495;
}
);
unicode = 00AD;
},
{
glyphname = guillemotleft;
lastChange = "2016-08-31 13:14:00 +0000";
layers = (
{
hints = (
{
horizontal = 1;
place = "{92, 21}";
target = up;
type = BottomGhost;
},
{
horizontal = 1;
place = "{506, -20}";
target = down;
type = TopGhost;
}
);
layerId = UUID0;
paths = (
{
closed = 1;
nodes = (
"230 92 LINE",
"167 299 LINE",
"230 506 LINE",
"164 506 LINE",
"75 299 LINE",
"164 92 LINE"
);
},
{
closed = 1;
nodes = (
"390 92 LINE",
"327 299 LINE",
"390 506 LINE",
"324 506 LINE",
"235 299 LINE",
"324 92 LINE"
);
}
);
width = 465;
}
);
unicode = 00AB;
},
{
glyphname = guillemotright;
lastChange = "2016-08-31 13:14:00 +0000";
layers = (
{
hints = (
{
horizontal = 1;
place = "{92, 21}";
target = up;
type = BottomGhost;
},
{
horizontal = 1;
place = "{506, -20}";
target = down;
type = TopGhost;
}
);
layerId = UUID0;
paths = (
{
closed = 1;
nodes = (
"301 92 LINE",
"390 299 LINE",
"301 506 LINE",
"235 506 LINE",
"298 299 LINE",
"235 92 LINE"
);
},
{
closed = 1;
nodes = (
"141 92 LINE",
"230 299 LINE",
"141 506 LINE",
"75 506 LINE",
"138 299 LINE",
"75 92 LINE"
);
}
);
width = 465;
}
);
unicode = 00BB;
},
{
glyphname = guilsinglleft;
lastChange = "2016-08-31 13:14:00 +0000";
layers = (
{
hints = (
{
horizontal = 1;
place = "{92, 21}";
target = up;
type = BottomGhost;
},
{
horizontal = 1;
place = "{506, -20}";
target = down;
type = TopGhost;
}
);
layerId = UUID0;
paths = (
{
closed = 1;
nodes = (
"230 92 LINE",
"167 299 LINE",
"230 506 LINE",
"164 506 LINE",
"75 299 LINE",
"164 92 LINE"
);
}
);
width = 305;
}
);
unicode = 2039;
},
{
glyphname = guilsinglright;
lastChange = "2016-08-31 13:14:00 +0000";
layers = (
{
hints = (
{
horizontal = 1;
place = "{92, 21}";
target = up;
type = BottomGhost;
},
{
horizontal = 1;
place = "{506, -20}";
target = down;
type = TopGhost;
}
);
layerId = UUID0;
paths = (
{
closed = 1;
nodes = (
"141 92 LINE",
"230 299 LINE",
"141 506 LINE",
"75 506 LINE",
"138 299 LINE",
"75 92 LINE"
);
}
);
width = 305;
}
);
unicode = 203A;
},
{
glyphname = quotedblbase;
lastChange = "2016-08-31 13:14:00 +0000";
layers = (
{
hints = (
{
place = "{80, 95}";
},
{
place = "{235, 95}";
},
{
horizontal = 1;
place = "{-157, 21}";
target = up;
type = BottomGhost;
},
{
horizontal = 1;
place = "{90, -20}";
target = down;
type = TopGhost;
}
);
layerId = UUID0;
paths = (
{
closed = 1;
nodes = (
"330 0 LINE",
"330 90 LINE",
"235 90 LINE",
"235 0 LINE",
"205 -157 LINE",
"275 -157 LINE"
);
},
{
closed = 1;
nodes = (
"175 0 LINE",
"175 90 LINE",
"80 90 LINE",
"80 0 LINE",
"50 -157 LINE",
"120 -157 LINE"
);
}
);
width = 375;
}
);
unicode = 201E;
},
{
glyphname = quotedblleft;
lastChange = "2016-08-31 13:14:00 +0000";
layers = (
{
hints = (
{
place = "{55, 95}";
},
{
place = "{210, 95}";
},
{
horizontal = 1;
place = "{452, 21}";
target = up;
type = BottomGhost;
},
{
horizontal = 1;
place = "{699, -20}";
target = down;
type = TopGhost;
}
);
layerId = UUID0;
paths = (
{
closed = 1;
nodes = (
"55 542 LINE",
"55 452 LINE",
"150 452 LINE",
"150 542 LINE",
"180 699 LINE",
"110 699 LINE"
);
},
{
closed = 1;
nodes = (
"210 542 LINE",
"210 452 LINE",
"305 452 LINE",
"305 542 LINE",
"335 699 LINE",
"265 699 LINE"
);
}
);
width = 380;
}
);
unicode = 201C;
},
{
glyphname = quotedblright;
lastChange = "2016-08-31 13:14:00 +0000";
layers = (
{
hints = (
{
place = "{75, 95}";
},
{
place = "{230, 95}";
},
{
horizontal = 1;
place = "{453, 21}";
target = up;
type = BottomGhost;
},
{
horizontal = 1;
place = "{700, -20}";
target = down;
type = TopGhost;
}
);
layerId = UUID0;
paths = (
{
closed = 1;
nodes = (
"325 610 LINE",
"325 700 LINE",
"230 700 LINE",
"230 610 LINE",
"200 453 LINE",
"270 453 LINE"
);
},
{
closed = 1;
nodes = (
"170 610 LINE",
"170 700 LINE",
"75 700 LINE",
"75 610 LINE",
"45 453 LINE",
"115 453 LINE"
);
}
);
width = 380;
}
);
unicode = 201D;
},
{
glyphname = quoteleft;
lastChange = "2016-08-31 13:14:00 +0000";
layers = (
{
hints = (
{
place = "{55, 95}";
},
{
horizontal = 1;
place = "{452, 21}";
target = up;
type = BottomGhost;
},
{
horizontal = 1;
place = "{699, -20}";
target = down;
type = TopGhost;
}
);
layerId = UUID0;
paths = (
{
closed = 1;
nodes = (
"55 542 LINE",
"55 452 LINE",
"150 452 LINE",
"150 542 LINE",
"180 699 LINE",
"110 699 LINE"
);
}
);
width = 225;
}
);
unicode = 2018;
},
{
glyphname = quoteright;
lastChange = "2016-08-31 13:14:00 +0000";
layers = (
{
hints = (
{
place = "{75, 95}";
},
{
horizontal = 1;
place = "{453, 21}";
target = up;
type = BottomGhost;
},
{
horizontal = 1;
place = "{700, -20}";
target = down;
type = TopGhost;
}
);
layerId = UUID0;
paths = (
{
closed = 1;
nodes = (
"170 610 LINE",
"170 700 LINE",
"75 700 LINE",
"75 610 LINE",
"45 453 LINE",
"115 453 LINE"
);
}
);
width = 225;
}
);
unicode = 2019;
},
{
glyphname = quotesinglbase;
lastChange = "2016-08-31 13:14:00 +0000";
layers = (
{
hints = (
{
place = "{80, 95}";
},
{
horizontal = 1;
place = "{-157, 21}";
target = up;
type = BottomGhost;
},
{
horizontal = 1;
place = "{90, -20}";
target = down;
type = TopGhost;
}
);
layerId = UUID0;
paths = (
{
closed = 1;
nodes = (
"175 0 LINE",
"175 90 LINE",
"80 90 LINE",
"80 0 LINE",
"50 -157 LINE",
"120 -157 LINE"
);
}
);
width = 220;
}
);
unicode = 201A;
},
{
glyphname = .notdef;
lastChange = "2016-08-31 13:14:00 +0000";
layers = (
{
hints = (
{
place = "{65, 75}";
},
{
place = "{362, 75}";
},
{
horizontal = 1;
place = "{0, 72}";
},
{
horizontal = 1;
place = "{628, 72}";
}
);
layerId = UUID0;
paths = (
{
closed = 1;
nodes = (
"65 0 LINE",
"437 0 LINE",
"437 700 LINE",
"65 700 LINE"
);
},
{
closed = 1;
nodes = (
"140 72 LINE",
"140 628 LINE",
"362 628 LINE",
"362 72 LINE"
);
}
);
width = 502;
}
);
},
{
glyphname = Euro;
lastChange = "2016-08-31 13:14:00 +0000";
layers = (
{
hints = (
{
place = "{125, 87}";
},
{
horizontal = 1;
place = "{0, 76}";
},
{
horizontal = 1;
place = "{237, 73}";
},
{
horizontal = 1;
place = "{407, 73}";
},
{
horizontal = 1;
place = "{624, 76}";
}
);
layerId = UUID0;
paths = (
{
closed = 1;
nodes = (
"381 480 LINE",
"212 480 LINE",
"212 549 LINE SMOOTH",
"212 589 OFFCURVE",
"245 624 OFFCURVE",
"295 624 CURVE SMOOTH",
"417 624 LINE",
"417 700 LINE",
"305 700 LINE SMOOTH",
"190 700 OFFCURVE",
"125 644 OFFCURVE",
"125 530 CURVE SMOOTH",
"125 480 LINE",
"55 480 LINE",
"55 407 LINE",
"125 407 LINE",
"125 310 LINE",
"55 310 LINE",
"55 237 LINE",
"125 237 LINE",
"125 170 LINE SMOOTH",
"125 56 OFFCURVE",
"190 0 OFFCURVE",
"305 0 CURVE SMOOTH",
"417 0 LINE",
"417 76 LINE",
"295 76 LINE SMOOTH",
"245 76 OFFCURVE",
"212 111 OFFCURVE",
"212 151 CURVE SMOOTH",
"212 237 LINE",
"381 237 LINE",
"381 310 LINE",
"212 310 LINE",
"212 407 LINE",
"381 407 LINE"
);
}
);
width = 470;
}
);
unicode = 20AC;
},
{
glyphname = cent;
lastChange = "2016-08-31 13:14:00 +0000";
layers = (
{
hints = (
{
place = "{99, 85}";
},
{
place = "{237, 80}";
},
{
horizontal = 1;
place = "{-110, 21}";
target = up;
type = BottomGhost;
},
{
horizontal = 1;
place = "{0, 74}";
},
{
horizontal = 1;
place = "{-1, 21}";
target = up;
type = BottomGhost;
},
{
horizontal = 1;
place = "{424, 73}";
},
{
horizontal = 1;
place = "{600, -20}";
target = down;
type = TopGhost;
}
);
layerId = UUID0;
paths = (
{
closed = 1;
nodes = (
"317 -110 LINE",
"317 -1 LINE",
"378 -1 LINE",
"378 74 LINE",
"259 74 LINE SMOOTH",
"209 74 OFFCURVE",
"184 99 OFFCURVE",
"184 139 CURVE SMOOTH",
"184 359 LINE SMOOTH",
"184 399 OFFCURVE",
"209 424 OFFCURVE",
"259 424 CURVE SMOOTH",
"378 424 LINE",
"378 499 LINE",
"317 499 LINE",
"317 600 LINE",
"237 600 LINE",
"237 497 LINE",
"143 489 OFFCURVE",
"99 442 OFFCURVE",
"99 339 CURVE SMOOTH",
"99 159 LINE SMOOTH",
"99 55 OFFCURVE",
"143 8 OFFCURVE",
"237 0 CURVE",
"237 -110 LINE"
);
}
);
width = 470;
}
);
unicode = 00A2;
},
{
glyphname = currency;
lastChange = "2016-08-31 13:14:00 +0000";
layers = (
{
hints = (
{
place = "{96, 85}";
},
{
place = "{388, 85}";
},
{
horizontal = 1;
place = "{46, 21}";
target = up;
type = BottomGhost;
},
{
horizontal = 1;
place = "{92, 75}";
},
{
horizontal = 1;
place = "{435, 75}";
},
{
horizontal = 1;
place = "{558, -20}";
target = down;
type = TopGhost;
}
);
layerId = UUID0;
paths = (
{
closed = 1;
nodes = (
"37 103 LINE",
"94 46 LINE",
"161 113 LINE",
"187 98 OFFCURVE",
"222 92 OFFCURVE",
"266 92 CURVE SMOOTH",
"303 92 LINE SMOOTH",
"347 92 OFFCURVE",
"382 99 OFFCURVE",
"409 113 CURVE",
"476 46 LINE",
"533 103 LINE",
"461 175 LINE",
"469 196 OFFCURVE",
"473 221 OFFCURVE",
"473 252 CURVE SMOOTH",
"473 350 LINE SMOOTH",
"473 381 OFFCURVE",
"469 407 OFFCURVE",
"460 428 CURVE",
"533 501 LINE",
"476 558 LINE",
"407 489 LINE",
"381 503 OFFCURVE",
"346 510 OFFCURVE",
"303 510 CURVE SMOOTH",
"266 510 LINE SMOOTH",
"223 510 OFFCURVE",
"188 504 OFFCURVE",
"162 490 CURVE",
"94 558 LINE",
"37 501 LINE",
"108 429 LINE",
"100 408 OFFCURVE",
"96 381 OFFCURVE",
"96 350 CURVE SMOOTH",
"96 252 LINE SMOOTH",
"96 221 OFFCURVE",
"100 195 OFFCURVE",
"108 174 CURVE"
);
},
{
closed = 1;
nodes = (
"388 232 LINE SMOOTH",
"388 192 OFFCURVE",
"363 167 OFFCURVE",
"313 167 CURVE SMOOTH",
"256 167 LINE SMOOTH",
"206 167 OFFCURVE",
"181 192 OFFCURVE",
"181 232 CURVE SMOOTH",
"181 370 LINE SMOOTH",
"181 410 OFFCURVE",
"206 435 OFFCURVE",
"256 435 CURVE SMOOTH",
"313 435 LINE SMOOTH",
"363 435 OFFCURVE",
"388 410 OFFCURVE",
"388 370 CURVE SMOOTH"
);
}
);
width = 570;
}
);
unicode = 00A4;
},
{
glyphname = dollar;
lastChange = "2016-08-31 13:14:00 +0000";
layers = (
{
hints = (
{
place = "{70, 87}";
},
{
place = "{192, 85}";
},
{
place = "{312, 87}";
},
{
horizontal = 1;
place = "{-110, 21}";
target = up;
type = BottomGhost;
},
{
horizontal = 1;
place = "{0, 76}";
},
{
horizontal = 1;
place = "{302, 79}";
},
{
horizontal = 1;
place = "{594, 76}";
},
{
horizontal = 1;
place = "{780, -20}";
target = down;
type = TopGhost;
}
);
layerId = UUID0;
paths = (
{
closed = 1;
nodes = (
"277 -110 LINE",
"277 5 LINE",
"355 22 OFFCURVE",
"399 77 OFFCURVE",
"399 170 CURVE SMOOTH",
"399 216 LINE SMOOTH",
"399 330 OFFCURVE",
"341 381 OFFCURVE",
"249 381 CURVE SMOOTH",
"229 381 LINE SMOOTH",
"185 381 OFFCURVE",
"157 413 OFFCURVE",
"157 453 CURVE SMOOTH",
"157 519 LINE SMOOTH",
"157 559 OFFCURVE",
"190 594 OFFCURVE",
"240 594 CURVE SMOOTH",
"383 594 LINE",
"383 670 LINE",
"277 670 LINE",
"277 780 LINE",
"192 780 LINE",
"192 664 LINE",
"113 647 OFFCURVE",
"70 593 OFFCURVE",
"70 500 CURVE SMOOTH",
"70 472 LINE SMOOTH",
"70 358 OFFCURVE",
"134 302 OFFCURVE",
"230 302 CURVE SMOOTH",
"250 302 LINE SMOOTH",
"293 302 OFFCURVE",
"312 273 OFFCURVE",
"312 235 CURVE SMOOTH",
"312 151 LINE SMOOTH",
"312 111 OFFCURVE",
"279 76 OFFCURVE",
"229 76 CURVE SMOOTH",
"87 76 LINE",
"87 0 LINE",
"192 0 LINE",
"192 -110 LINE"
);
}
);
width = 470;
}
);
unicode = 0024;
},
{
glyphname = florin;
lastChange = "2016-08-31 13:14:00 +0000";
layers = (
{
hints = (
{
place = "{95, 85}";
},
{
horizontal = 1;
place = "{-170, 75}";
},
{
horizontal = 1;
place = "{425, 75}";
},
{
horizontal = 1;
place = "{625, 75}";
}
);
layerId = UUID0;
paths = (
{
closed = 1;
nodes = (
"311 625 LINE",
"311 700 LINE",
"199 700 LINE SMOOTH",
"139 700 OFFCURVE",
"95 660 OFFCURVE",
"95 590 CURVE SMOOTH",
"95 500 LINE",
"30 500 LINE",
"30 425 LINE",
"95 425 LINE",
"95 -65 LINE SMOOTH",
"95 -82 OFFCURVE",
"82 -95 OFFCURVE",
"60 -95 CURVE SMOOTH",
"-31 -95 LINE",
"-31 -170 LINE",
"76 -170 LINE SMOOTH",
"136 -170 OFFCURVE",
"180 -130 OFFCURVE",
"180 -60 CURVE SMOOTH",
"180 425 LINE",
"301 425 LINE",
"301 500 LINE",
"180 500 LINE",
"180 595 LINE SMOOTH",
"180 612 OFFCURVE",
"193 625 OFFCURVE",
"215 625 CURVE SMOOTH"
);
}
);
width = 310;
}
);
unicode = 0192;
},
{
glyphname = sterling;
lastChange = "2016-08-31 13:14:00 +0000";
layers = (
{
hints = (
{
place = "{136, 87}";
},
{
horizontal = 1;
place = "{0, 73}";
},
{
horizontal = 1;
place = "{340, 73}";
},
{
horizontal = 1;
place = "{624, 76}";
}
);
layerId = UUID0;
paths = (
{
closed = 1;
nodes = (
"66 340 LINE",
"136 340 LINE",
"136 73 LINE",
"66 73 LINE",
"66 0 LINE",
"421 0 LINE",
"421 73 LINE",
"223 73 LINE",
"223 340 LINE",
"351 340 LINE",
"351 413 LINE",
"223 413 LINE",
"223 549 LINE SMOOTH",
"223 589 OFFCURVE",
"256 624 OFFCURVE",
"306 624 CURVE SMOOTH",
"413 624 LINE",
"413 700 LINE",
"316 700 LINE SMOOTH",
"201 700 OFFCURVE",
"136 644 OFFCURVE",
"136 530 CURVE SMOOTH",
"136 413 LINE",
"66 413 LINE"
);
}
);
width = 470;
}
);
unicode = 00A3;
},
{
glyphname = yen;
lastChange = "2016-08-31 13:14:00 +0000";
layers = (
{
hints = (
{
place = "{189, 90}";
},
{
horizontal = 1;
place = "{0, 21}";
target = up;
type = BottomGhost;
},
{
horizontal = 1;
place = "{115, 75}";
},
{
horizontal = 1;
place = "{265, 75}";
},
{
horizontal = 1;
place = "{700, -20}";
target = down;
type = TopGhost;
}
);
layerId = UUID0;
paths = (
{
closed = 1;
nodes = (
"409 115 LINE",
"409 190 LINE",
"279 190 LINE",
"279 265 LINE",
"409 265 LINE",
"409 340 LINE",
"281 340 LINE",
"450 700 LINE",
"359 700 LINE",
"238 427 LINE",
"116 700 LINE",
"20 700 LINE",
"186 340 LINE",
"59 340 LINE",
"59 265 LINE",
"189 265 LINE",
"189 190 LINE",
"59 190 LINE",
"59 115 LINE",
"189 115 LINE",
"189 0 LINE",
"279 0 LINE",
"279 115 LINE"
);
}
);
width = 470;
}
);
unicode = 00A5;
},
{
glyphname = dotmath;
lastChange = "2016-08-31 13:14:00 +0000";
layers = (
{
hints = (
{
place = "{65, 100}";
},
{
horizontal = 1;
place = "{260, 100}";
}
);
layerId = UUID0;
paths = (
{
closed = 1;
nodes = (
"165 260 LINE",
"165 360 LINE",
"65 360 LINE",
"65 260 LINE"
);
}
);
width = 230;
}
);
unicode = 22C5;
},
{
glyphname = plus;
lastChange = "2016-08-31 13:14:00 +0000";
layers = (
{
hints = (
{
place = "{235, 80}";
},
{
horizontal = 1;
place = "{118, 21}";
target = up;
type = BottomGhost;
},
{
horizontal = 1;
place = "{275, 75}";
},
{
horizontal = 1;
place = "{508, -20}";
target = down;
type = TopGhost;
}
);
layerId = UUID0;
paths = (
{
closed = 1;
nodes = (
"465 275 LINE",
"465 350 LINE",
"315 350 LINE",
"315 508 LINE",
"235 508 LINE",
"235 350 LINE",
"84 350 LINE",
"84 275 LINE",
"235 275 LINE",
"235 118 LINE",
"315 118 LINE",
"315 275 LINE"
);
}
);
width = 550;
}
);
unicode = 002B;
},
{
glyphname = minus;
lastChange = "2016-08-31 13:14:00 +0000";
layers = (
{
hints = (
{
horizontal = 1;
place = "{275, 75}";
}
);
layerId = UUID0;
paths = (
{
closed = 1;
nodes = (
"465 275 LINE",
"465 350 LINE",
"85 350 LINE",
"85 275 LINE"
);
}
);
width = 550;
}
);
unicode = 2212;
},
{
glyphname = multiply;
lastChange = "2016-08-31 13:14:00 +0000";
layers = (
{
hints = (
{
horizontal = 1;
place = "{137, 21}";
target = up;
type = BottomGhost;
},
{
horizontal = 1;
place = "{483, -20}";
target = down;
type = TopGhost;
}
);
layerId = UUID0;
paths = (
{
closed = 1;
nodes = (
"392 137 LINE",
"448 193 LINE",
"332 310 LINE",
"448 427 LINE",
"392 483 LINE",
"275 367 LINE",
"158 483 LINE",
"102 427 LINE",
"218 310 LINE",
"102 193 LINE",
"158 137 LINE",
"275 253 LINE"
);
}
);
width = 550;
}
);
unicode = 00D7;
},
{
glyphname = divide;
lastChange = "2016-08-31 13:14:00 +0000";
layers = (
{
hints = (
{
place = "{225, 100}";
},
{
horizontal = 1;
place = "{65, 100}";
},
{
horizontal = 1;
place = "{275, 75}";
},
{
horizontal = 1;
place = "{460, 100}";
}
);
layerId = UUID0;
paths = (
{
closed = 1;
nodes = (
"465 275 LINE",
"465 350 LINE",
"85 350 LINE",
"85 275 LINE"
);
},
{
closed = 1;
nodes = (
"325 65 LINE",
"325 165 LINE",
"225 165 LINE",
"225 65 LINE"
);
},
{
closed = 1;
nodes = (
"325 460 LINE",
"325 560 LINE",
"225 560 LINE",
"225 460 LINE"
);
}
);
width = 550;
}
);
unicode = 00F7;
},
{
glyphname = equal;
lastChange = "2016-08-31 13:14:00 +0000";
layers = (
{
hints = (
{
horizontal = 1;
place = "{175, 75}";
},
{
horizontal = 1;
place = "{375, 75}";
}
);
layerId = UUID0;
paths = (
{
closed = 1;
nodes = (
"465 175 LINE",
"465 250 LINE",
"85 250 LINE",
"85 175 LINE"
);
},
{
closed = 1;
nodes = (
"465 375 LINE",
"465 450 LINE",
"85 450 LINE",
"85 375 LINE"
);
}
);
width = 550;
}
);
unicode = 003D;
},
{
glyphname = notequal;
lastChange = "2016-08-31 13:14:00 +0000";
layers = (
{
hints = (
{
horizontal = 1;
place = "{70, 21}";
target = up;
type = BottomGhost;
},
{
horizontal = 1;
place = "{175, 75}";
},
{
horizontal = 1;
place = "{375, 75}";
},
{
horizontal = 1;
place = "{555, -20}";
target = down;
type = TopGhost;
}
);
layerId = UUID0;
paths = (
{
closed = 1;
nodes = (
"465 375 LINE",
"465 450 LINE",
"400 450 LINE",
"465 555 LINE",
"385 555 LINE",
"320 450 LINE",
"85 450 LINE",
"85 375 LINE",
"274 375 LINE",
"196 250 LINE",
"85 250 LINE",
"85 175 LINE",
"150 175 LINE",
"85 70 LINE",
"165 70 LINE",
"230 175 LINE",
"465 175 LINE",
"465 250 LINE",
"276 250 LINE",
"354 375 LINE"
);
}
);
width = 550;
}
);
unicode = 2260;
},
{
glyphname = greater;
lastChange = "2016-08-31 13:14:00 +0000";
layers = (
{
hints = (
{
horizontal = 1;
place = "{105, 21}";
target = up;
type = BottomGhost;
},
{
horizontal = 1;
place = "{564, -20}";
target = down;
type = TopGhost;
}
);
layerId = UUID0;
paths = (
{
closed = 1;
nodes = (
"465 280 LINE",
"465 385 LINE",
"85 564 LINE",
"85 472 LINE",
"401 336 LINE",
"85 199 LINE",
"85 105 LINE"
);
}
);
width = 550;
}
);
unicode = 003E;
},
{
glyphname = less;
lastChange = "2016-08-31 13:14:00 +0000";
layers = (
{
hints = (
{
horizontal = 1;
place = "{105, 21}";
target = up;
type = BottomGhost;
},
{
horizontal = 1;
place = "{564, -20}";
target = down;
type = TopGhost;
}
);
layerId = UUID0;
paths = (
{
closed = 1;
nodes = (
"465 105 LINE",
"465 199 LINE",
"155 336 LINE",
"465 472 LINE",
"465 564 LINE",
"85 385 LINE",
"85 280 LINE"
);
}
);
width = 550;
}
);
unicode = 003C;
},
{
glyphname = greaterequal;
lastChange = "2016-08-31 13:14:00 +0000";
layers = (
{
hints = (
{
horizontal = 1;
place = "{0, 75}";
},
{
horizontal = 1;
place = "{564, -20}";
target = down;
type = TopGhost;
}
);
layerId = UUID0;
paths = (
{
closed = 1;
nodes = (
"465 280 LINE",
"465 385 LINE",
"85 564 LINE",
"85 472 LINE",
"393 336 LINE",
"85 219 LINE",
"85 125 LINE"
);
},
{
closed = 1;
nodes = (
"465 0 LINE",
"465 75 LINE",
"85 75 LINE",
"85 0 LINE"
);
}
);
width = 550;
}
);
unicode = 2265;
},
{
glyphname = lessequal;
lastChange = "2016-08-31 13:14:00 +0000";
layers = (
{
hints = (
{
horizontal = 1;
place = "{0, 75}";
},
{
horizontal = 1;
place = "{564, -20}";
target = down;
type = TopGhost;
}
);
layerId = UUID0;
paths = (
{
closed = 1;
nodes = (
"465 125 LINE",
"465 219 LINE",
"157 336 LINE",
"465 472 LINE",
"465 564 LINE",
"85 385 LINE",
"85 280 LINE"
);
},
{
closed = 1;
nodes = (
"465 0 LINE",
"465 75 LINE",
"85 75 LINE",
"85 0 LINE"
);
}
);
width = 550;
}
);
unicode = 2264;
},
{
glyphname = plusminus;
lastChange = "2016-08-31 13:14:00 +0000";
layers = (
{
hints = (
{
place = "{235, 80}";
},
{
horizontal = 1;
place = "{0, 75}";
},
{
horizontal = 1;
place = "{275, 75}";
},
{
horizontal = 1;
place = "{508, -20}";
target = down;
type = TopGhost;
}
);
layerId = UUID0;
paths = (
{
closed = 1;
nodes = (
"465 275 LINE",
"465 350 LINE",
"315 350 LINE",
"315 508 LINE",
"235 508 LINE",
"235 350 LINE",
"85 350 LINE",
"85 275 LINE",
"235 275 LINE",
"235 143 LINE",
"315 143 LINE",
"315 275 LINE"
);
},
{
closed = 1;
nodes = (
"465 0 LINE",
"465 75 LINE",
"85 75 LINE",
"85 0 LINE"
);
}
);
width = 550;
}
);
unicode = 00B1;
},
{
glyphname = approxequal;
lastChange = "2016-08-31 13:14:00 +0000";
layers = (
{
hints = (
{
horizontal = 1;
place = "{170, 79}";
},
{
horizontal = 1;
place = "{210, 79}";
},
{
horizontal = 1;
place = "{339, 79}";
},
{
horizontal = 1;
place = "{379, 79}";
}
);
layerId = UUID0;
paths = (
{
closed = 1;
nodes = (
"85 343 LINE",
"85 343 OFFCURVE",
"168 379 OFFCURVE",
"182 379 CURVE SMOOTH",
"192 379 LINE SMOOTH",
"212 379 OFFCURVE",
"309 339 OFFCURVE",
"322 339 CURVE SMOOTH",
"337 339 LINE SMOOTH",
"354 339 OFFCURVE",
"425 374 OFFCURVE",
"425 374 CURVE",
"425 454 LINE",
"425 454 OFFCURVE",
"350 418 OFFCURVE",
"338 418 CURVE SMOOTH",
"328 418 LINE SMOOTH",
"305 418 OFFCURVE",
"221 458 OFFCURVE",
"197 458 CURVE SMOOTH",
"182 458 LINE SMOOTH",
"163 458 OFFCURVE",
"85 423 OFFCURVE",
"85 423 CURVE"
);
},
{
closed = 1;
nodes = (
"85 174 LINE",
"85 174 OFFCURVE",
"168 210 OFFCURVE",
"182 210 CURVE SMOOTH",
"192 210 LINE SMOOTH",
"212 210 OFFCURVE",
"309 170 OFFCURVE",
"322 170 CURVE SMOOTH",
"337 170 LINE SMOOTH",
"354 170 OFFCURVE",
"425 205 OFFCURVE",
"425 205 CURVE",
"425 285 LINE",
"425 285 OFFCURVE",
"350 249 OFFCURVE",
"338 249 CURVE SMOOTH",
"328 249 LINE SMOOTH",
"305 249 OFFCURVE",
"221 289 OFFCURVE",
"197 289 CURVE SMOOTH",
"182 289 LINE SMOOTH",
"163 289 OFFCURVE",
"85 254 OFFCURVE",
"85 254 CURVE"
);
}
);
width = 510;
}
);
unicode = 2248;
},
{
glyphname = asciitilde;
lastChange = "2016-08-31 13:14:00 +0000";
layers = (
{
hints = (
{
horizontal = 1;
place = "{262, 79}";
},
{
horizontal = 1;
place = "{302, 79}";
}
);
layerId = UUID0;
paths = (
{
closed = 1;
nodes = (
"85 266 LINE",
"85 266 OFFCURVE",
"168 302 OFFCURVE",
"182 302 CURVE SMOOTH",
"192 302 LINE SMOOTH",
"212 302 OFFCURVE",
"309 262 OFFCURVE",
"322 262 CURVE SMOOTH",
"337 262 LINE SMOOTH",
"354 262 OFFCURVE",
"425 297 OFFCURVE",
"425 297 CURVE",
"425 377 LINE",
"425 377 OFFCURVE",
"350 341 OFFCURVE",
"338 341 CURVE SMOOTH",
"328 341 LINE SMOOTH",
"305 341 OFFCURVE",
"221 381 OFFCURVE",
"197 381 CURVE SMOOTH",
"182 381 LINE SMOOTH",
"163 381 OFFCURVE",
"85 346 OFFCURVE",
"85 346 CURVE"
);
}
);
width = 510;
}
);
unicode = 007E;
},
{
glyphname = logicalnot;
lastChange = "2016-08-31 13:14:00 +0000";
layers = (
{
hints = (
{
place = "{420, 85}";
},
{
horizontal = 1;
place = "{106, 21}";
target = up;
type = BottomGhost;
},
{
horizontal = 1;
place = "{275, 75}";
}
);
layerId = UUID0;
paths = (
{
closed = 1;
nodes = (
"505 106 LINE",
"505 350 LINE",
"70 350 LINE",
"70 275 LINE",
"420 275 LINE",
"420 106 LINE"
);
}
);
width = 575;
}
);
unicode = 00AC;
},
{
glyphname = infinity;
lastChange = "2016-08-31 13:14:00 +0000";
layers = (
{
hints = (
{
place = "{48, 84}";
},
{
place = "{324, 82}";
},
{
place = "{598, 84}";
},
{
horizontal = 1;
place = "{141, 74}";
},
{
horizontal = 1;
place = "{401, 74}";
}
);
layerId = UUID0;
paths = (
{
closed = 1;
nodes = (
"365 194 LINE",
"389 160 OFFCURVE",
"428 141 OFFCURVE",
"481 141 CURVE SMOOTH",
"531 141 LINE SMOOTH",
"641 141 OFFCURVE",
"682 203 OFFCURVE",
"682 303 CURVE SMOOTH",
"682 318 LINE SMOOTH",
"682 418 OFFCURVE",
"641 475 OFFCURVE",
"531 475 CURVE SMOOTH",
"481 475 LINE SMOOTH",
"428 475 OFFCURVE",
"391 456 OFFCURVE",
"367 422 CURVE",
"343 456 OFFCURVE",
"302 475 OFFCURVE",
"249 475 CURVE SMOOTH",
"199 475 LINE SMOOTH",
"89 475 OFFCURVE",
"48 418 OFFCURVE",
"48 318 CURVE SMOOTH",
"48 298 LINE SMOOTH",
"48 198 OFFCURVE",
"89 141 OFFCURVE",
"199 141 CURVE SMOOTH",
"249 141 LINE SMOOTH",
"302 141 OFFCURVE",
"341 160 OFFCURVE",
"365 194 CURVE"
);
},
{
closed = 1;
nodes = (
"598 286 LINE SMOOTH",
"598 236 OFFCURVE",
"577 215 OFFCURVE",
"526 215 CURVE SMOOTH",
"479 215 LINE SMOOTH",
"434 215 OFFCURVE",
"406 246 OFFCURVE",
"406 286 CURVE SMOOTH",
"406 336 LINE SMOOTH",
"406 373 OFFCURVE",
"436 401 OFFCURVE",
"479 401 CURVE SMOOTH",
"526 401 LINE SMOOTH",
"574 401 OFFCURVE",
"598 383 OFFCURVE",
"598 338 CURVE SMOOTH"
);
},
{
closed = 1;
nodes = (
"132 330 LINE SMOOTH",
"132 380 OFFCURVE",
"153 401 OFFCURVE",
"204 401 CURVE SMOOTH",
"251 401 LINE SMOOTH",
"296 401 OFFCURVE",
"324 370 OFFCURVE",
"324 330 CURVE SMOOTH",
"324 280 LINE SMOOTH",
"324 243 OFFCURVE",
"294 215 OFFCURVE",
"251 215 CURVE SMOOTH",
"204 215 LINE SMOOTH",
"156 215 OFFCURVE",
"132 233 OFFCURVE",
"132 278 CURVE SMOOTH"
);
}
);
width = 730;
}
);
unicode = 221E;
},
{
glyphname = logicaland;
lastChange = "2016-08-31 13:14:00 +0000";
layers = (
{
hints = (
{
place = "{65, 100}";
},
{
horizontal = 1;
place = "{260, 100}";
}
);
layerId = UUID0;
paths = (
{
closed = 1;
nodes = (
"165 260 LINE",
"165 360 LINE",
"65 360 LINE",
"65 260 LINE"
);
}
);
width = 230;
}
);
unicode = 2227;
},
{
glyphname = integral;
lastChange = "2016-08-31 13:14:00 +0000";
layers = (
{
hints = (
{
place = "{116, 85}";
},
{
horizontal = 1;
place = "{-235, 75}";
},
{
horizontal = 1;
place = "{745, 75}";
}
);
layerId = UUID0;
paths = (
{
closed = 1;
nodes = (
"-10 -160 LINE",
"-10 -235 LINE",
"97 -235 LINE SMOOTH",
"157 -235 OFFCURVE",
"201 -195 OFFCURVE",
"201 -125 CURVE SMOOTH",
"201 715 LINE SMOOTH",
"201 732 OFFCURVE",
"214 745 OFFCURVE",
"236 745 CURVE SMOOTH",
"332 745 LINE",
"332 820 LINE",
"220 820 LINE SMOOTH",
"160 820 OFFCURVE",
"116 780 OFFCURVE",
"116 710 CURVE SMOOTH",
"116 -130 LINE SMOOTH",
"116 -147 OFFCURVE",
"103 -160 OFFCURVE",
"81 -160 CURVE SMOOTH"
);
}
);
width = 325;
}
);
unicode = 222B;
},
{
glyphname = Omega;
lastChange = "2016-08-31 13:14:00 +0000";
layers = (
{
hints = (
{
place = "{75, 87}";
},
{
place = "{382, 87}";
},
{
horizontal = 1;
place = "{0, 76}";
},
{
horizontal = 1;
place = "{624, 76}";
}
);
layerId = UUID0;
paths = (
{
closed = 1;
nodes = (
"500 0 LINE",
"500 76 LINE",
"446 76 LINE",
"461 103 OFFCURVE",
"469 135 OFFCURVE",
"469 170 CURVE SMOOTH",
"469 530 LINE SMOOTH",
"469 644 OFFCURVE",
"404 700 OFFCURVE",
"289 700 CURVE SMOOTH",
"255 700 LINE SMOOTH",
"140 700 OFFCURVE",
"75 644 OFFCURVE",
"75 530 CURVE SMOOTH",
"75 170 LINE SMOOTH",
"75 135 OFFCURVE",
"84 103 OFFCURVE",
"99 76 CURVE",
"50 76 LINE",
"50 0 LINE",
"233 0 LINE",
"233 76 LINE",
"193 76 OFFCURVE",
"162 111 OFFCURVE",
"162 151 CURVE SMOOTH",
"162 549 LINE SMOOTH",
"162 589 OFFCURVE",
"195 624 OFFCURVE",
"245 624 CURVE SMOOTH",
"299 624 LINE SMOOTH",
"349 624 OFFCURVE",
"382 589 OFFCURVE",
"382 549 CURVE SMOOTH",
"382 151 LINE SMOOTH",
"382 111 OFFCURVE",
"354 76 OFFCURVE",
"317 76 CURVE",
"317 0 LINE"
);
}
);
width = 548;
}
);
unicode = 2126;
},
{
glyphname = Delta;
lastChange = "2016-08-31 13:14:00 +0000";
layers = (
{
hints = (
{
horizontal = 1;
place = "{0, 75}";
},
{
horizontal = 1;
place = "{700, -20}";
target = down;
type = TopGhost;
}
);
layerId = UUID0;
paths = (
{
closed = 1;
nodes = (
"485 0 LINE",
"314 700 LINE",
"203 700 LINE",
"25 0 LINE"
);
},
{
closed = 1;
nodes = (
"377 75 LINE",
"133 75 LINE",
"258 625 LINE"
);
}
);
width = 510;
}
);
unicode = 2206;
},
{
glyphname = product;
lastChange = "2016-08-31 13:14:00 +0000";
layers = (
{
hints = (
{
place = "{124, 87}";
},
{
place = "{341, 87}";
},
{
horizontal = 1;
place = "{0, 75}";
},
{
horizontal = 1;
place = "{625, 75}";
}
);
layerId = UUID0;
paths = (
{
closed = 1;
nodes = (
"211 0 LINE",
"211 625 LINE",
"341 625 LINE",
"341 100 LINE SMOOTH",
"341 24 OFFCURVE",
"387 0 OFFCURVE",
"426 0 CURVE SMOOTH",
"476 0 LINE",
"476 75 LINE",
"461 75 LINE SMOOTH",
"435 75 OFFCURVE",
"428 84 OFFCURVE",
"428 105 CURVE SMOOTH",
"428 625 LINE",
"519 625 LINE",
"519 700 LINE",
"45 700 LINE",
"45 625 LINE",
"124 625 LINE",
"124 0 LINE"
);
}
);
width = 564;
}
);
unicode = 220F;
},
{
glyphname = summation;
lastChange = "2016-08-31 13:14:00 +0000";
layers = (
{
hints = (
{
horizontal = 1;
place = "{-170, 74}";
},
{
horizontal = 1;
place = "{625, 75}";
}
);
layerId = UUID0;
paths = (
{
closed = 1;
nodes = (
"425 -170 LINE",
"425 -96 LINE",
"126 -96 LINE",
"303 267 LINE",
"141 625 LINE",
"414 625 LINE",
"414 700 LINE",
"53 700 LINE",
"53 605 LINE",
"208 267 LINE",
"40 -76 LINE",
"40 -170 LINE"
);
}
);
width = 470;
}
);
unicode = 2211;
},
{
glyphname = radical;
lastChange = "2016-08-31 13:14:00 +0000";
layers = (
{
hints = (
{
horizontal = 1;
place = "{0, 21}";
target = up;
type = BottomGhost;
},
{
horizontal = 1;
place = "{745, 75}";
}
);
layerId = UUID0;
paths = (
{
closed = 1;
nodes = (
"570 745 LINE",
"570 820 LINE",
"393 820 LINE",
"216 61 LINE",
"124 392 LINE",
"35 392 LINE",
"154 0 LINE",
"282 0 LINE",
"457 745 LINE"
);
}
);
width = 555;
}
);
unicode = 221A;
},
{
glyphname = mu;
lastChange = "2016-08-31 13:14:00 +0000";
layers = (
{
hints = (
{
place = "{80, 85}";
},
{
place = "{329, 85}";
},
{
horizontal = 1;
place = "{-170, 21}";
target = up;
type = BottomGhost;
},
{
horizontal = 1;
place = "{0, 75}";
},
{
horizontal = 1;
place = "{500, -20}";
target = down;
type = TopGhost;
}
);
layerId = UUID0;
paths = (
{
closed = 1;
nodes = (
"165 -170 LINE",
"165 10 LINE",
"186 3 OFFCURVE",
"211 0 OFFCURVE",
"240 0 CURVE SMOOTH",
"254 0 LINE SMOOTH",
"284 0 OFFCURVE",
"311 7 OFFCURVE",
"334 23 CURVE",
"334 0 LINE",
"414 0 LINE",
"414 500 LINE",
"329 500 LINE",
"329 130 LINE SMOOTH",
"329 110 OFFCURVE",
"314 75 OFFCURVE",
"264 75 CURVE SMOOTH",
"230 75 LINE SMOOTH",
"190 75 OFFCURVE",
"165 100 OFFCURVE",
"165 140 CURVE SMOOTH",
"165 500 LINE",
"80 500 LINE",
"80 -170 LINE"
);
}
);
width = 494;
}
);
unicode = 00B5;
},
{
glyphname = partialdiff;
lastChange = "2016-08-31 13:14:00 +0000";
layers = (
{
hints = (
{
place = "{65, 85}";
},
{
place = "{321, 85}";
},
{
horizontal = 1;
place = "{0, 75}";
},
{
horizontal = 1;
place = "{365, 75}";
},
{
horizontal = 1;
place = "{624, 76}";
}
);
layerId = UUID0;
paths = (
{
closed = 1;
nodes = (
"65 170 LINE SMOOTH",
"65 56 OFFCURVE",
"138 0 OFFCURVE",
"223 0 CURVE SMOOTH",
"248 0 LINE SMOOTH",
"333 0 OFFCURVE",
"406 56 OFFCURVE",
"406 170 CURVE SMOOTH",
"406 530 LINE SMOOTH",
"406 644 OFFCURVE",
"343 700 OFFCURVE",
"228 700 CURVE SMOOTH",
"113 700 LINE",
"113 624 LINE",
"238 624 LINE SMOOTH",
"288 624 OFFCURVE",
"321 589 OFFCURVE",
"321 549 CURVE SMOOTH",
"321 440 LINE",
"233 440 LINE SMOOTH",
"120 440 OFFCURVE",
"65 394 OFFCURVE",
"65 280 CURVE SMOOTH"
);
},
{
closed = 1;
nodes = (
"321 365 LINE",
"321 151 LINE SMOOTH",
"321 111 OFFCURVE",
"293 75 OFFCURVE",
"243 75 CURVE SMOOTH",
"228 75 LINE SMOOTH",
"178 75 OFFCURVE",
"150 111 OFFCURVE",
"150 151 CURVE SMOOTH",
"150 299 LINE SMOOTH",
"150 339 OFFCURVE",
"173 365 OFFCURVE",
"223 365 CURVE SMOOTH"
);
}
);
width = 470;
}
);
unicode = 2202;
},
{
glyphname = percent;
lastChange = "2016-08-31 13:14:00 +0000";
layers = (
{
hints = (
{
place = "{89, 70}";
},
{
place = "{281, 70}";
},
{
place = "{503, 70}";
},
{
place = "{695, 70}";
},
{
horizontal = 1;
place = "{0, 60}";
},
{
horizontal = 1;
place = "{284, 60}";
},
{
horizontal = 1;
place = "{356, 60}";
},
{
horizontal = 1;
place = "{640, 60}";
}
);
layerId = UUID0;
paths = (
{
closed = 1;
nodes = (
"590 700 LINE",
"512 700 LINE",
"267 0 LINE",
"351 0 LINE"
);
},
{
closed = 1;
nodes = (
"351 412 LINE",
"351 572 LINE SMOOTH",
"351 658 OFFCURVE",
"304 700 OFFCURVE",
"229 700 CURVE SMOOTH",
"211 700 LINE SMOOTH",
"136 700 OFFCURVE",
"89 658 OFFCURVE",
"89 572 CURVE SMOOTH",
"89 412 LINE SMOOTH",
"89 326 OFFCURVE",
"136 284 OFFCURVE",
"211 284 CURVE SMOOTH",
"229 284 LINE SMOOTH",
"304 284 OFFCURVE",
"351 326 OFFCURVE",
"351 412 CURVE"
);
},
{
closed = 1;
nodes = (
"281 401 LINE SMOOTH",
"281 371 OFFCURVE",
"266 344 OFFCURVE",
"229 344 CURVE SMOOTH",
"211 344 LINE SMOOTH",
"174 344 OFFCURVE",
"159 371 OFFCURVE",
"159 401 CURVE SMOOTH",
"159 583 LINE SMOOTH",
"159 613 OFFCURVE",
"174 640 OFFCURVE",
"211 640 CURVE SMOOTH",
"229 640 LINE SMOOTH",
"266 640 OFFCURVE",
"281 613 OFFCURVE",
"281 583 CURVE SMOOTH"
);
},
{
closed = 1;
nodes = (
"765 128 LINE",
"765 288 LINE SMOOTH",
"765 374 OFFCURVE",
"718 416 OFFCURVE",
"643 416 CURVE SMOOTH",
"625 416 LINE SMOOTH",
"550 416 OFFCURVE",
"503 374 OFFCURVE",
"503 288 CURVE SMOOTH",
"503 128 LINE SMOOTH",
"503 42 OFFCURVE",
"550 0 OFFCURVE",
"625 0 CURVE SMOOTH",
"643 0 LINE SMOOTH",
"718 0 OFFCURVE",
"765 42 OFFCURVE",
"765 128 CURVE"
);
},
{
closed = 1;
nodes = (
"695 117 LINE SMOOTH",
"695 87 OFFCURVE",
"680 60 OFFCURVE",
"643 60 CURVE SMOOTH",
"625 60 LINE SMOOTH",
"588 60 OFFCURVE",
"573 87 OFFCURVE",
"573 117 CURVE SMOOTH",
"573 299 LINE SMOOTH",
"573 329 OFFCURVE",
"588 356 OFFCURVE",
"625 356 CURVE SMOOTH",
"643 356 LINE SMOOTH",
"680 356 OFFCURVE",
"695 329 OFFCURVE",
"695 299 CURVE SMOOTH"
);
}
);
width = 856;
}
);
unicode = 0025;
},
{
glyphname = perthousand;
lastChange = "2016-08-31 13:14:00 +0000";
layers = (
{
hints = (
{
place = "{89, 70}";
},
{
place = "{281, 70}";
},
{
place = "{503, 70}";
},
{
place = "{695, 70}";
},
{
place = "{827, 70}";
},
{
place = "{1019, 70}";
},
{
horizontal = 1;
place = "{0, 60}";
},
{
horizontal = 1;
place = "{284, 60}";
},
{
horizontal = 1;
place = "{356, 60}";
},
{
horizontal = 1;
place = "{640, 60}";
}
);
layerId = UUID0;
paths = (
{
closed = 1;
nodes = (
"590 700 LINE",
"512 700 LINE",
"267 0 LINE",
"351 0 LINE"
);
},
{
closed = 1;
nodes = (
"351 412 LINE",
"351 572 LINE SMOOTH",
"351 658 OFFCURVE",
"304 700 OFFCURVE",
"229 700 CURVE SMOOTH",
"211 700 LINE SMOOTH",
"136 700 OFFCURVE",
"89 658 OFFCURVE",
"89 572 CURVE SMOOTH",
"89 412 LINE SMOOTH",
"89 326 OFFCURVE",
"136 284 OFFCURVE",
"211 284 CURVE SMOOTH",
"229 284 LINE SMOOTH",
"304 284 OFFCURVE",
"351 326 OFFCURVE",
"351 412 CURVE"
);
},
{
closed = 1;
nodes = (
"281 401 LINE SMOOTH",
"281 371 OFFCURVE",
"266 344 OFFCURVE",
"229 344 CURVE SMOOTH",
"211 344 LINE SMOOTH",
"174 344 OFFCURVE",
"159 371 OFFCURVE",
"159 401 CURVE SMOOTH",
"159 583 LINE SMOOTH",
"159 613 OFFCURVE",
"174 640 OFFCURVE",
"211 640 CURVE SMOOTH",
"229 640 LINE SMOOTH",
"266 640 OFFCURVE",
"281 613 OFFCURVE",
"281 583 CURVE SMOOTH"
);
},
{
closed = 1;
nodes = (
"765 128 LINE",
"765 288 LINE SMOOTH",
"765 374 OFFCURVE",
"718 416 OFFCURVE",
"643 416 CURVE SMOOTH",
"625 416 LINE SMOOTH",
"550 416 OFFCURVE",
"503 374 OFFCURVE",
"503 288 CURVE SMOOTH",
"503 128 LINE SMOOTH",
"503 42 OFFCURVE",
"550 0 OFFCURVE",
"625 0 CURVE SMOOTH",
"643 0 LINE SMOOTH",
"718 0 OFFCURVE",
"765 42 OFFCURVE",
"765 128 CURVE"
);
},
{
closed = 1;
nodes = (
"695 117 LINE SMOOTH",
"695 87 OFFCURVE",
"680 60 OFFCURVE",
"643 60 CURVE SMOOTH",
"625 60 LINE SMOOTH",
"588 60 OFFCURVE",
"573 87 OFFCURVE",
"573 117 CURVE SMOOTH",
"573 299 LINE SMOOTH",
"573 329 OFFCURVE",
"588 356 OFFCURVE",
"625 356 CURVE SMOOTH",
"643 356 LINE SMOOTH",
"680 356 OFFCURVE",
"695 329 OFFCURVE",
"695 299 CURVE SMOOTH"
);
},
{
closed = 1;
nodes = (
"1089 128 LINE",
"1089 288 LINE SMOOTH",
"1089 374 OFFCURVE",
"1042 416 OFFCURVE",
"967 416 CURVE SMOOTH",
"949 416 LINE SMOOTH",
"874 416 OFFCURVE",
"827 374 OFFCURVE",
"827 288 CURVE SMOOTH",
"827 128 LINE SMOOTH",
"827 42 OFFCURVE",
"874 0 OFFCURVE",
"949 0 CURVE SMOOTH",
"967 0 LINE SMOOTH",
"1042 0 OFFCURVE",
"1089 42 OFFCURVE",
"1089 128 CURVE"
);
},
{
closed = 1;
nodes = (
"1019 117 LINE SMOOTH",
"1019 87 OFFCURVE",
"1004 60 OFFCURVE",
"967 60 CURVE SMOOTH",
"949 60 LINE SMOOTH",
"912 60 OFFCURVE",
"897 87 OFFCURVE",
"897 117 CURVE SMOOTH",
"897 299 LINE SMOOTH",
"897 329 OFFCURVE",
"912 356 OFFCURVE",
"949 356 CURVE SMOOTH",
"967 356 LINE SMOOTH",
"1004 356 OFFCURVE",
"1019 329 OFFCURVE",
"1019 299 CURVE SMOOTH"
);
}
);
width = 1178;
}
);
unicode = 2030;
},
{
glyphname = uni2215;
lastChange = "2016-08-31 13:14:00 +0000";
layers = (
{
hints = (
{
horizontal = 1;
place = "{-100, 21}";
target = up;
type = BottomGhost;
},
{
horizontal = 1;
place = "{810, -20}";
target = down;
type = TopGhost;
}
);
layerId = UUID0;
paths = (
{
closed = 1;
nodes = (
"315 810 LINE",
"235 810 LINE",
"-85 -100 LINE",
"-5 -100 LINE"
);
}
);
width = 230;
}
);
unicode = 2215;
},
{
glyphname = uni2219;
lastChange = "2016-08-31 13:14:00 +0000";
layers = (
{
hints = (
{
place = "{65, 100}";
},
{
horizontal = 1;
place = "{260, 100}";
}
);
layerId = UUID0;
paths = (
{
closed = 1;
nodes = (
"165 260 LINE",
"165 360 LINE",
"65 360 LINE",
"65 260 LINE"
);
}
);
width = 230;
}
);
unicode = 2219;
},
{
glyphname = uni2224;
lastChange = "2016-08-31 13:14:00 +0000";
layers = (
{
hints = (
{
place = "{65, 100}";
},
{
horizontal = 1;
place = "{260, 100}";
}
);
layerId = UUID0;
paths = (
{
closed = 1;
nodes = (
"165 260 LINE",
"165 360 LINE",
"65 360 LINE",
"65 260 LINE"
);
}
);
width = 230;
}
);
unicode = 2224;
},
{
glyphname = lozenge;
lastChange = "2016-08-31 13:14:00 +0000";
layers = (
{
hints = (
{
horizontal = 1;
place = "{0, 21}";
target = up;
type = BottomGhost;
},
{
horizontal = 1;
place = "{700, -20}";
target = down;
type = TopGhost;
}
);
layerId = UUID0;
paths = (
{
closed = 1;
nodes = (
"430 350 LINE",
"290 700 LINE",
"180 700 LINE",
"40 350 LINE",
"178 0 LINE",
"290 0 LINE"
);
},
{
closed = 1;
nodes = (
"343 350 LINE",
"235 70 LINE",
"127 350 LINE",
"235 630 LINE"
);
}
);
width = 470;
}
);
unicode = 25CA;
},
{
glyphname = uni25AF;
lastChange = "2016-08-31 13:14:00 +0000";
layers = (
{
hints = (
{
place = "{65, 75}";
},
{
place = "{362, 75}";
},
{
horizontal = 1;
place = "{0, 72}";
},
{
horizontal = 1;
place = "{628, 72}";
}
);
layerId = UUID0;
paths = (
{
closed = 1;
nodes = (
"65 0 LINE",
"437 0 LINE",
"437 700 LINE",
"65 700 LINE"
);
},
{
closed = 1;
nodes = (
"140 72 LINE",
"140 628 LINE",
"362 628 LINE",
"362 72 LINE"
);
}
);
width = 502;
}
);
unicode = 25AF;
},
{
glyphname = at;
lastChange = "2016-08-31 13:14:00 +0000";
layers = (
{
hints = (
{
place = "{95, 83}";
},
{
place = "{241, 80}";
},
{
place = "{472, 80}";
},
{
place = "{637, 83}";
},
{
horizontal = 1;
place = "{0, 73}";
},
{
horizontal = 1;
place = "{115, 65}";
},
{
horizontal = 1;
place = "{144, 68}";
},
{
horizontal = 1;
place = "{472, 67}";
},
{
horizontal = 1;
place = "{627, 73}";
}
);
layerId = UUID0;
paths = (
{
closed = 1;
nodes = (
"561 0 LINE",
"561 73 LINE",
"265 73 LINE SMOOTH",
"215 73 OFFCURVE",
"178 110 OFFCURVE",
"178 150 CURVE SMOOTH",
"178 540 LINE SMOOTH",
"178 591 OFFCURVE",
"215 627 OFFCURVE",
"265 627 CURVE SMOOTH",
"550 627 LINE SMOOTH",
"602 627 OFFCURVE",
"637 589 OFFCURVE",
"637 540 CURVE SMOOTH",
"637 230 LINE SMOOTH",
"637 200 OFFCURVE",
"626 180 OFFCURVE",
"596 180 CURVE SMOOTH",
"568 180 OFFCURVE",
"552 197 OFFCURVE",
"552 217 CURVE SMOOTH",
"552 539 LINE",
"418 539 LINE SMOOTH",
"305 539 OFFCURVE",
"241 504 OFFCURVE",
"241 393 CURVE SMOOTH",
"241 275 LINE SMOOTH",
"241 168 OFFCURVE",
"308 144 OFFCURVE",
"375 144 CURVE SMOOTH",
"426 144 OFFCURVE",
"464 157 OFFCURVE",
"488 184 CURVE",
"508 132 OFFCURVE",
"562 115 OFFCURVE",
"593 115 CURVE SMOOTH",
"671 115 OFFCURVE",
"720 150 OFFCURVE",
"720 250 CURVE SMOOTH",
"720 520 LINE SMOOTH",
"720 635 OFFCURVE",
"655 700 OFFCURVE",
"540 700 CURVE SMOOTH",
"275 700 LINE SMOOTH",
"160 700 OFFCURVE",
"95 635 OFFCURVE",
"95 520 CURVE SMOOTH",
"95 170 LINE SMOOTH",
"95 56 OFFCURVE",
"160 0 OFFCURVE",
"275 0 CURVE SMOOTH"
);
},
{
closed = 1;
nodes = (
"394 212 LINE SMOOTH",
"349 212 OFFCURVE",
"321 228 OFFCURVE",
"321 279 CURVE SMOOTH",
"321 389 LINE SMOOTH",
"321 455 OFFCURVE",
"351 472 OFFCURVE",
"407 472 CURVE SMOOTH",
"472 472 LINE",
"472 264 LINE SMOOTH",
"472 240 OFFCURVE",
"456 212 OFFCURVE",
"394 212 CURVE SMOOTH"
);
}
);
width = 815;
}
);
unicode = 0040;
},
{
glyphname = ampersand;
lastChange = "2016-08-31 13:14:00 +0000";
layers = (
{
hints = (
{
place = "{69, 87}";
},
{
place = "{79, 87}";
},
{
place = "{322, 81}";
},
{
horizontal = 1;
place = "{0, 75}";
},
{
horizontal = 1;
place = "{365, 75}";
},
{
horizontal = 1;
place = "{625, 75}";
}
);
layerId = UUID0;
paths = (
{
closed = 1;
nodes = (
"403 0 LINE",
"403 365 LINE",
"482 365 LINE",
"482 440 LINE",
"239 440 LINE SMOOTH",
"199 440 OFFCURVE",
"166 468 OFFCURVE",
"166 513 CURVE SMOOTH",
"166 553 LINE SMOOTH",
"166 604 OFFCURVE",
"189 625 OFFCURVE",
"239 625 CURVE SMOOTH",
"357 625 LINE",
"357 700 LINE",
"251 700 LINE SMOOTH",
"141 700 OFFCURVE",
"79 654 OFFCURVE",
"79 544 CURVE SMOOTH",
"79 523 LINE SMOOTH",
"79 470 OFFCURVE",
"100 431 OFFCURVE",
"134 407 CURVE",
"92 384 OFFCURVE",
"69 344 OFFCURVE",
"69 284 CURVE SMOOTH",
"69 158 LINE SMOOTH",
"69 48 OFFCURVE",
"119 0 OFFCURVE",
"239 0 CURVE SMOOTH"
);
},
{
closed = 1;
nodes = (
"229 365 LINE",
"322 365 LINE",
"322 75 LINE",
"230 75 LINE SMOOTH",
"179 75 OFFCURVE",
"156 97 OFFCURVE",
"156 148 CURVE SMOOTH",
"156 293 LINE SMOOTH",
"156 337 OFFCURVE",
"186 365 OFFCURVE",
"229 365 CURVE"
);
}
);
width = 507;
}
);
unicode = 0026;
},
{
glyphname = paragraph;
lastChange = "2016-08-31 13:14:00 +0000";
layers = (
{
hints = (
{
place = "{51, 81}";
},
{
place = "{224, 83}";
},
{
place = "{362, 80}";
},
{
horizontal = 1;
place = "{0, 21}";
target = up;
type = BottomGhost;
},
{
horizontal = 1;
place = "{374, 68}";
},
{
horizontal = 1;
place = "{630, 70}";
}
);
layerId = UUID0;
paths = (
{
closed = 1;
nodes = (
"307 0 LINE",
"307 442 LINE",
"207 442 LINE SMOOTH",
"157 442 OFFCURVE",
"132 467 OFFCURVE",
"132 507 CURVE SMOOTH",
"132 560 LINE SMOOTH",
"132 600 OFFCURVE",
"157 630 OFFCURVE",
"207 630 CURVE SMOOTH",
"307 630 LINE",
"307 700 LINE",
"218 700 LINE SMOOTH",
"103 700 OFFCURVE",
"51 654 OFFCURVE",
"51 540 CURVE SMOOTH",
"51 527 LINE SMOOTH",
"51 412 OFFCURVE",
"103 374 OFFCURVE",
"218 374 CURVE SMOOTH",
"224 374 LINE",
"224 0 LINE"
);
},
{
closed = 1;
nodes = (
"442 0 LINE",
"442 700 LINE",
"362 700 LINE",
"362 0 LINE"
);
}
);
width = 510;
}
);
unicode = 00B6;
},
{
glyphname = section;
lastChange = "2016-08-31 13:14:00 +0000";
layers = (
{
hints = (
{
place = "{90, 85}";
},
{
place = "{104, 85}";
},
{
place = "{284, 85}";
},
{
place = "{298, 85}";
},
{
horizontal = 1;
place = "{0, 75}";
},
{
horizontal = 1;
place = "{205, 75}";
},
{
horizontal = 1;
place = "{420, 75}";
},
{
horizontal = 1;
place = "{625, 75}";
}
);
layerId = UUID0;
paths = (
{
closed = 1;
nodes = (
"90 355 LINE",
"90 350 LINE SMOOTH",
"90 250 OFFCURVE",
"138 205 OFFCURVE",
"227 205 CURVE SMOOTH",
"240 205 LINE SMOOTH",
"269 205 OFFCURVE",
"284 189 OFFCURVE",
"284 160 CURVE SMOOTH",
"284 120 LINE SMOOTH",
"284 90 OFFCURVE",
"259 75 OFFCURVE",
"229 75 CURVE SMOOTH",
"115 75 LINE",
"115 0 LINE",
"219 0 LINE SMOOTH",
"314 0 OFFCURVE",
"369 40 OFFCURVE",
"369 140 CURVE SMOOTH",
"369 150 LINE SMOOTH",
"369 188 OFFCURVE",
"358 224 OFFCURVE",
"339 238 CURVE",
"364 260 OFFCURVE",
"383 295 OFFCURVE",
"383 345 CURVE SMOOTH",
"383 350 LINE SMOOTH",
"383 450 OFFCURVE",
"335 495 OFFCURVE",
"246 495 CURVE SMOOTH",
"237 495 LINE SMOOTH",
"209 495 OFFCURVE",
"189 508 OFFCURVE",
"189 540 CURVE SMOOTH",
"189 580 LINE SMOOTH",
"189 610 OFFCURVE",
"214 625 OFFCURVE",
"244 625 CURVE SMOOTH",
"358 625 LINE",
"358 700 LINE",
"254 700 LINE SMOOTH",
"159 700 OFFCURVE",
"104 660 OFFCURVE",
"104 560 CURVE SMOOTH",
"104 550 LINE SMOOTH",
"104 512 OFFCURVE",
"116 481 OFFCURVE",
"134 462 CURVE",
"109 444 OFFCURVE",
"90 404 OFFCURVE",
"90 355 CURVE"
);
},
{
closed = 1;
nodes = (
"246 420 LINE SMOOTH",
"290 420 OFFCURVE",
"298 397 OFFCURVE",
"298 370 CURVE SMOOTH",
"298 325 LINE SMOOTH",
"298 295 OFFCURVE",
"284 280 OFFCURVE",
"263 280 CURVE SMOOTH",
"228 280 LINE SMOOTH",
"190 280 OFFCURVE",
"175 302 OFFCURVE",
"175 330 CURVE SMOOTH",
"175 375 LINE SMOOTH",
"175 405 OFFCURVE",
"188 420 OFFCURVE",
"210 420 CURVE SMOOTH"
);
}
);
width = 470;
}
);
unicode = 00A7;
},
{
glyphname = copyright;
lastChange = "2016-08-31 13:14:00 +0000";
layers = (
{
hints = (
{
place = "{105, 77}";
},
{
place = "{295, 57}";
},
{
place = "{618, 77}";
},
{
horizontal = 1;
place = "{0, 67}";
},
{
horizontal = 1;
place = "{157, 51}";
},
{
horizontal = 1;
place = "{492, 51}";
},
{
horizontal = 1;
place = "{633, 67}";
}
);
layerId = UUID0;
paths = (
{
closed = 1;
nodes = (
"695 170 LINE",
"695 530 LINE SMOOTH",
"695 645 OFFCURVE",
"627 700 OFFCURVE",
"527 700 CURVE SMOOTH",
"273 700 LINE SMOOTH",
"173 700 OFFCURVE",
"105 645 OFFCURVE",
"105 530 CURVE SMOOTH",
"105 170 LINE SMOOTH",
"105 56 OFFCURVE",
"173 0 OFFCURVE",
"273 0 CURVE SMOOTH",
"527 0 LINE SMOOTH",
"627 0 OFFCURVE",
"695 56 OFFCURVE",
"695 170 CURVE"
);
},
{
closed = 1;
nodes = (
"477 157 LINE",
"477 208 LINE",
"398 208 LINE SMOOTH",
"368 208 OFFCURVE",
"352 228 OFFCURVE",
"352 250 CURVE SMOOTH",
"352 450 LINE SMOOTH",
"352 472 OFFCURVE",
"368 492 OFFCURVE",
"398 492 CURVE SMOOTH",
"478 492 LINE",
"478 543 LINE",
"403 543 LINE SMOOTH",
"334 543 OFFCURVE",
"295 512 OFFCURVE",
"295 449 CURVE SMOOTH",
"295 251 LINE SMOOTH",
"295 188 OFFCURVE",
"334 157 OFFCURVE",
"403 157 CURVE SMOOTH"
);
},
{
closed = 1;
nodes = (
"618 151 LINE SMOOTH",
"618 111 OFFCURVE",
"589 67 OFFCURVE",
"527 67 CURVE SMOOTH",
"273 67 LINE SMOOTH",
"212 67 OFFCURVE",
"182 111 OFFCURVE",
"182 151 CURVE SMOOTH",
"182 549 LINE SMOOTH",
"182 589 OFFCURVE",
"212 633 OFFCURVE",
"273 633 CURVE SMOOTH",
"527 633 LINE SMOOTH",
"587 633 OFFCURVE",
"618 589 OFFCURVE",
"618 549 CURVE SMOOTH"
);
}
);
width = 800;
}
);
unicode = 00A9;
},
{
glyphname = registered;
lastChange = "2016-08-31 13:14:00 +0000";
layers = (
{
hints = (
{
place = "{105, 77}";
},
{
place = "{304, 56}";
},
{
place = "{454, 61}";
},
{
place = "{618, 77}";
},
{
horizontal = 1;
place = "{0, 67}";
},
{
horizontal = 1;
place = "{317, 46}";
},
{
horizontal = 1;
place = "{496, 47}";
},
{
horizontal = 1;
place = "{633, 67}";
}
);
layerId = UUID0;
paths = (
{
closed = 1;
nodes = (
"695 170 LINE",
"695 530 LINE SMOOTH",
"695 645 OFFCURVE",
"627 700 OFFCURVE",
"527 700 CURVE SMOOTH",
"273 700 LINE SMOOTH",
"173 700 OFFCURVE",
"105 645 OFFCURVE",
"105 530 CURVE SMOOTH",
"105 170 LINE SMOOTH",
"105 56 OFFCURVE",
"173 0 OFFCURVE",
"273 0 CURVE SMOOTH",
"527 0 LINE SMOOTH",
"627 0 OFFCURVE",
"695 56 OFFCURVE",
"695 170 CURVE"
);
},
{
closed = 1;
nodes = (
"618 151 LINE SMOOTH",
"618 111 OFFCURVE",
"589 67 OFFCURVE",
"527 67 CURVE SMOOTH",
"273 67 LINE SMOOTH",
"212 67 OFFCURVE",
"182 111 OFFCURVE",
"182 151 CURVE SMOOTH",
"182 549 LINE SMOOTH",
"182 589 OFFCURVE",
"212 633 OFFCURVE",
"273 633 CURVE SMOOTH",
"527 633 LINE SMOOTH",
"587 633 OFFCURVE",
"618 589 OFFCURVE",
"618 549 CURVE SMOOTH"
);
},
{
closed = 1;
nodes = (
"544 159 LINE",
"461 326 LINE",
"495 336 OFFCURVE",
"515 360 OFFCURVE",
"515 404 CURVE SMOOTH",
"515 457 LINE SMOOTH",
"515 517 OFFCURVE",
"477 543 OFFCURVE",
"411 543 CURVE SMOOTH",
"304 543 LINE",
"304 159 LINE",
"360 159 LINE",
"360 317 LINE",
"405 317 LINE",
"483 159 LINE"
);
},
{
closed = 1;
nodes = (
"454 403 LINE SMOOTH",
"454 375 OFFCURVE",
"441 363 OFFCURVE",
"411 363 CURVE SMOOTH",
"360 363 LINE",
"360 496 LINE",
"411 496 LINE SMOOTH",
"441 496 OFFCURVE",
"454 485 OFFCURVE",
"454 457 CURVE SMOOTH"
);
}
);
width = 800;
}
);
unicode = 00AE;
},
